<ttFont>
    <TTGlyph name=".notdef" xMin="50" yMin="0" xMax="450" yMax="531">
      <contour>
        <pt x="50" y="0" on="1"/>
        <pt x="50" y="531" on="1"/>
        <pt x="450" y="531" on="1"/>
        <pt x="450" y="0" on="1"/>
      </contour>
      <contour>
        <pt x="100" y="50" on="1"/>
        <pt x="400" y="50" on="1"/>
        <pt x="400" y="481" on="1"/>
        <pt x="100" y="481" on="1"/>
      </contour>
    </TTGlyph>
    <TTGlyph name="A" xMin="0" yMin="0" xMax="755" yMax="743">
      <contour>
        <pt x="0" y="0" on="1"/>
        <pt x="0" y="36" on="1"/>
        <pt x="33" y="39" on="0"/>
        <pt x="65" y="62" on="0"/>
        <pt x="101" y="127" on="0"/>
        <pt x="134" y="210" on="1"/>
        <pt x="342" y="730" on="1"/>
        <pt x="349" y="735" on="0"/>
        <pt x="400" y="743" on="0"/>
        <pt x="410" y="743" on="1"/>
        <pt x="666" y="110" on="0"/>
        <pt x="683" y="78" on="0"/>
        <pt x="698" y="59" on="0"/>
        <pt x="732" y="39" on="0"/>
        <pt x="755" y="36" on="1"/>
        <pt x="755" y="0" on="1"/>
        <pt x="469" y="0" on="1"/>
        <pt x="469" y="34" on="1"/>
        <pt x="558" y="41" on="0"/>
        <pt x="558" y="78" on="1"/>
        <pt x="558" y="105" on="0"/>
        <pt x="537" y="153" on="1"/>
        <pt x="518" y="197" on="1"/>
        <pt x="506" y="224" on="0"/>
        <pt x="497" y="249" on="1"/>
        <pt x="208" y="249" on="1"/>
        <pt x="190" y="208" on="0"/>
        <pt x="146" y="93" on="0"/>
        <pt x="146" y="83" on="1"/>
        <pt x="146" y="47" on="0"/>
        <pt x="236" y="39" on="1"/>
        <pt x="236" y="0" on="1"/>
      </contour>
      <contour>
        <pt x="222" y="292" on="1"/>
        <pt x="484" y="292" on="1"/>
        <pt x="351" y="621" on="1"/>
      </contour>
    </TTGlyph>
    <TTGlyph name="AE" xMin="0" yMin="0" xMax="991" yMax="738">
      <contour>
        <pt x="157" y="77" on="1"/>
        <pt x="157" y="45" on="0"/>
        <pt x="236" y="39" on="1"/>
        <pt x="236" y="0" on="1"/>
        <pt x="0" y="0" on="1"/>
        <pt x="0" y="36" on="1"/>
        <pt x="33" y="39" on="0"/>
        <pt x="70" y="61" on="0"/>
        <pt x="120" y="129" on="0"/>
        <pt x="167" y="210" on="1"/>
        <pt x="430" y="673" on="1"/>
        <pt x="434" y="678" on="0"/>
        <pt x="434" y="689" on="0"/>
        <pt x="430" y="694" on="0"/>
        <pt x="424" y="696" on="1"/>
        <pt x="404" y="700" on="0"/>
        <pt x="378" y="700" on="1"/>
        <pt x="364" y="701" on="1"/>
        <pt x="364" y="738" on="1"/>
        <pt x="418" y="734" on="0"/>
        <pt x="648" y="734" on="0"/>
        <pt x="694" y="737" on="1"/>
        <pt x="956" y="738" on="1"/>
        <pt x="968" y="727" on="1"/>
        <pt x="966" y="716" on="0"/>
        <pt x="942" y="551" on="0"/>
        <pt x="941" y="542" on="1"/>
        <pt x="907" y="542" on="1"/>
        <pt x="907" y="542" on="0"/>
        <pt x="886" y="650" on="1"/>
        <pt x="878" y="670" on="0"/>
        <pt x="870" y="676" on="1"/>
        <pt x="822" y="685" on="0"/>
        <pt x="661" y="685" on="0"/>
        <pt x="625" y="672" on="0"/>
        <pt x="624" y="651" on="1"/>
        <pt x="622" y="597" on="0"/>
        <pt x="620" y="413" on="1"/>
        <pt x="762" y="413" on="0"/>
        <pt x="867" y="418" on="1"/>
        <pt x="857" y="344" on="1"/>
        <pt x="839" y="344" on="1"/>
        <pt x="803" y="370" on="0"/>
        <pt x="619" y="370" on="1"/>
        <pt x="617" y="83" on="1"/>
        <pt x="617" y="59" on="0"/>
        <pt x="689" y="44" on="0"/>
        <pt x="874" y="44" on="0"/>
        <pt x="889" y="56" on="1"/>
        <pt x="913" y="77" on="0"/>
        <pt x="940" y="178" on="1"/>
        <pt x="954" y="232" on="1"/>
        <pt x="991" y="232" on="1"/>
        <pt x="982" y="109" on="0"/>
        <pt x="982" y="0" on="1"/>
        <pt x="423" y="0" on="1"/>
        <pt x="423" y="37" on="1"/>
        <pt x="453" y="39" on="0"/>
        <pt x="485" y="45" on="0"/>
        <pt x="513" y="65" on="0"/>
        <pt x="513" y="83" on="1"/>
        <pt x="513" y="85" on="0"/>
        <pt x="515" y="249" on="1"/>
        <pt x="249" y="249" on="1"/>
        <pt x="235" y="229" on="0"/>
        <pt x="157" y="92" on="0"/>
      </contour>
      <contour>
        <pt x="270" y="292" on="1"/>
        <pt x="515" y="292" on="1"/>
        <pt x="516" y="330" on="0"/>
        <pt x="516" y="552" on="0"/>
        <pt x="513" y="661" on="1"/>
        <pt x="512" y="669" on="0"/>
        <pt x="503" y="681" on="0"/>
        <pt x="489" y="681" on="0"/>
        <pt x="485" y="671" on="1"/>
      </contour>
    </TTGlyph>
    <TTGlyph name="Aacute" xMin="0" yMin="0" xMax="755" yMax="977">
      <component glyphName="acute.cap" x="609" y="228" flags="0x1004"/>
      <component glyphName="A" x="0" y="0" flags="0x1004"/>
    </TTGlyph>
    <TTGlyph name="Abreve" xMin="0" yMin="0" xMax="755" yMax="941">
      <component glyphName="breve" x="135" y="228" flags="0x1004"/>
      <component glyphName="A" x="0" y="0" flags="0x1004"/>
    </TTGlyph>
    <TTGlyph name="Acircumflex" xMin="0" yMin="0" xMax="755" yMax="934">
      <component glyphName="circumflex.cap" x="669" y="229" flags="0x1004"/>
      <component glyphName="A" x="0" y="0" flags="0x1004"/>
    </TTGlyph>
    <TTGlyph name="Adieresis" xMin="0" yMin="0" xMax="755" yMax="945">
      <component glyphName="dieresis" x="134" y="228" flags="0x1004"/>
      <component glyphName="A" x="0" y="0" flags="0x1004"/>
    </TTGlyph>
    <TTGlyph name="Agrave" xMin="0" yMin="0" xMax="755" yMax="977">
      <component glyphName="grave.cap" x="579" y="228" flags="0x1004"/>
      <component glyphName="A" x="0" y="0" flags="0x1004"/>
    </TTGlyph>
    <TTGlyph name="Amacron" xMin="0" yMin="0" xMax="755" yMax="891">
      <component glyphName="macron" x="126" y="228" flags="0x1004"/>
      <component glyphName="A" x="0" y="0" flags="0x1004"/>
    </TTGlyph>
    <TTGlyph name="Aring" xMin="0" yMin="0" xMax="755" yMax="972">
      <component glyphName="ring" x="126" y="228" flags="0x1004"/>
      <component glyphName="A" x="0" y="0" flags="0x1004"/>
    </TTGlyph>
    <TTGlyph name="Atilde" xMin="0" yMin="0" xMax="755" yMax="929">
      <component glyphName="tilde" x="127" y="228" flags="0x1004"/>
      <component glyphName="A" x="0" y="0" flags="0x1004"/>
    </TTGlyph>
    <TTGlyph name="B" xMin="29" yMin="-6" xMax="623" yMax="744">
      <contour>
        <pt x="29" y="0" on="1"/>
        <pt x="29" y="37" on="1"/>
        <pt x="59" y="39" on="0"/>
        <pt x="92" y="45" on="0"/>
        <pt x="119" y="65" on="0"/>
        <pt x="119" y="83" on="1"/>
        <pt x="119" y="429" on="0"/>
        <pt x="112" y="661" on="1"/>
        <pt x="111" y="683" on="0"/>
        <pt x="82" y="698" on="0"/>
        <pt x="43" y="700" on="1"/>
        <pt x="29" y="701" on="1"/>
        <pt x="29" y="738" on="1"/>
        <pt x="83" y="734" on="0"/>
        <pt x="257" y="734" on="0"/>
        <pt x="359" y="744" on="0"/>
        <pt x="369" y="744" on="1"/>
        <pt x="389" y="744" on="1"/>
        <pt x="441" y="744" on="0"/>
        <pt x="520" y="718" on="0"/>
        <pt x="563" y="682" on="0"/>
        <pt x="576" y="657" on="1"/>
        <pt x="597" y="617" on="0"/>
        <pt x="597" y="564" on="1"/>
        <pt x="597" y="463" on="0"/>
        <pt x="486" y="409" on="1"/>
        <pt x="456" y="394" on="1"/>
        <pt x="623" y="338" on="0"/>
        <pt x="623" y="213" on="1"/>
        <pt x="623" y="124" on="0"/>
        <pt x="477" y="-6" on="0"/>
        <pt x="384" y="-6" on="1"/>
        <pt x="363" y="-6" on="1"/>
        <pt x="334" y="-6" on="0"/>
        <pt x="284" y="-2" on="1"/>
        <pt x="252" y="0" on="1"/>
        <pt x="198" y="4" on="0"/>
        <pt x="83" y="4" on="0"/>
      </contour>
      <contour>
        <pt x="217" y="140" on="1"/>
        <pt x="217" y="84" on="0"/>
        <pt x="285" y="56" on="0"/>
        <pt x="398" y="56" on="1"/>
        <pt x="440" y="56" on="0"/>
        <pt x="517" y="140" on="0"/>
        <pt x="517" y="285" on="0"/>
        <pt x="423" y="364" on="0"/>
        <pt x="256" y="364" on="0"/>
        <pt x="219" y="358" on="1"/>
        <pt x="217" y="244" on="0"/>
      </contour>
      <contour>
        <pt x="219" y="406" on="1"/>
        <pt x="284" y="412" on="0"/>
        <pt x="362" y="412" on="0"/>
        <pt x="386" y="410" on="1"/>
        <pt x="440" y="426" on="0"/>
        <pt x="488" y="504" on="0"/>
        <pt x="488" y="591" on="0"/>
        <pt x="458" y="652" on="0"/>
        <pt x="438" y="666" on="1"/>
        <pt x="397" y="695" on="0"/>
        <pt x="377" y="695" on="1"/>
        <pt x="267" y="695" on="0"/>
        <pt x="235" y="683" on="1"/>
        <pt x="223" y="672" on="1"/>
        <pt x="220" y="531" on="0"/>
      </contour>
    </TTGlyph>
    <TTGlyph name="C" xMin="42" yMin="-17" xMax="628" yMax="752">
      <contour>
        <pt x="579" y="536" on="1"/>
        <pt x="546" y="645" on="1"/>
        <pt x="540" y="664" on="0"/>
        <pt x="530" y="671" on="1"/>
        <pt x="457" y="690" on="0"/>
        <pt x="381" y="690" on="1"/>
        <pt x="238" y="690" on="0"/>
        <pt x="142" y="549" on="0"/>
        <pt x="142" y="362" on="1"/>
        <pt x="142" y="153" on="0"/>
        <pt x="275" y="72" on="1"/>
        <pt x="332" y="38" on="0"/>
        <pt x="481" y="38" on="0"/>
        <pt x="548" y="89" on="1"/>
        <pt x="558" y="107" on="0"/>
        <pt x="577" y="178" on="1"/>
        <pt x="591" y="232" on="1"/>
        <pt x="628" y="232" on="1"/>
        <pt x="624" y="191" on="0"/>
        <pt x="624" y="33" on="1"/>
        <pt x="489" y="-17" on="0"/>
        <pt x="376" y="-17" on="1"/>
        <pt x="227" y="-17" on="0"/>
        <pt x="138" y="64" on="1"/>
        <pt x="42" y="152" on="0"/>
        <pt x="42" y="366" on="1"/>
        <pt x="42" y="490" on="0"/>
        <pt x="77" y="572" on="1"/>
        <pt x="98" y="621" on="0"/>
        <pt x="228" y="734" on="0"/>
        <pt x="313" y="745" on="1"/>
        <pt x="364" y="752" on="0"/>
        <pt x="430" y="752" on="1"/>
        <pt x="559" y="752" on="0"/>
        <pt x="612" y="723" on="1"/>
        <pt x="623" y="712" on="1"/>
        <pt x="623" y="662" on="0"/>
        <pt x="614" y="536" on="1"/>
      </contour>
    </TTGlyph>
    <TTGlyph name="Cacute" xMin="42" yMin="-17" xMax="628" yMax="977">
      <component glyphName="acute.cap" x="639" y="228" flags="0x1004"/>
      <component glyphName="C" x="0" y="0" flags="0x1004"/>
    </TTGlyph>
    <TTGlyph name="Ccaron" xMin="42" yMin="-17" xMax="628" yMax="933">
      <component glyphName="caron.cap" x="666" y="228" flags="0x1004"/>
      <component glyphName="C" x="0" y="0" flags="0x1004"/>
    </TTGlyph>
    <TTGlyph name="Ccedilla" xMin="73" yMin="-206" xMax="659" yMax="752">
      <contour>
        <pt x="73" y="366" on="1"/>
        <pt x="73" y="490" on="0"/>
        <pt x="108" y="572" on="1"/>
        <pt x="129" y="621" on="0"/>
        <pt x="259" y="734" on="0"/>
        <pt x="344" y="745" on="1"/>
        <pt x="395" y="752" on="0"/>
        <pt x="461" y="752" on="1"/>
        <pt x="590" y="752" on="0"/>
        <pt x="643" y="723" on="1"/>
        <pt x="655" y="712" on="1"/>
        <pt x="655" y="676" on="0"/>
        <pt x="645" y="536" on="1"/>
        <pt x="611" y="536" on="1"/>
        <pt x="576" y="660" on="0"/>
        <pt x="561" y="671" on="1"/>
        <pt x="488" y="690" on="0"/>
        <pt x="413" y="690" on="1"/>
        <pt x="270" y="690" on="0"/>
        <pt x="173" y="550" on="0"/>
        <pt x="173" y="362" on="1"/>
        <pt x="173" y="153" on="0"/>
        <pt x="307" y="72" on="1"/>
        <pt x="362" y="38" on="0"/>
        <pt x="513" y="38" on="0"/>
        <pt x="579" y="89" on="1"/>
        <pt x="589" y="107" on="0"/>
        <pt x="608" y="178" on="1"/>
        <pt x="622" y="232" on="1"/>
        <pt x="659" y="232" on="1"/>
        <pt x="655" y="191" on="0"/>
        <pt x="655" y="33" on="1"/>
        <pt x="536" y="-10" on="0"/>
        <pt x="437" y="-16" on="1"/>
        <pt x="374" y="-16" on="1"/>
        <pt x="369" y="-43" on="1"/>
        <pt x="459" y="-61" on="0"/>
        <pt x="459" y="-119" on="1"/>
        <pt x="459" y="-142" on="0"/>
        <pt x="440" y="-175" on="0"/>
        <pt x="420" y="-189" on="0"/>
        <pt x="400" y="-199" on="1"/>
        <pt x="377" y="-203" on="0"/>
        <pt x="313" y="-206" on="1"/>
        <pt x="310" y="-168" on="1"/>
        <pt x="357" y="-168" on="0"/>
        <pt x="408" y="-145" on="0"/>
        <pt x="408" y="-115" on="0"/>
        <pt x="368" y="-92" on="0"/>
        <pt x="335" y="-91" on="1"/>
        <pt x="323" y="-80" on="1"/>
        <pt x="347" y="-13" on="1"/>
        <pt x="73" y="18" on="0"/>
      </contour>
    </TTGlyph>
    <TTGlyph name="Ccircumflex" xMin="42" yMin="-17" xMax="628" yMax="934">
      <component glyphName="circumflex.cap" x="699" y="229" flags="0x1004"/>
      <component glyphName="C" x="0" y="0" flags="0x1004"/>
    </TTGlyph>
    <TTGlyph name="Cdotaccent" xMin="42" yMin="-17" xMax="628" yMax="945">
      <component glyphName="dotaccent" x="159" y="228" flags="0x1004"/>
      <component glyphName="C" x="0" y="0" flags="0x1004"/>
    </TTGlyph>
    <TTGlyph name="D" xMin="29" yMin="-6" xMax="735" yMax="744">
      <contour>
        <pt x="377" y="-6" on="1"/>
        <pt x="168" y="4" on="1"/>
        <pt x="83" y="4" on="0"/>
        <pt x="29" y="0" on="1"/>
        <pt x="29" y="37" on="1"/>
        <pt x="59" y="39" on="0"/>
        <pt x="92" y="45" on="0"/>
        <pt x="119" y="65" on="0"/>
        <pt x="119" y="83" on="1"/>
        <pt x="119" y="429" on="0"/>
        <pt x="112" y="661" on="1"/>
        <pt x="111" y="683" on="0"/>
        <pt x="82" y="698" on="0"/>
        <pt x="43" y="700" on="1"/>
        <pt x="29" y="701" on="1"/>
        <pt x="29" y="738" on="1"/>
        <pt x="83" y="734" on="0"/>
        <pt x="262" y="734" on="0"/>
        <pt x="380" y="744" on="0"/>
        <pt x="401" y="744" on="1"/>
        <pt x="422" y="744" on="1"/>
        <pt x="585" y="744" on="0"/>
        <pt x="735" y="584" on="0"/>
        <pt x="735" y="409" on="1"/>
        <pt x="735" y="319" on="0"/>
        <pt x="692" y="173" on="0"/>
        <pt x="623" y="81" on="0"/>
        <pt x="578" y="50" on="1"/>
        <pt x="495" y="-6" on="0"/>
        <pt x="398" y="-6" on="1"/>
      </contour>
      <contour>
        <pt x="216" y="140" on="1"/>
        <pt x="216" y="90" on="0"/>
        <pt x="295" y="56" on="0"/>
        <pt x="414" y="56" on="1"/>
        <pt x="487" y="56" on="0"/>
        <pt x="557" y="109" on="0"/>
        <pt x="632" y="243" on="0"/>
        <pt x="632" y="377" on="1"/>
        <pt x="632" y="541" on="0"/>
        <pt x="503" y="694" on="0"/>
        <pt x="364" y="694" on="1"/>
        <pt x="268" y="694" on="0"/>
        <pt x="235" y="683" on="1"/>
        <pt x="224" y="672" on="1"/>
        <pt x="216" y="460" on="0"/>
      </contour>
    </TTGlyph>
    <TTGlyph name="Dcaron" xMin="29" yMin="-6" xMax="735" yMax="933">
      <component glyphName="caron.cap" x="655" y="228" flags="0x1004"/>
      <component glyphName="D" x="0" y="0" flags="0x1004"/>
    </TTGlyph>
    <TTGlyph name="E" xMin="29" yMin="0" xMax="598" yMax="738">
      <contour>
        <pt x="29" y="0" on="1"/>
        <pt x="29" y="37" on="1"/>
        <pt x="59" y="39" on="0"/>
        <pt x="92" y="45" on="0"/>
        <pt x="119" y="65" on="0"/>
        <pt x="119" y="83" on="1"/>
        <pt x="123" y="211" on="0"/>
        <pt x="123" y="564" on="0"/>
        <pt x="119" y="661" on="1"/>
        <pt x="118" y="683" on="0"/>
        <pt x="89" y="698" on="0"/>
        <pt x="51" y="700" on="1"/>
        <pt x="37" y="701" on="1"/>
        <pt x="37" y="738" on="1"/>
        <pt x="91" y="734" on="0"/>
        <pt x="255" y="734" on="0"/>
        <pt x="300" y="737" on="1"/>
        <pt x="563" y="738" on="1"/>
        <pt x="575" y="727" on="1"/>
        <pt x="573" y="719" on="0"/>
        <pt x="549" y="553" on="0"/>
        <pt x="548" y="542" on="1"/>
        <pt x="514" y="542" on="1"/>
        <pt x="495" y="644" on="0"/>
        <pt x="486" y="669" on="0"/>
        <pt x="476" y="676" on="1"/>
        <pt x="443" y="685" on="0"/>
        <pt x="268" y="685" on="0"/>
        <pt x="232" y="672" on="0"/>
        <pt x="231" y="651" on="1"/>
        <pt x="229" y="597" on="0"/>
        <pt x="227" y="413" on="1"/>
        <pt x="368" y="413" on="0"/>
        <pt x="473" y="418" on="1"/>
        <pt x="463" y="344" on="1"/>
        <pt x="446" y="344" on="1"/>
        <pt x="410" y="370" on="0"/>
        <pt x="226" y="370" on="1"/>
        <pt x="224" y="222" on="0"/>
        <pt x="224" y="83" on="1"/>
        <pt x="224" y="59" on="0"/>
        <pt x="296" y="44" on="0"/>
        <pt x="481" y="44" on="0"/>
        <pt x="496" y="56" on="1"/>
        <pt x="521" y="78" on="0"/>
        <pt x="547" y="178" on="1"/>
        <pt x="561" y="232" on="1"/>
        <pt x="598" y="232" on="1"/>
        <pt x="595" y="206" on="0"/>
        <pt x="589" y="16" on="0"/>
        <pt x="589" y="0" on="1"/>
      </contour>
    </TTGlyph>
    <TTGlyph name="Eacute" xMin="29" yMin="0" xMax="598" yMax="977">
      <component glyphName="acute.cap" x="567" y="228" flags="0x1004"/>
      <component glyphName="E" x="0" y="0" flags="0x1004"/>
    </TTGlyph>
    <TTGlyph name="Ebreve" xMin="29" yMin="0" xMax="598" yMax="941">
      <component glyphName="breve" x="93" y="228" flags="0x1004"/>
      <component glyphName="E" x="0" y="0" flags="0x1004"/>
    </TTGlyph>
    <TTGlyph name="Ecaron" xMin="29" yMin="0" xMax="598" yMax="933">
      <component glyphName="caron.cap" x="594" y="228" flags="0x1004"/>
      <component glyphName="E" x="0" y="0" flags="0x1004"/>
    </TTGlyph>
    <TTGlyph name="Ecircumflex" xMin="29" yMin="0" xMax="598" yMax="934">
      <component glyphName="circumflex.cap" x="627" y="229" flags="0x1004"/>
      <component glyphName="E" x="0" y="0" flags="0x1004"/>
    </TTGlyph>
    <TTGlyph name="Edieresis" xMin="29" yMin="0" xMax="598" yMax="945">
      <component glyphName="dieresis" x="92" y="228" flags="0x1004"/>
      <component glyphName="E" x="0" y="0" flags="0x1004"/>
    </TTGlyph>
    <TTGlyph name="Edotaccent" xMin="29" yMin="0" xMax="598" yMax="945">
      <component glyphName="dotaccent" x="87" y="228" flags="0x1004"/>
      <component glyphName="E" x="0" y="0" flags="0x1004"/>
    </TTGlyph>
    <TTGlyph name="Egrave" xMin="29" yMin="0" xMax="598" yMax="977">
      <component glyphName="grave.cap" x="537" y="228" flags="0x1004"/>
      <component glyphName="E" x="0" y="0" flags="0x1004"/>
    </TTGlyph>
    <TTGlyph name="Emacron" xMin="29" yMin="0" xMax="598" yMax="891">
      <component glyphName="macron" x="84" y="228" flags="0x1004"/>
      <component glyphName="E" x="0" y="0" flags="0x1004"/>
    </TTGlyph>
    <TTGlyph name="Euro" xMin="5" yMin="-15" xMax="480" yMax="523">
      <contour>
        <pt x="5" y="285" on="1"/>
        <pt x="24" y="332" on="1"/>
        <pt x="79" y="332" on="1"/>
        <pt x="87" y="380" on="0"/>
        <pt x="95" y="399" on="1"/>
        <pt x="111" y="436" on="0"/>
        <pt x="233" y="523" on="0"/>
        <pt x="286" y="523" on="1"/>
        <pt x="397" y="523" on="0"/>
        <pt x="446" y="451" on="1"/>
        <pt x="423" y="395" on="1"/>
        <pt x="407" y="394" on="1"/>
        <pt x="383" y="427" on="0"/>
        <pt x="335" y="458" on="0"/>
        <pt x="219" y="458" on="0"/>
        <pt x="173" y="401" on="0"/>
        <pt x="171" y="332" on="1"/>
        <pt x="397" y="332" on="1"/>
        <pt x="378" y="285" on="1"/>
        <pt x="169" y="285" on="1"/>
        <pt x="169" y="240" on="1"/>
        <pt x="359" y="240" on="1"/>
        <pt x="340" y="193" on="1"/>
        <pt x="171" y="193" on="1"/>
        <pt x="175" y="131" on="0"/>
        <pt x="231" y="62" on="0"/>
        <pt x="299" y="62" on="1"/>
        <pt x="386" y="62" on="0"/>
        <pt x="458" y="133" on="1"/>
        <pt x="480" y="110" on="1"/>
        <pt x="477" y="107" on="0"/>
        <pt x="449" y="78" on="0"/>
        <pt x="440" y="70" on="0"/>
        <pt x="415" y="45" on="0"/>
        <pt x="403" y="36" on="0"/>
        <pt x="378" y="16" on="0"/>
        <pt x="362" y="8" on="0"/>
        <pt x="337" y="-5" on="0"/>
        <pt x="327" y="-8" on="1"/>
        <pt x="304" y="-15" on="0"/>
        <pt x="279" y="-15" on="1"/>
        <pt x="181" y="-15" on="0"/>
        <pt x="85" y="102" on="0"/>
        <pt x="75" y="193" on="1"/>
        <pt x="8" y="193" on="1"/>
        <pt x="27" y="240" on="1"/>
        <pt x="73" y="240" on="1"/>
        <pt x="73" y="246" on="1"/>
        <pt x="73" y="272" on="0"/>
        <pt x="74" y="285" on="1"/>
      </contour>
    </TTGlyph>
    <TTGlyph name="F" xMin="29" yMin="0" xMax="550" yMax="738">
      <contour>
        <pt x="120" y="157" on="1"/>
        <pt x="122" y="421" on="1"/>
        <pt x="122" y="559" on="0"/>
        <pt x="119" y="661" on="1"/>
        <pt x="118" y="683" on="0"/>
        <pt x="89" y="698" on="0"/>
        <pt x="51" y="700" on="1"/>
        <pt x="36" y="701" on="1"/>
        <pt x="36" y="738" on="1"/>
        <pt x="92" y="734" on="0"/>
        <pt x="254" y="734" on="0"/>
        <pt x="300" y="737" on="1"/>
        <pt x="538" y="738" on="1"/>
        <pt x="550" y="727" on="1"/>
        <pt x="548" y="719" on="0"/>
        <pt x="524" y="553" on="0"/>
        <pt x="523" y="542" on="1"/>
        <pt x="489" y="542" on="1"/>
        <pt x="470" y="644" on="0"/>
        <pt x="461" y="669" on="0"/>
        <pt x="451" y="676" on="1"/>
        <pt x="415" y="685" on="0"/>
        <pt x="267" y="685" on="0"/>
        <pt x="231" y="672" on="0"/>
        <pt x="230" y="651" on="1"/>
        <pt x="226" y="431" on="0"/>
        <pt x="226" y="413" on="1"/>
        <pt x="368" y="413" on="0"/>
        <pt x="473" y="418" on="1"/>
        <pt x="463" y="344" on="1"/>
        <pt x="445" y="344" on="1"/>
        <pt x="411" y="368" on="0"/>
        <pt x="282" y="370" on="1"/>
        <pt x="229" y="370" on="0"/>
        <pt x="226" y="370" on="1"/>
        <pt x="223" y="148" on="0"/>
        <pt x="223" y="83" on="1"/>
        <pt x="223" y="52" on="0"/>
        <pt x="266" y="42" on="1"/>
        <pt x="282" y="39" on="0"/>
        <pt x="313" y="37" on="1"/>
        <pt x="351" y="34" on="1"/>
        <pt x="351" y="0" on="1"/>
        <pt x="29" y="0" on="1"/>
        <pt x="29" y="37" on="1"/>
        <pt x="59" y="39" on="0"/>
        <pt x="92" y="45" on="0"/>
        <pt x="119" y="65" on="0"/>
        <pt x="119" y="83" on="1"/>
      </contour>
    </TTGlyph>
    <TTGlyph name="G" xMin="42" yMin="-17" xMax="744" yMax="752">
      <contour>
        <pt x="42" y="374" on="1"/>
        <pt x="42" y="490" on="0"/>
        <pt x="77" y="572" on="1"/>
        <pt x="98" y="621" on="0"/>
        <pt x="228" y="734" on="0"/>
        <pt x="313" y="745" on="1"/>
        <pt x="364" y="752" on="0"/>
        <pt x="489" y="752" on="0"/>
        <pt x="631" y="735" on="0"/>
        <pt x="652" y="723" on="1"/>
        <pt x="664" y="712" on="1"/>
        <pt x="664" y="662" on="0"/>
        <pt x="655" y="536" on="1"/>
        <pt x="620" y="536" on="1"/>
        <pt x="593" y="628" on="0"/>
        <pt x="584" y="651" on="1"/>
        <pt x="564" y="664" on="0"/>
        <pt x="448" y="690" on="0"/>
        <pt x="382" y="690" on="1"/>
        <pt x="239" y="690" on="0"/>
        <pt x="142" y="550" on="0"/>
        <pt x="142" y="362" on="1"/>
        <pt x="142" y="48" on="0"/>
        <pt x="428" y="48" on="1"/>
        <pt x="529" y="48" on="0"/>
        <pt x="575" y="91" on="1"/>
        <pt x="575" y="230" on="1"/>
        <pt x="575" y="253" on="0"/>
        <pt x="548" y="261" on="1"/>
        <pt x="523" y="268" on="0"/>
        <pt x="493" y="270" on="1"/>
        <pt x="468" y="272" on="1"/>
        <pt x="467" y="306" on="1"/>
        <pt x="521" y="302" on="0"/>
        <pt x="690" y="302" on="0"/>
        <pt x="744" y="306" on="1"/>
        <pt x="744" y="269" on="1"/>
        <pt x="730" y="268" on="1"/>
        <pt x="696" y="266" on="0"/>
        <pt x="669" y="252" on="0"/>
        <pt x="669" y="237" on="1"/>
        <pt x="669" y="51" on="1"/>
        <pt x="658" y="40" on="1"/>
        <pt x="497" y="-17" on="0"/>
        <pt x="376" y="-17" on="1"/>
        <pt x="227" y="-17" on="0"/>
        <pt x="138" y="64" on="1"/>
        <pt x="42" y="152" on="0"/>
      </contour>
    </TTGlyph>
    <TTGlyph name="Gbreve" xMin="42" yMin="-17" xMax="744" yMax="941">
      <component glyphName="breve" x="171" y="228" flags="0x1004"/>
      <component glyphName="G" x="0" y="0" flags="0x1004"/>
    </TTGlyph>
    <TTGlyph name="Gcircumflex" xMin="42" yMin="-17" xMax="744" yMax="934">
      <component glyphName="circumflex.cap" x="705" y="229" flags="0x1004"/>
      <component glyphName="G" x="0" y="0" flags="0x1004"/>
    </TTGlyph>
    <TTGlyph name="Gdotaccent" xMin="42" yMin="-17" xMax="744" yMax="945">
      <component glyphName="dotaccent" x="165" y="228" flags="0x1004"/>
      <component glyphName="G" x="0" y="0" flags="0x1004"/>
    </TTGlyph>
    <TTGlyph name="H" xMin="29" yMin="0" xMax="819" yMax="738">
      <contour>
        <pt x="218" y="370" on="1"/>
        <pt x="216" y="83" on="1"/>
        <pt x="216" y="52" on="0"/>
        <pt x="258" y="42" on="1"/>
        <pt x="275" y="39" on="0"/>
        <pt x="306" y="37" on="1"/>
        <pt x="306" y="0" on="1"/>
        <pt x="29" y="0" on="1"/>
        <pt x="29" y="37" on="1"/>
        <pt x="59" y="39" on="0"/>
        <pt x="92" y="45" on="0"/>
        <pt x="119" y="65" on="0"/>
        <pt x="119" y="83" on="1"/>
        <pt x="119" y="429" on="0"/>
        <pt x="112" y="661" on="1"/>
        <pt x="111" y="683" on="0"/>
        <pt x="82" y="698" on="0"/>
        <pt x="43" y="700" on="1"/>
        <pt x="29" y="701" on="1"/>
        <pt x="29" y="738" on="1"/>
        <pt x="306" y="738" on="1"/>
        <pt x="306" y="701" on="1"/>
        <pt x="292" y="700" on="1"/>
        <pt x="253" y="698" on="0"/>
        <pt x="224" y="683" on="0"/>
        <pt x="223" y="661" on="1"/>
        <pt x="220" y="484" on="0"/>
        <pt x="219" y="413" on="1"/>
        <pt x="630" y="413" on="1"/>
        <pt x="629" y="534" on="0"/>
        <pt x="625" y="661" on="1"/>
        <pt x="624" y="683" on="0"/>
        <pt x="595" y="698" on="0"/>
        <pt x="556" y="700" on="1"/>
        <pt x="542" y="701" on="1"/>
        <pt x="542" y="738" on="1"/>
        <pt x="819" y="738" on="1"/>
        <pt x="819" y="701" on="1"/>
        <pt x="805" y="700" on="1"/>
        <pt x="766" y="698" on="0"/>
        <pt x="737" y="683" on="0"/>
        <pt x="736" y="661" on="1"/>
        <pt x="729" y="461" on="0"/>
        <pt x="729" y="83" on="1"/>
        <pt x="729" y="52" on="0"/>
        <pt x="772" y="42" on="1"/>
        <pt x="788" y="39" on="0"/>
        <pt x="819" y="37" on="1"/>
        <pt x="819" y="0" on="1"/>
        <pt x="542" y="0" on="1"/>
        <pt x="542" y="37" on="1"/>
        <pt x="572" y="39" on="0"/>
        <pt x="605" y="45" on="0"/>
        <pt x="632" y="65" on="0"/>
        <pt x="632" y="83" on="1"/>
        <pt x="632" y="221" on="0"/>
        <pt x="630" y="370" on="1"/>
      </contour>
    </TTGlyph>
    <TTGlyph name="Hcircumflex" xMin="29" yMin="0" xMax="819" yMax="934">
      <component glyphName="circumflex.cap" x="717" y="229" flags="0x1004"/>
      <component glyphName="H" x="0" y="0" flags="0x1004"/>
    </TTGlyph>
    <TTGlyph name="I" xMin="29" yMin="0" xMax="306" yMax="738">
      <contour>
        <pt x="29" y="0" on="1"/>
        <pt x="29" y="37" on="1"/>
        <pt x="59" y="39" on="0"/>
        <pt x="92" y="45" on="0"/>
        <pt x="119" y="65" on="0"/>
        <pt x="119" y="83" on="1"/>
        <pt x="119" y="429" on="0"/>
        <pt x="112" y="661" on="1"/>
        <pt x="111" y="683" on="0"/>
        <pt x="82" y="698" on="0"/>
        <pt x="43" y="700" on="1"/>
        <pt x="29" y="701" on="1"/>
        <pt x="29" y="738" on="1"/>
        <pt x="306" y="738" on="1"/>
        <pt x="306" y="701" on="1"/>
        <pt x="292" y="700" on="1"/>
        <pt x="253" y="698" on="0"/>
        <pt x="224" y="683" on="0"/>
        <pt x="223" y="661" on="1"/>
        <pt x="216" y="461" on="0"/>
        <pt x="216" y="83" on="1"/>
        <pt x="216" y="52" on="0"/>
        <pt x="258" y="42" on="1"/>
        <pt x="275" y="39" on="0"/>
        <pt x="306" y="37" on="1"/>
        <pt x="306" y="0" on="1"/>
      </contour>
    </TTGlyph>
    <TTGlyph name="IJ" xMin="29" yMin="-194" xMax="627" yMax="738">
      <component glyphName="J" x="335" y="0" flags="0x1004"/>
      <component glyphName="I" x="0" y="0" flags="0x1004"/>
    </TTGlyph>
    <TTGlyph name="Iacute" xMin="29" yMin="0" xMax="326" yMax="977">
      <component glyphName="acute.cap" x="399" y="228" flags="0x1004"/>
      <component glyphName="I" x="0" y="0" flags="0x1004"/>
    </TTGlyph>
    <TTGlyph name="Ibreve" xMin="29" yMin="0" xMax="311" yMax="941">
      <component glyphName="breve" x="-75" y="228" flags="0x1004"/>
      <component glyphName="I" x="0" y="0" flags="0x1004"/>
    </TTGlyph>
    <TTGlyph name="Icircumflex" xMin="29" yMin="0" xMax="306" yMax="934">
      <component glyphName="circumflex.cap" x="459" y="229" flags="0x1004"/>
      <component glyphName="I" x="0" y="0" flags="0x1004"/>
    </TTGlyph>
    <TTGlyph name="Idieresis" xMin="21" yMin="0" xMax="322" yMax="945">
      <component glyphName="dieresis" x="-76" y="228" flags="0x1004"/>
      <component glyphName="I" x="0" y="0" flags="0x1004"/>
    </TTGlyph>
    <TTGlyph name="Idotaccent" xMin="29" yMin="0" xMax="306" yMax="945">
      <component glyphName="dotaccent" x="-81" y="228" flags="0x1004"/>
      <component glyphName="I" x="0" y="0" flags="0x1004"/>
    </TTGlyph>
    <TTGlyph name="Igrave" xMin="7" yMin="0" xMax="306" yMax="977">
      <component glyphName="grave.cap" x="369" y="228" flags="0x1004"/>
      <component glyphName="I" x="0" y="0" flags="0x1004"/>
    </TTGlyph>
    <TTGlyph name="Imacron" xMin="29" yMin="0" xMax="306" yMax="891">
      <component glyphName="macron" x="-84" y="228" flags="0x1004"/>
      <component glyphName="I" x="0" y="0" flags="0x1004"/>
    </TTGlyph>
    <TTGlyph name="Itilde" xMin="8" yMin="0" xMax="326" yMax="929">
      <component glyphName="tilde" x="-83" y="228" flags="0x1004"/>
      <component glyphName="I" x="0" y="0" flags="0x1004"/>
    </TTGlyph>
    <TTGlyph name="J" xMin="0" yMin="-194" xMax="292" yMax="738">
      <contour>
        <pt x="0" y="-162" on="1"/>
        <pt x="27" y="-141" on="1"/>
        <pt x="75" y="-98" on="0"/>
        <pt x="103" y="-6" on="0"/>
        <pt x="103" y="92" on="1"/>
        <pt x="103" y="598" on="0"/>
        <pt x="97" y="661" on="1"/>
        <pt x="96" y="684" on="0"/>
        <pt x="67" y="698" on="0"/>
        <pt x="29" y="700" on="1"/>
        <pt x="15" y="701" on="1"/>
        <pt x="15" y="738" on="1"/>
        <pt x="292" y="738" on="1"/>
        <pt x="292" y="701" on="1"/>
        <pt x="277" y="700" on="1"/>
        <pt x="251" y="698" on="0"/>
        <pt x="238" y="696" on="1"/>
        <pt x="209" y="690" on="0"/>
        <pt x="209" y="661" on="1"/>
        <pt x="202" y="56" on="0"/>
        <pt x="193" y="8" on="1"/>
        <pt x="175" y="-105" on="0"/>
        <pt x="64" y="-170" on="1"/>
        <pt x="20" y="-194" on="1"/>
      </contour>
    </TTGlyph>
    <TTGlyph name="Jcircumflex" xMin="0" yMin="-194" xMax="292" yMax="934">
      <component glyphName="circumflex.cap" x="445" y="229" flags="0x1004"/>
      <component glyphName="J" x="0" y="0" flags="0x1004"/>
    </TTGlyph>
    <TTGlyph name="K" xMin="32" yMin="-4" xMax="670" yMax="738">
      <contour>
        <pt x="224" y="369" on="1"/>
        <pt x="225" y="83" on="1"/>
        <pt x="225" y="52" on="0"/>
        <pt x="268" y="42" on="1"/>
        <pt x="284" y="39" on="0"/>
        <pt x="315" y="37" on="1"/>
        <pt x="315" y="0" on="1"/>
        <pt x="38" y="0" on="1"/>
        <pt x="38" y="37" on="1"/>
        <pt x="68" y="39" on="0"/>
        <pt x="101" y="45" on="0"/>
        <pt x="128" y="65" on="0"/>
        <pt x="128" y="89" on="0"/>
        <pt x="126" y="202" on="1"/>
        <pt x="121" y="485" on="0"/>
        <pt x="115" y="661" on="1"/>
        <pt x="114" y="683" on="0"/>
        <pt x="85" y="698" on="0"/>
        <pt x="47" y="700" on="1"/>
        <pt x="32" y="701" on="1"/>
        <pt x="32" y="738" on="1"/>
        <pt x="218" y="738" on="1"/>
        <pt x="230" y="727" on="1"/>
        <pt x="224" y="601" on="0"/>
        <pt x="224" y="411" on="1"/>
        <pt x="254" y="412" on="0"/>
        <pt x="381" y="545" on="0"/>
        <pt x="478" y="677" on="0"/>
        <pt x="478" y="692" on="0"/>
        <pt x="455" y="699" on="0"/>
        <pt x="419" y="701" on="1"/>
        <pt x="419" y="738" on="1"/>
        <pt x="651" y="738" on="1"/>
        <pt x="651" y="701" on="1"/>
        <pt x="609" y="698" on="0"/>
        <pt x="582" y="687" on="0"/>
        <pt x="506" y="621" on="0"/>
        <pt x="396" y="496" on="1"/>
        <pt x="332" y="422" on="1"/>
        <pt x="520" y="156" on="0"/>
        <pt x="608" y="60" on="1"/>
        <pt x="670" y="36" on="1"/>
        <pt x="670" y="0" on="1"/>
        <pt x="573" y="0" on="0"/>
        <pt x="518" y="-4" on="1"/>
        <pt x="256" y="362" on="1"/>
        <pt x="251" y="369" on="0"/>
        <pt x="241" y="369" on="1"/>
      </contour>
    </TTGlyph>
    <TTGlyph name="L" xMin="29" yMin="0" xMax="558" yMax="738">
      <contour>
        <pt x="29" y="0" on="1"/>
        <pt x="29" y="37" on="1"/>
        <pt x="61" y="39" on="0"/>
        <pt x="78" y="42" on="1"/>
        <pt x="119" y="51" on="0"/>
        <pt x="119" y="83" on="1"/>
        <pt x="119" y="436" on="0"/>
        <pt x="112" y="661" on="1"/>
        <pt x="111" y="684" on="0"/>
        <pt x="82" y="698" on="0"/>
        <pt x="43" y="700" on="1"/>
        <pt x="29" y="701" on="1"/>
        <pt x="29" y="738" on="1"/>
        <pt x="319" y="738" on="1"/>
        <pt x="319" y="701" on="1"/>
        <pt x="305" y="700" on="1"/>
        <pt x="277" y="698" on="0"/>
        <pt x="262" y="696" on="1"/>
        <pt x="223" y="689" on="0"/>
        <pt x="223" y="661" on="1"/>
        <pt x="216" y="461" on="0"/>
        <pt x="216" y="83" on="1"/>
        <pt x="216" y="44" on="0"/>
        <pt x="314" y="44" on="1"/>
        <pt x="335" y="44" on="1"/>
        <pt x="442" y="44" on="0"/>
        <pt x="456" y="56" on="1"/>
        <pt x="481" y="78" on="0"/>
        <pt x="507" y="178" on="1"/>
        <pt x="521" y="232" on="1"/>
        <pt x="558" y="232" on="1"/>
        <pt x="555" y="206" on="0"/>
        <pt x="549" y="16" on="0"/>
        <pt x="549" y="0" on="1"/>
      </contour>
    </TTGlyph>
    <TTGlyph name="Lacute" xMin="29" yMin="0" xMax="558" yMax="977">
      <component glyphName="acute.cap" x="405" y="228" flags="0x1004"/>
      <component glyphName="L" x="0" y="0" flags="0x1004"/>
    </TTGlyph>
    <TTGlyph name="Lcaron" xMin="25" yMin="0" xMax="554" yMax="798">
      <component glyphName="L" x="-4" y="0" flags="0x1004"/>
      <component glyphName="comma" x="275" y="650" flags="0x1004"/>
    </TTGlyph>
    <TTGlyph name="M" xMin="2" yMin="0" xMax="927" yMax="738">
      <contour>
        <pt x="2" y="701" on="1"/>
        <pt x="2" y="738" on="1"/>
        <pt x="230" y="738" on="1"/>
        <pt x="239" y="711" on="1"/>
        <pt x="463" y="155" on="1"/>
        <pt x="585" y="420" on="0"/>
        <pt x="690" y="711" on="1"/>
        <pt x="699" y="738" on="1"/>
        <pt x="927" y="738" on="1"/>
        <pt x="927" y="701" on="1"/>
        <pt x="843" y="698" on="0"/>
        <pt x="826" y="683" on="1"/>
        <pt x="819" y="676" on="0"/>
        <pt x="819" y="662" on="0"/>
        <pt x="838" y="116" on="1"/>
        <pt x="839" y="88" on="1"/>
        <pt x="842" y="57" on="0"/>
        <pt x="873" y="40" on="0"/>
        <pt x="920" y="37" on="1"/>
        <pt x="920" y="0" on="1"/>
        <pt x="643" y="0" on="1"/>
        <pt x="643" y="37" on="1"/>
        <pt x="673" y="39" on="0"/>
        <pt x="706" y="45" on="0"/>
        <pt x="733" y="65" on="0"/>
        <pt x="733" y="83" on="1"/>
        <pt x="730" y="276" on="0"/>
        <pt x="711" y="597" on="1"/>
        <pt x="572" y="292" on="0"/>
        <pt x="460" y="0" on="1"/>
        <pt x="421" y="0" on="1"/>
        <pt x="165" y="601" on="1"/>
        <pt x="150" y="343" on="0"/>
        <pt x="150" y="83" on="1"/>
        <pt x="150" y="47" on="0"/>
        <pt x="239" y="39" on="1"/>
        <pt x="239" y="0" on="1"/>
        <pt x="3" y="0" on="1"/>
        <pt x="3" y="36" on="1"/>
        <pt x="48" y="41" on="0"/>
        <pt x="82" y="84" on="0"/>
        <pt x="86" y="132" on="1"/>
        <pt x="106" y="440" on="0"/>
        <pt x="109" y="610" on="1"/>
        <pt x="110" y="666" on="1"/>
        <pt x="110" y="685" on="0"/>
        <pt x="57" y="698" on="0"/>
      </contour>
    </TTGlyph>
    <TTGlyph name="N" xMin="15" yMin="0" xMax="777" yMax="738">
      <contour>
        <pt x="109" y="527" on="1"/>
        <pt x="108" y="620" on="1"/>
        <pt x="108" y="667" on="1"/>
        <pt x="104" y="692" on="0"/>
        <pt x="65" y="696" on="1"/>
        <pt x="15" y="701" on="1"/>
        <pt x="15" y="738" on="1"/>
        <pt x="204" y="738" on="1"/>
        <pt x="216" y="703" on="0"/>
        <pt x="633" y="159" on="1"/>
        <pt x="629" y="215" on="0"/>
        <pt x="629" y="502" on="0"/>
        <pt x="625" y="634" on="1"/>
        <pt x="624" y="669" on="0"/>
        <pt x="596" y="694" on="0"/>
        <pt x="535" y="700" on="1"/>
        <pt x="535" y="738" on="1"/>
        <pt x="777" y="738" on="1"/>
        <pt x="777" y="702" on="1"/>
        <pt x="710" y="696" on="0"/>
        <pt x="696" y="675" on="1"/>
        <pt x="690" y="644" on="1"/>
        <pt x="683" y="401" on="0"/>
        <pt x="683" y="164" on="1"/>
        <pt x="685" y="0" on="1"/>
        <pt x="626" y="0" on="1"/>
        <pt x="586" y="60" on="0"/>
        <pt x="464" y="215" on="0"/>
        <pt x="426" y="263" on="1"/>
        <pt x="350" y="361" on="0"/>
        <pt x="164" y="597" on="1"/>
        <pt x="164" y="290" on="1"/>
        <pt x="169" y="99" on="0"/>
        <pt x="169" y="61" on="0"/>
        <pt x="214" y="43" on="0"/>
        <pt x="255" y="39" on="1"/>
        <pt x="255" y="0" on="1"/>
        <pt x="19" y="0" on="1"/>
        <pt x="19" y="36" on="1"/>
        <pt x="97" y="43" on="0"/>
        <pt x="102" y="80" on="1"/>
        <pt x="109" y="130" on="0"/>
        <pt x="109" y="450" on="1"/>
      </contour>
    </TTGlyph>
    <TTGlyph name="Nacute" xMin="15" yMin="0" xMax="777" yMax="977">
      <component glyphName="acute.cap" x="630" y="228" flags="0x1004"/>
      <component glyphName="N" x="0" y="0" flags="0x1004"/>
    </TTGlyph>
    <TTGlyph name="Ncaron" xMin="15" yMin="0" xMax="777" yMax="933">
      <component glyphName="caron.cap" x="657" y="228" flags="0x1004"/>
      <component glyphName="N" x="0" y="0" flags="0x1004"/>
    </TTGlyph>
    <TTGlyph name="Ntilde" xMin="15" yMin="0" xMax="777" yMax="929">
      <component glyphName="tilde" x="148" y="228" flags="0x1004"/>
      <component glyphName="N" x="0" y="0" flags="0x1004"/>
    </TTGlyph>
    <TTGlyph name="O" xMin="42" yMin="-14" xMax="704" yMax="751">
      <contour>
        <pt x="200" y="-14" on="0"/>
        <pt x="42" y="191" on="0"/>
        <pt x="42" y="513" on="0"/>
        <pt x="106" y="610" on="1"/>
        <pt x="140" y="661" on="0"/>
        <pt x="202" y="696" on="1"/>
        <pt x="300" y="751" on="0"/>
        <pt x="395" y="751" on="1"/>
        <pt x="551" y="751" on="0"/>
        <pt x="704" y="573" on="0"/>
        <pt x="704" y="226" on="0"/>
        <pt x="633" y="122" on="1"/>
        <pt x="585" y="52" on="0"/>
        <pt x="420" y="-14" on="0"/>
        <pt x="359" y="-14" on="1"/>
      </contour>
      <contour>
        <pt x="144" y="379" on="1"/>
        <pt x="144" y="278" on="0"/>
        <pt x="174" y="202" on="1"/>
        <pt x="188" y="169" on="0"/>
        <pt x="245" y="95" on="0"/>
        <pt x="331" y="52" on="0"/>
        <pt x="405" y="52" on="1"/>
        <pt x="601" y="52" on="0"/>
        <pt x="601" y="351" on="1"/>
        <pt x="601" y="520" on="0"/>
        <pt x="495" y="675" on="0"/>
        <pt x="413" y="687" on="1"/>
        <pt x="404" y="689" on="0"/>
        <pt x="359" y="689" on="1"/>
        <pt x="260" y="689" on="0"/>
        <pt x="144" y="543" on="0"/>
      </contour>
    </TTGlyph>
    <TTGlyph name="OE" xMin="42" yMin="-14" xMax="1060" yMax="745">
      <contour>
        <pt x="1051" y="-2" on="1"/>
        <pt x="630" y="0" on="1"/>
        <pt x="606" y="0" on="0"/>
        <pt x="417" y="-14" on="0"/>
        <pt x="359" y="-14" on="1"/>
        <pt x="199" y="-14" on="0"/>
        <pt x="42" y="192" on="0"/>
        <pt x="42" y="513" on="0"/>
        <pt x="106" y="610" on="1"/>
        <pt x="152" y="679" on="0"/>
        <pt x="325" y="745" on="0"/>
        <pt x="446" y="745" on="0"/>
        <pt x="615" y="732" on="0"/>
        <pt x="637" y="732" on="1"/>
        <pt x="1025" y="736" on="1"/>
        <pt x="1037" y="725" on="1"/>
        <pt x="1035" y="717" on="0"/>
        <pt x="1011" y="551" on="0"/>
        <pt x="1010" y="540" on="1"/>
        <pt x="976" y="540" on="1"/>
        <pt x="957" y="642" on="0"/>
        <pt x="949" y="666" on="0"/>
        <pt x="938" y="674" on="1"/>
        <pt x="902" y="683" on="0"/>
        <pt x="729" y="683" on="0"/>
        <pt x="693" y="670" on="0"/>
        <pt x="693" y="649" on="1"/>
        <pt x="690" y="551" on="0"/>
        <pt x="688" y="411" on="1"/>
        <pt x="872" y="411" on="0"/>
        <pt x="935" y="417" on="1"/>
        <pt x="925" y="343" on="1"/>
        <pt x="907" y="343" on="1"/>
        <pt x="875" y="366" on="0"/>
        <pt x="744" y="368" on="1"/>
        <pt x="692" y="368" on="0"/>
        <pt x="688" y="368" on="1"/>
        <pt x="686" y="220" on="0"/>
        <pt x="686" y="81" on="1"/>
        <pt x="686" y="57" on="0"/>
        <pt x="758" y="42" on="0"/>
        <pt x="943" y="42" on="0"/>
        <pt x="958" y="54" on="1"/>
        <pt x="983" y="76" on="0"/>
        <pt x="1009" y="176" on="1"/>
        <pt x="1023" y="230" on="1"/>
        <pt x="1060" y="230" on="1"/>
        <pt x="1057" y="204" on="0"/>
        <pt x="1051" y="14" on="0"/>
      </contour>
      <contour>
        <pt x="182" y="601" on="0"/>
        <pt x="144" y="472" on="0"/>
        <pt x="144" y="287" on="0"/>
        <pt x="192" y="151" on="0"/>
        <pt x="234" y="112" on="1"/>
        <pt x="317" y="35" on="0"/>
        <pt x="443" y="35" on="1"/>
        <pt x="530" y="35" on="0"/>
        <pt x="565" y="57" on="1"/>
        <pt x="581" y="67" on="0"/>
        <pt x="581" y="81" on="1"/>
        <pt x="584" y="177" on="0"/>
        <pt x="584" y="586" on="0"/>
        <pt x="581" y="659" on="1"/>
        <pt x="579" y="701" on="0"/>
        <pt x="420" y="701" on="1"/>
        <pt x="354" y="701" on="0"/>
        <pt x="258" y="671" on="0"/>
      </contour>
    </TTGlyph>
    <TTGlyph name="Oacute" xMin="42" yMin="-14" xMax="704" yMax="977">
      <component glyphName="acute.cap" x="619" y="228" flags="0x1004"/>
      <component glyphName="O" x="0" y="0" flags="0x1004"/>
    </TTGlyph>
    <TTGlyph name="Obreve" xMin="42" yMin="-14" xMax="704" yMax="941">
      <component glyphName="breve" x="145" y="228" flags="0x1004"/>
      <component glyphName="O" x="0" y="0" flags="0x1004"/>
    </TTGlyph>
    <TTGlyph name="Ocircumflex" xMin="42" yMin="-14" xMax="704" yMax="934">
      <component glyphName="circumflex.cap" x="679" y="229" flags="0x1004"/>
      <component glyphName="O" x="0" y="0" flags="0x1004"/>
    </TTGlyph>
    <TTGlyph name="Odieresis" xMin="42" yMin="-14" xMax="704" yMax="945">
      <component glyphName="dieresis" x="144" y="228" flags="0x1004"/>
      <component glyphName="O" x="0" y="0" flags="0x1004"/>
    </TTGlyph>
    <TTGlyph name="Ograve" xMin="42" yMin="-14" xMax="704" yMax="977">
      <component glyphName="grave.cap" x="589" y="228" flags="0x1004"/>
      <component glyphName="O" x="0" y="0" flags="0x1004"/>
    </TTGlyph>
    <TTGlyph name="Ohungarumlaut" xMin="42" yMin="-14" xMax="704" yMax="977">
      <component glyphName="hungarumlaut.cap" x="734" y="228" flags="0x1004"/>
      <component glyphName="O" x="0" y="0" flags="0x1004"/>
    </TTGlyph>
    <TTGlyph name="Omacron" xMin="42" yMin="-14" xMax="704" yMax="891">
      <component glyphName="macron" x="136" y="228" flags="0x1004"/>
      <component glyphName="O" x="0" y="0" flags="0x1004"/>
    </TTGlyph>
    <TTGlyph name="Oslash" xMin="42" yMin="-63" xMax="704" yMax="791">
      <contour>
        <pt x="42" y="358" on="1"/>
        <pt x="42" y="513" on="0"/>
        <pt x="106" y="610" on="1"/>
        <pt x="140" y="661" on="0"/>
        <pt x="202" y="696" on="1"/>
        <pt x="300" y="751" on="0"/>
        <pt x="481" y="751" on="0"/>
        <pt x="545" y="722" on="1"/>
        <pt x="579" y="791" on="1"/>
        <pt x="620" y="772" on="1"/>
        <pt x="584" y="700" on="1"/>
        <pt x="704" y="618" on="0"/>
        <pt x="704" y="411" on="1"/>
        <pt x="704" y="100" on="0"/>
        <pt x="502" y="19" on="1"/>
        <pt x="420" y="-14" on="0"/>
        <pt x="294" y="-14" on="0"/>
        <pt x="239" y="5" on="1"/>
        <pt x="205" y="-63" on="1"/>
        <pt x="166" y="-45" on="1"/>
        <pt x="199" y="23" on="1"/>
        <pt x="120" y="66" on="0"/>
        <pt x="42" y="241" on="0"/>
      </contour>
      <contour>
        <pt x="144" y="379" on="1"/>
        <pt x="144" y="192" on="0"/>
        <pt x="240" y="106" on="1"/>
        <pt x="507" y="645" on="1"/>
        <pt x="466" y="679" on="0"/>
        <pt x="413" y="687" on="1"/>
        <pt x="404" y="689" on="0"/>
        <pt x="359" y="689" on="1"/>
        <pt x="260" y="689" on="0"/>
        <pt x="144" y="543" on="0"/>
      </contour>
      <contour>
        <pt x="276" y="79" on="1"/>
        <pt x="285" y="75" on="1"/>
        <pt x="331" y="52" on="0"/>
        <pt x="405" y="52" on="1"/>
        <pt x="601" y="52" on="0"/>
        <pt x="601" y="351" on="1"/>
        <pt x="601" y="524" on="0"/>
        <pt x="539" y="609" on="1"/>
      </contour>
    </TTGlyph>
    <TTGlyph name="Otilde" xMin="42" yMin="-14" xMax="704" yMax="929">
      <component glyphName="tilde" x="137" y="228" flags="0x1004"/>
      <component glyphName="O" x="0" y="0" flags="0x1004"/>
    </TTGlyph>
    <TTGlyph name="P" xMin="29" yMin="0" xMax="602" yMax="744">
      <contour>
        <pt x="225" y="338" on="1"/>
        <pt x="223" y="83" on="1"/>
        <pt x="223" y="56" on="0"/>
        <pt x="259" y="48" on="1"/>
        <pt x="289" y="40" on="0"/>
        <pt x="333" y="37" on="1"/>
        <pt x="371" y="34" on="1"/>
        <pt x="371" y="0" on="1"/>
        <pt x="29" y="0" on="1"/>
        <pt x="29" y="37" on="1"/>
        <pt x="59" y="39" on="0"/>
        <pt x="91" y="45" on="0"/>
        <pt x="119" y="65" on="0"/>
        <pt x="119" y="83" on="1"/>
        <pt x="122" y="185" on="0"/>
        <pt x="122" y="559" on="0"/>
        <pt x="119" y="661" on="1"/>
        <pt x="118" y="683" on="0"/>
        <pt x="89" y="698" on="0"/>
        <pt x="50" y="700" on="1"/>
        <pt x="36" y="701" on="1"/>
        <pt x="36" y="738" on="1"/>
        <pt x="92" y="734" on="0"/>
        <pt x="265" y="734" on="0"/>
        <pt x="366" y="744" on="0"/>
        <pt x="376" y="744" on="1"/>
        <pt x="396" y="744" on="1"/>
        <pt x="455" y="744" on="0"/>
        <pt x="540" y="709" on="0"/>
        <pt x="562" y="678" on="1"/>
        <pt x="602" y="621" on="0"/>
        <pt x="602" y="541" on="1"/>
        <pt x="602" y="487" on="0"/>
        <pt x="562" y="430" on="1"/>
        <pt x="484" y="322" on="0"/>
        <pt x="332" y="322" on="1"/>
        <pt x="261" y="322" on="0"/>
      </contour>
      <contour>
        <pt x="226" y="402" on="1"/>
        <pt x="260" y="372" on="0"/>
        <pt x="341" y="372" on="1"/>
        <pt x="382" y="372" on="0"/>
        <pt x="442" y="395" on="0"/>
        <pt x="471" y="425" on="0"/>
        <pt x="479" y="448" on="1"/>
        <pt x="490" y="481" on="0"/>
        <pt x="490" y="551" on="0"/>
        <pt x="487" y="585" on="0"/>
        <pt x="480" y="610" on="1"/>
        <pt x="468" y="660" on="0"/>
        <pt x="413" y="686" on="1"/>
        <pt x="393" y="695" on="0"/>
        <pt x="384" y="695" on="1"/>
        <pt x="277" y="695" on="0"/>
        <pt x="242" y="683" on="1"/>
        <pt x="231" y="672" on="1"/>
        <pt x="228" y="591" on="0"/>
      </contour>
    </TTGlyph>
    <TTGlyph name="Q" xMin="42" yMin="-195" xMax="704" yMax="751">
      <contour>
        <pt x="200" y="-14" on="0"/>
        <pt x="42" y="191" on="0"/>
        <pt x="42" y="513" on="0"/>
        <pt x="106" y="610" on="1"/>
        <pt x="140" y="661" on="0"/>
        <pt x="202" y="696" on="1"/>
        <pt x="300" y="751" on="0"/>
        <pt x="395" y="751" on="1"/>
        <pt x="551" y="751" on="0"/>
        <pt x="704" y="573" on="0"/>
        <pt x="704" y="251" on="0"/>
        <pt x="607" y="68" on="0"/>
        <pt x="511" y="23" on="1"/>
        <pt x="603" y="-78" on="0"/>
        <pt x="654" y="-114" on="1"/>
        <pt x="625" y="-152" on="0"/>
        <pt x="609" y="-191" on="1"/>
        <pt x="595" y="-195" on="1"/>
        <pt x="439" y="-2" on="1"/>
        <pt x="396" y="-14" on="0"/>
        <pt x="359" y="-14" on="1"/>
      </contour>
      <contour>
        <pt x="144" y="379" on="1"/>
        <pt x="144" y="278" on="0"/>
        <pt x="174" y="202" on="1"/>
        <pt x="188" y="169" on="0"/>
        <pt x="245" y="95" on="0"/>
        <pt x="331" y="52" on="0"/>
        <pt x="405" y="52" on="1"/>
        <pt x="601" y="52" on="0"/>
        <pt x="601" y="351" on="1"/>
        <pt x="601" y="520" on="0"/>
        <pt x="495" y="675" on="0"/>
        <pt x="413" y="687" on="1"/>
        <pt x="404" y="689" on="0"/>
        <pt x="359" y="689" on="1"/>
        <pt x="260" y="689" on="0"/>
        <pt x="144" y="543" on="0"/>
      </contour>
    </TTGlyph>
    <TTGlyph name="R" xMin="32" yMin="-4" xMax="669" yMax="744">
      <contour>
        <pt x="32" y="0" on="1"/>
        <pt x="32" y="37" on="1"/>
        <pt x="62" y="39" on="0"/>
        <pt x="95" y="45" on="0"/>
        <pt x="122" y="65" on="0"/>
        <pt x="122" y="83" on="1"/>
        <pt x="122" y="429" on="0"/>
        <pt x="115" y="661" on="1"/>
        <pt x="114" y="683" on="0"/>
        <pt x="85" y="698" on="0"/>
        <pt x="46" y="700" on="1"/>
        <pt x="32" y="701" on="1"/>
        <pt x="32" y="738" on="1"/>
        <pt x="88" y="734" on="0"/>
        <pt x="253" y="734" on="0"/>
        <pt x="364" y="744" on="0"/>
        <pt x="372" y="744" on="1"/>
        <pt x="392" y="744" on="1"/>
        <pt x="459" y="744" on="0"/>
        <pt x="558" y="646" on="0"/>
        <pt x="558" y="501" on="0"/>
        <pt x="502" y="425" on="0"/>
        <pt x="436" y="382" on="1"/>
        <pt x="541" y="176" on="0"/>
        <pt x="614" y="60" on="1"/>
        <pt x="669" y="36" on="1"/>
        <pt x="669" y="0" on="1"/>
        <pt x="579" y="0" on="0"/>
        <pt x="524" y="-4" on="1"/>
        <pt x="349" y="357" on="1"/>
        <pt x="321" y="357" on="1"/>
        <pt x="260" y="357" on="0"/>
        <pt x="222" y="370" on="1"/>
        <pt x="219" y="159" on="0"/>
        <pt x="219" y="83" on="1"/>
        <pt x="219" y="52" on="0"/>
        <pt x="262" y="42" on="1"/>
        <pt x="278" y="39" on="0"/>
        <pt x="309" y="37" on="1"/>
        <pt x="309" y="0" on="1"/>
      </contour>
      <contour>
        <pt x="223" y="424" on="1"/>
        <pt x="251" y="407" on="0"/>
        <pt x="328" y="407" on="1"/>
        <pt x="375" y="407" on="0"/>
        <pt x="435" y="458" on="0"/>
        <pt x="454" y="519" on="0"/>
        <pt x="454" y="585" on="0"/>
        <pt x="437" y="639" on="0"/>
        <pt x="412" y="669" on="0"/>
        <pt x="398" y="680" on="1"/>
        <pt x="375" y="697" on="0"/>
        <pt x="359" y="697" on="1"/>
        <pt x="267" y="697" on="0"/>
        <pt x="237" y="684" on="1"/>
        <pt x="227" y="673" on="1"/>
        <pt x="225" y="629" on="0"/>
      </contour>
    </TTGlyph>
    <TTGlyph name="Racute" xMin="32" yMin="-4" xMax="669" yMax="977">
      <component glyphName="acute.cap" x="547" y="228" flags="0x1004"/>
      <component glyphName="R" x="0" y="0" flags="0x1004"/>
    </TTGlyph>
    <TTGlyph name="Rcaron" xMin="32" yMin="-4" xMax="669" yMax="933">
      <component glyphName="caron.cap" x="574" y="228" flags="0x1004"/>
      <component glyphName="R" x="0" y="0" flags="0x1004"/>
    </TTGlyph>
    <TTGlyph name="S" xMin="57" yMin="-15" xMax="489" yMax="753">
      <contour>
        <pt x="412" y="528" on="1"/>
        <pt x="379" y="637" on="1"/>
        <pt x="371" y="657" on="0"/>
        <pt x="363" y="663" on="1"/>
        <pt x="334" y="689" on="0"/>
        <pt x="203" y="689" on="0"/>
        <pt x="137" y="643" on="0"/>
        <pt x="137" y="584" on="1"/>
        <pt x="137" y="520" on="0"/>
        <pt x="190" y="486" on="1"/>
        <pt x="201" y="478" on="0"/>
        <pt x="217" y="469" on="1"/>
        <pt x="369" y="390" on="1"/>
        <pt x="489" y="328" on="0"/>
        <pt x="489" y="204" on="1"/>
        <pt x="489" y="151" on="0"/>
        <pt x="463" y="89" on="0"/>
        <pt x="424" y="44" on="1"/>
        <pt x="370" y="-15" on="0"/>
        <pt x="253" y="-15" on="1"/>
        <pt x="160" y="-15" on="0"/>
        <pt x="58" y="30" on="1"/>
        <pt x="65" y="126" on="0"/>
        <pt x="65" y="232" on="1"/>
        <pt x="102" y="232" on="1"/>
        <pt x="116" y="178" on="1"/>
        <pt x="130" y="124" on="0"/>
        <pt x="145" y="93" on="0"/>
        <pt x="164" y="78" on="1"/>
        <pt x="215" y="56" on="0"/>
        <pt x="337" y="56" on="0"/>
        <pt x="395" y="103" on="0"/>
        <pt x="395" y="165" on="1"/>
        <pt x="395" y="251" on="0"/>
        <pt x="303" y="300" on="1"/>
        <pt x="222" y="340" on="1"/>
        <pt x="163" y="371" on="0"/>
        <pt x="127" y="393" on="0"/>
        <pt x="115" y="405" on="1"/>
        <pt x="107" y="414" on="1"/>
        <pt x="57" y="468" on="0"/>
        <pt x="57" y="607" on="0"/>
        <pt x="102" y="690" on="0"/>
        <pt x="169" y="727" on="1"/>
        <pt x="217" y="753" on="0"/>
        <pt x="372" y="753" on="0"/>
        <pt x="444" y="715" on="1"/>
        <pt x="456" y="704" on="1"/>
        <pt x="456" y="654" on="0"/>
        <pt x="447" y="528" on="1"/>
      </contour>
    </TTGlyph>
    <TTGlyph name="Sacute" xMin="57" yMin="-15" xMax="489" yMax="977">
      <component glyphName="acute.cap" x="517" y="228" flags="0x1004"/>
      <component glyphName="S" x="0" y="0" flags="0x1004"/>
    </TTGlyph>
    <TTGlyph name="Scaron" xMin="57" yMin="-15" xMax="489" yMax="933">
      <component glyphName="caron.cap" x="544" y="228" flags="0x1004"/>
      <component glyphName="S" x="0" y="0" flags="0x1004"/>
    </TTGlyph>
    <TTGlyph name="Scircumflex" xMin="57" yMin="-15" xMax="489" yMax="934">
      <component glyphName="circumflex.cap" x="577" y="229" flags="0x1004"/>
      <component glyphName="S" x="0" y="0" flags="0x1004"/>
    </TTGlyph>
    <TTGlyph name="T" xMin="0" yMin="0" xMax="608" yMax="738">
      <contour>
        <pt x="0" y="727" on="1"/>
        <pt x="11" y="738" on="1"/>
        <pt x="597" y="738" on="1"/>
        <pt x="608" y="727" on="1"/>
        <pt x="603" y="642" on="0"/>
        <pt x="603" y="530" on="1"/>
        <pt x="568" y="530" on="1"/>
        <pt x="542" y="624" on="0"/>
        <pt x="534" y="640" on="1"/>
        <pt x="530" y="652" on="0"/>
        <pt x="525" y="662" on="1"/>
        <pt x="518" y="669" on="0"/>
        <pt x="507" y="671" on="1"/>
        <pt x="455" y="681" on="0"/>
        <pt x="385" y="681" on="0"/>
        <pt x="360" y="676" on="1"/>
        <pt x="352" y="487" on="0"/>
        <pt x="352" y="83" on="1"/>
        <pt x="352" y="65" on="0"/>
        <pt x="389" y="44" on="0"/>
        <pt x="427" y="38" on="0"/>
        <pt x="460" y="35" on="1"/>
        <pt x="460" y="0" on="1"/>
        <pt x="140" y="0" on="1"/>
        <pt x="140" y="35" on="1"/>
        <pt x="220" y="42" on="0"/>
        <pt x="238" y="60" on="1"/>
        <pt x="247" y="69" on="0"/>
        <pt x="247" y="83" on="1"/>
        <pt x="250" y="277" on="0"/>
        <pt x="250" y="616" on="0"/>
        <pt x="248" y="676" on="1"/>
        <pt x="223" y="681" on="0"/>
        <pt x="153" y="681" on="0"/>
        <pt x="101" y="671" on="1"/>
        <pt x="90" y="669" on="0"/>
        <pt x="83" y="662" on="1"/>
        <pt x="78" y="652" on="0"/>
        <pt x="74" y="640" on="1"/>
        <pt x="66" y="624" on="0"/>
        <pt x="40" y="530" on="1"/>
        <pt x="5" y="530" on="1"/>
        <pt x="5" y="642" on="0"/>
      </contour>
    </TTGlyph>
    <TTGlyph name="Tcaron" xMin="0" yMin="0" xMax="608" yMax="933">
      <component glyphName="caron.cap" x="560" y="228" flags="0x1004"/>
      <component glyphName="T" x="0" y="0" flags="0x1004"/>
    </TTGlyph>
    <TTGlyph name="U" xMin="34" yMin="-14" xMax="762" yMax="738">
      <contour>
        <pt x="618" y="356" on="1"/>
        <pt x="616" y="655" on="1"/>
        <pt x="616" y="691" on="0"/>
        <pt x="526" y="699" on="1"/>
        <pt x="526" y="738" on="1"/>
        <pt x="762" y="738" on="1"/>
        <pt x="762" y="702" on="1"/>
        <pt x="685" y="693" on="0"/>
        <pt x="682" y="658" on="1"/>
        <pt x="681" y="640" on="1"/>
        <pt x="679" y="612" on="0"/>
        <pt x="671" y="274" on="0"/>
        <pt x="671" y="173" on="0"/>
        <pt x="635" y="79" on="0"/>
        <pt x="580" y="26" on="0"/>
        <pt x="494" y="-5" on="0"/>
        <pt x="414" y="-14" on="0"/>
        <pt x="303" y="-14" on="0"/>
        <pt x="211" y="22" on="0"/>
        <pt x="161" y="73" on="0"/>
        <pt x="144" y="106" on="1"/>
        <pt x="118" y="160" on="0"/>
        <pt x="118" y="214" on="1"/>
        <pt x="116" y="639" on="0"/>
        <pt x="111" y="681" on="0"/>
        <pt x="81" y="698" on="0"/>
        <pt x="34" y="701" on="1"/>
        <pt x="34" y="738" on="1"/>
        <pt x="310" y="738" on="1"/>
        <pt x="310" y="701" on="1"/>
        <pt x="278" y="699" on="0"/>
        <pt x="262" y="696" on="1"/>
        <pt x="220" y="687" on="0"/>
        <pt x="220" y="655" on="1"/>
        <pt x="221" y="390" on="1"/>
        <pt x="221" y="310" on="1"/>
        <pt x="222" y="255" on="0"/>
        <pt x="222" y="174" on="0"/>
        <pt x="242" y="126" on="0"/>
        <pt x="287" y="77" on="0"/>
        <pt x="375" y="46" on="0"/>
        <pt x="483" y="46" on="0"/>
        <pt x="549" y="69" on="0"/>
        <pt x="590" y="110" on="0"/>
        <pt x="600" y="150" on="1"/>
        <pt x="618" y="218" on="0"/>
      </contour>
    </TTGlyph>
    <TTGlyph name="Uacute" xMin="34" yMin="-14" xMax="762" yMax="977">
      <component glyphName="acute.cap" x="647" y="228" flags="0x1004"/>
      <component glyphName="U" x="0" y="0" flags="0x1004"/>
    </TTGlyph>
    <TTGlyph name="Ubreve" xMin="34" yMin="-14" xMax="762" yMax="941">
      <component glyphName="breve" x="173" y="228" flags="0x1004"/>
      <component glyphName="U" x="0" y="0" flags="0x1004"/>
    </TTGlyph>
    <TTGlyph name="Ucircumflex" xMin="34" yMin="-14" xMax="762" yMax="934">
      <component glyphName="circumflex.cap" x="707" y="229" flags="0x1004"/>
      <component glyphName="U" x="0" y="0" flags="0x1004"/>
    </TTGlyph>
    <TTGlyph name="Udieresis" xMin="34" yMin="-14" xMax="762" yMax="945">
      <component glyphName="dieresis" x="172" y="228" flags="0x1004"/>
      <component glyphName="U" x="0" y="0" flags="0x1004"/>
    </TTGlyph>
    <TTGlyph name="Ugrave" xMin="34" yMin="-14" xMax="762" yMax="977">
      <component glyphName="grave.cap" x="617" y="228" flags="0x1004"/>
      <component glyphName="U" x="0" y="0" flags="0x1004"/>
    </TTGlyph>
    <TTGlyph name="Uhungarumlaut" xMin="34" yMin="-14" xMax="762" yMax="977">
      <component glyphName="hungarumlaut.cap" x="762" y="228" flags="0x1004"/>
      <component glyphName="U" x="0" y="0" flags="0x1004"/>
    </TTGlyph>
    <TTGlyph name="Umacron" xMin="34" yMin="-14" xMax="762" yMax="891">
      <component glyphName="macron" x="164" y="228" flags="0x1004"/>
      <component glyphName="U" x="0" y="0" flags="0x1004"/>
    </TTGlyph>
    <TTGlyph name="Uring" xMin="34" yMin="-14" xMax="762" yMax="972">
      <component glyphName="ring" x="164" y="228" flags="0x1004"/>
      <component glyphName="U" x="0" y="0" flags="0x1004"/>
    </TTGlyph>
    <TTGlyph name="Utilde" xMin="34" yMin="-14" xMax="762" yMax="929">
      <component glyphName="tilde" x="165" y="228" flags="0x1004"/>
      <component glyphName="U" x="0" y="0" flags="0x1004"/>
    </TTGlyph>
    <TTGlyph name="V" xMin="0" yMin="0" xMax="750" yMax="738">
      <contour>
        <pt x="0" y="701" on="1"/>
        <pt x="0" y="738" on="1"/>
        <pt x="276" y="738" on="1"/>
        <pt x="276" y="701" on="1"/>
        <pt x="202" y="695" on="0"/>
        <pt x="202" y="666" on="1"/>
        <pt x="202" y="662" on="1"/>
        <pt x="202" y="645" on="0"/>
        <pt x="364" y="176" on="0"/>
        <pt x="391" y="121" on="1"/>
        <pt x="441" y="233" on="0"/>
        <pt x="597" y="635" on="0"/>
        <pt x="597" y="676" on="0"/>
        <pt x="566" y="694" on="0"/>
        <pt x="514" y="699" on="1"/>
        <pt x="514" y="738" on="1"/>
        <pt x="750" y="738" on="1"/>
        <pt x="750" y="702" on="1"/>
        <pt x="710" y="698" on="0"/>
        <pt x="673" y="653" on="0"/>
        <pt x="636" y="566" on="1"/>
        <pt x="401" y="0" on="1"/>
        <pt x="337" y="0" on="1"/>
        <pt x="78" y="638" on="1"/>
        <pt x="65" y="670" on="0"/>
        <pt x="34" y="699" on="0"/>
      </contour>
    </TTGlyph>
    <TTGlyph name="W" xMin="0" yMin="0" xMax="1000" yMax="738">
      <contour>
        <pt x="0" y="701" on="1"/>
        <pt x="0" y="738" on="1"/>
        <pt x="260" y="738" on="1"/>
        <pt x="260" y="701" on="1"/>
        <pt x="208" y="697" on="0"/>
        <pt x="175" y="684" on="0"/>
        <pt x="175" y="645" on="0"/>
        <pt x="285" y="210" on="0"/>
        <pt x="302" y="167" on="1"/>
        <pt x="331" y="240" on="0"/>
        <pt x="458" y="648" on="0"/>
        <pt x="458" y="685" on="0"/>
        <pt x="424" y="698" on="0"/>
        <pt x="382" y="701" on="1"/>
        <pt x="382" y="738" on="1"/>
        <pt x="659" y="738" on="1"/>
        <pt x="659" y="701" on="1"/>
        <pt x="591" y="697" on="0"/>
        <pt x="591" y="668" on="1"/>
        <pt x="591" y="660" on="0"/>
        <pt x="614" y="566" on="1"/>
        <pt x="687" y="275" on="0"/>
        <pt x="730" y="167" on="1"/>
        <pt x="773" y="296" on="0"/>
        <pt x="869" y="639" on="0"/>
        <pt x="869" y="678" on="0"/>
        <pt x="832" y="695" on="0"/>
        <pt x="786" y="699" on="1"/>
        <pt x="786" y="738" on="1"/>
        <pt x="1000" y="738" on="1"/>
        <pt x="1000" y="702" on="1"/>
        <pt x="976" y="700" on="0"/>
        <pt x="952" y="681" on="0"/>
        <pt x="944" y="660" on="1"/>
        <pt x="753" y="34" on="0"/>
        <pt x="746" y="0" on="1"/>
        <pt x="672" y="0" on="1"/>
        <pt x="655" y="82" on="0"/>
        <pt x="528" y="478" on="0"/>
        <pt x="495" y="569" on="1"/>
        <pt x="469" y="500" on="0"/>
        <pt x="322" y="47" on="0"/>
        <pt x="314" y="0" on="1"/>
        <pt x="236" y="0" on="1"/>
        <pt x="231" y="41" on="0"/>
        <pt x="71" y="596" on="1"/>
        <pt x="58" y="638" on="1"/>
        <pt x="51" y="669" on="0"/>
        <pt x="27" y="699" on="0"/>
      </contour>
    </TTGlyph>
    <TTGlyph name="Wcircumflex" xMin="0" yMin="0" xMax="1000" yMax="934">
      <component glyphName="circumflex.cap" x="812" y="229" flags="0x1004"/>
      <component glyphName="W" x="0" y="0" flags="0x1004"/>
    </TTGlyph>
    <TTGlyph name="X" xMin="0" yMin="0" xMax="646" yMax="738">
      <contour>
        <pt x="0" y="0" on="1"/>
        <pt x="0" y="36" on="1"/>
        <pt x="26" y="39" on="0"/>
        <pt x="107" y="115" on="0"/>
        <pt x="283" y="362" on="1"/>
        <pt x="78" y="671" on="1"/>
        <pt x="59" y="698" on="0"/>
        <pt x="17" y="701" on="1"/>
        <pt x="17" y="738" on="1"/>
        <pt x="294" y="738" on="1"/>
        <pt x="294" y="701" on="1"/>
        <pt x="255" y="698" on="0"/>
        <pt x="226" y="687" on="0"/>
        <pt x="226" y="675" on="1"/>
        <pt x="226" y="651" on="0"/>
        <pt x="353" y="444" on="1"/>
        <pt x="411" y="523" on="0"/>
        <pt x="496" y="656" on="0"/>
        <pt x="496" y="684" on="0"/>
        <pt x="469" y="695" on="0"/>
        <pt x="420" y="699" on="1"/>
        <pt x="420" y="738" on="1"/>
        <pt x="644" y="738" on="1"/>
        <pt x="644" y="702" on="1"/>
        <pt x="601" y="697" on="0"/>
        <pt x="549" y="630" on="1"/>
        <pt x="379" y="401" on="1"/>
        <pt x="511" y="182" on="1"/>
        <pt x="572" y="80" on="0"/>
        <pt x="610" y="39" on="0"/>
        <pt x="646" y="37" on="1"/>
        <pt x="646" y="0" on="1"/>
        <pt x="389" y="0" on="1"/>
        <pt x="389" y="37" on="1"/>
        <pt x="464" y="43" on="0"/>
        <pt x="464" y="66" on="1"/>
        <pt x="464" y="72" on="0"/>
        <pt x="453" y="92" on="1"/>
        <pt x="309" y="319" on="1"/>
        <pt x="250" y="240" on="0"/>
        <pt x="142" y="80" on="0"/>
        <pt x="142" y="69" on="1"/>
        <pt x="142" y="48" on="0"/>
        <pt x="224" y="39" on="1"/>
        <pt x="224" y="0" on="1"/>
      </contour>
    </TTGlyph>
    <TTGlyph name="Y" xMin="0" yMin="0" xMax="649" yMax="738">
      <contour>
        <pt x="0" y="701" on="1"/>
        <pt x="0" y="738" on="1"/>
        <pt x="276" y="738" on="1"/>
        <pt x="276" y="701" on="1"/>
        <pt x="227" y="697" on="0"/>
        <pt x="193" y="683" on="0"/>
        <pt x="193" y="668" on="1"/>
        <pt x="193" y="645" on="0"/>
        <pt x="344" y="408" on="1"/>
        <pt x="511" y="647" on="0"/>
        <pt x="511" y="673" on="1"/>
        <pt x="511" y="687" on="0"/>
        <pt x="480" y="696" on="0"/>
        <pt x="441" y="699" on="1"/>
        <pt x="441" y="738" on="1"/>
        <pt x="649" y="738" on="1"/>
        <pt x="649" y="702" on="1"/>
        <pt x="610" y="697" on="0"/>
        <pt x="594" y="677" on="1"/>
        <pt x="370" y="367" on="1"/>
        <pt x="367" y="301" on="0"/>
        <pt x="367" y="76" on="0"/>
        <pt x="372" y="67" on="1"/>
        <pt x="386" y="41" on="0"/>
        <pt x="472" y="35" on="1"/>
        <pt x="472" y="0" on="1"/>
        <pt x="162" y="0" on="1"/>
        <pt x="162" y="35" on="1"/>
        <pt x="194" y="38" on="0"/>
        <pt x="232" y="44" on="0"/>
        <pt x="267" y="65" on="0"/>
        <pt x="267" y="83" on="1"/>
        <pt x="263" y="358" on="1"/>
        <pt x="240" y="399" on="0"/>
        <pt x="64" y="654" on="1"/>
        <pt x="36" y="698" on="0"/>
      </contour>
    </TTGlyph>
    <TTGlyph name="Yacute" xMin="0" yMin="0" xMax="649" yMax="977">
      <component glyphName="acute.cap" x="590" y="228" flags="0x1004"/>
      <component glyphName="Y" x="0" y="0" flags="0x1004"/>
    </TTGlyph>
    <TTGlyph name="Ycircumflex" xMin="0" yMin="0" xMax="649" yMax="934">
      <component glyphName="circumflex.cap" x="650" y="229" flags="0x1004"/>
      <component glyphName="Y" x="0" y="0" flags="0x1004"/>
    </TTGlyph>
    <TTGlyph name="Ydieresis" xMin="0" yMin="0" xMax="649" yMax="945">
      <component glyphName="dieresis" x="115" y="228" flags="0x1004"/>
      <component glyphName="Y" x="0" y="0" flags="0x1004"/>
    </TTGlyph>
    <TTGlyph name="Z" xMin="21" yMin="0" xMax="625" yMax="738">
      <contour>
        <pt x="21" y="11" on="1"/>
        <pt x="467" y="682" on="1"/>
        <pt x="417" y="687" on="0"/>
        <pt x="346" y="687" on="0"/>
        <pt x="186" y="683" on="1"/>
        <pt x="171" y="682" on="0"/>
        <pt x="146" y="650" on="0"/>
        <pt x="142" y="638" on="1"/>
        <pt x="134" y="622" on="0"/>
        <pt x="108" y="528" on="1"/>
        <pt x="74" y="528" on="1"/>
        <pt x="70" y="588" on="0"/>
        <pt x="70" y="727" on="1"/>
        <pt x="82" y="738" on="1"/>
        <pt x="613" y="738" on="1"/>
        <pt x="625" y="727" on="1"/>
        <pt x="206" y="136" on="0"/>
        <pt x="169" y="60" on="1"/>
        <pt x="227" y="50" on="0"/>
        <pt x="283" y="50" on="1"/>
        <pt x="497" y="50" on="0"/>
        <pt x="511" y="63" on="1"/>
        <pt x="538" y="85" on="0"/>
        <pt x="562" y="178" on="1"/>
        <pt x="572" y="215" on="1"/>
        <pt x="612" y="215" on="1"/>
        <pt x="604" y="95" on="0"/>
        <pt x="604" y="0" on="1"/>
        <pt x="33" y="0" on="1"/>
      </contour>
    </TTGlyph>
    <TTGlyph name="Zacute" xMin="21" yMin="0" xMax="625" yMax="965">
      <component glyphName="acute.cap" x="638" y="216" flags="0x1004"/>
      <component glyphName="Z" x="0" y="0" flags="0x1004"/>
    </TTGlyph>
    <TTGlyph name="Zcaron" xMin="21" yMin="0" xMax="625" yMax="930">
      <component glyphName="caron.cap" x="602" y="225" flags="0x1004"/>
      <component glyphName="Z" x="0" y="0" flags="0x1004"/>
    </TTGlyph>
    <TTGlyph name="Zdotaccent" xMin="21" yMin="0" xMax="625" yMax="923">
      <component glyphName="dotaccent" x="100" y="206" flags="0x1004"/>
      <component glyphName="Z" x="0" y="0" flags="0x1004"/>
    </TTGlyph>
    <TTGlyph name="a" xMin="40" yMin="-10" xMax="456" yMax="526">
      <contour>
        <pt x="415" y="392" on="1"/>
        <pt x="411" y="128" on="1"/>
        <pt x="411" y="103" on="0"/>
        <pt x="456" y="32" on="0"/>
        <pt x="456" y="21" on="0"/>
        <pt x="447" y="18" on="1"/>
        <pt x="377" y="-5" on="0"/>
        <pt x="360" y="-5" on="0"/>
        <pt x="343" y="24" on="0"/>
        <pt x="329" y="66" on="0"/>
        <pt x="328" y="67" on="1"/>
        <pt x="313" y="57" on="0"/>
        <pt x="269" y="27" on="0"/>
        <pt x="252" y="16" on="0"/>
        <pt x="221" y="0" on="0"/>
        <pt x="209" y="-3" on="1"/>
        <pt x="181" y="-10" on="0"/>
        <pt x="86" y="-10" on="0"/>
        <pt x="40" y="66" on="0"/>
        <pt x="40" y="156" on="0"/>
        <pt x="54" y="210" on="0"/>
        <pt x="86" y="246" on="0"/>
        <pt x="118" y="270" on="0"/>
        <pt x="177" y="287" on="0"/>
        <pt x="220" y="296" on="0"/>
        <pt x="298" y="311" on="0"/>
        <pt x="322" y="316" on="1"/>
        <pt x="323" y="376" on="1"/>
        <pt x="323" y="422" on="0"/>
        <pt x="257" y="462" on="0"/>
        <pt x="164" y="462" on="0"/>
        <pt x="128" y="415" on="0"/>
        <pt x="107" y="338" on="1"/>
        <pt x="66" y="342" on="1"/>
        <pt x="66" y="429" on="0"/>
        <pt x="96" y="464" on="1"/>
        <pt x="132" y="506" on="0"/>
        <pt x="216" y="526" on="0"/>
        <pt x="303" y="526" on="0"/>
        <pt x="365" y="506" on="0"/>
        <pt x="396" y="481" on="0"/>
        <pt x="413" y="438" on="0"/>
        <pt x="415" y="412" on="0"/>
      </contour>
      <contour>
        <pt x="130" y="131" on="1"/>
        <pt x="130" y="57" on="0"/>
        <pt x="197" y="57" on="1"/>
        <pt x="256" y="57" on="0"/>
        <pt x="316" y="107" on="1"/>
        <pt x="323" y="113" on="0"/>
        <pt x="323" y="247" on="0"/>
        <pt x="322" y="277" on="1"/>
        <pt x="304" y="271" on="0"/>
        <pt x="249" y="253" on="0"/>
        <pt x="226" y="245" on="0"/>
        <pt x="188" y="232" on="0"/>
        <pt x="175" y="224" on="0"/>
        <pt x="152" y="212" on="0"/>
        <pt x="146" y="201" on="0"/>
        <pt x="134" y="186" on="0"/>
        <pt x="133" y="176" on="1"/>
        <pt x="130" y="148" on="0"/>
      </contour>
    </TTGlyph>
    <TTGlyph name="aacute" xMin="40" yMin="-10" xMax="456" yMax="759">
      <component glyphName="acutecmb" x="498" y="0" flags="0x1004"/>
      <component glyphName="a" x="0" y="0" flags="0x1004"/>
    </TTGlyph>
    <TTGlyph name="abreve" xMin="40" yMin="-10" xMax="456" yMax="713">
      <component glyphName="breve" x="4" y="0" flags="0x1004"/>
      <component glyphName="a" x="0" y="0" flags="0x1004"/>
    </TTGlyph>
    <TTGlyph name="acircumflex" xMin="40" yMin="-10" xMax="456" yMax="752">
      <component glyphName="circumflex" x="2" y="0" flags="0x1004"/>
      <component glyphName="a" x="0" y="0" flags="0x1004"/>
    </TTGlyph>
    <TTGlyph name="acute" xMin="144" yMin="558" xMax="356" yMax="759">
      <contour>
        <pt x="144" y="579" on="1"/>
        <pt x="203" y="640" on="0"/>
        <pt x="298" y="759" on="1"/>
        <pt x="319" y="759" on="0"/>
        <pt x="355" y="732" on="0"/>
        <pt x="356" y="714" on="1"/>
        <pt x="249" y="616" on="0"/>
        <pt x="162" y="558" on="1"/>
      </contour>
    </TTGlyph>
    <TTGlyph name="acute.cap" xMin="-304" yMin="575" xMax="-73" yMax="749">
      <contour>
        <pt x="-304" y="599" on="1"/>
        <pt x="-228" y="654" on="0"/>
        <pt x="-122" y="749" on="1"/>
        <pt x="-103" y="746" on="0"/>
        <pt x="-73" y="716" on="0"/>
        <pt x="-73" y="699" on="1"/>
        <pt x="-73" y="695" on="1"/>
        <pt x="-110" y="671" on="0"/>
        <pt x="-248" y="594" on="0"/>
        <pt x="-291" y="575" on="1"/>
      </contour>
    </TTGlyph>
    <TTGlyph name="acutecmb" xMin="-309" yMin="558" xMax="-98" yMax="759">
      <contour>
        <pt x="-309" y="579" on="1"/>
        <pt x="-251" y="640" on="0"/>
        <pt x="-156" y="759" on="1"/>
        <pt x="-135" y="759" on="0"/>
        <pt x="-99" y="732" on="0"/>
        <pt x="-98" y="714" on="1"/>
        <pt x="-205" y="616" on="0"/>
        <pt x="-292" y="558" on="1"/>
      </contour>
    </TTGlyph>
    <TTGlyph name="adieresis" xMin="40" yMin="-10" xMax="456" yMax="717">
      <component glyphName="dieresis" x="3" y="0" flags="0x1004"/>
      <component glyphName="a" x="0" y="0" flags="0x1004"/>
    </TTGlyph>
    <TTGlyph name="ae" xMin="40" yMin="-15" xMax="730" yMax="526">
      <contour>
        <pt x="322" y="316" on="1"/>
        <pt x="323" y="376" on="1"/>
        <pt x="323" y="422" on="0"/>
        <pt x="257" y="462" on="0"/>
        <pt x="164" y="462" on="0"/>
        <pt x="128" y="415" on="0"/>
        <pt x="107" y="338" on="1"/>
        <pt x="66" y="342" on="1"/>
        <pt x="66" y="429" on="0"/>
        <pt x="96" y="464" on="1"/>
        <pt x="132" y="506" on="0"/>
        <pt x="216" y="526" on="0"/>
        <pt x="259" y="526" on="1"/>
        <pt x="373" y="526" on="0"/>
        <pt x="402" y="464" on="1"/>
        <pt x="474" y="523" on="0"/>
        <pt x="536" y="523" on="1"/>
        <pt x="632" y="523" on="0"/>
        <pt x="672" y="480" on="1"/>
        <pt x="692" y="458" on="0"/>
        <pt x="717" y="417" on="0"/>
        <pt x="722" y="386" on="1"/>
        <pt x="729" y="336" on="0"/>
        <pt x="729" y="310" on="1"/>
        <pt x="729" y="281" on="1"/>
        <pt x="696" y="261" on="0"/>
        <pt x="624" y="261" on="1"/>
        <pt x="419" y="261" on="1"/>
        <pt x="419" y="139" on="0"/>
        <pt x="448" y="102" on="1"/>
        <pt x="480" y="62" on="0"/>
        <pt x="549" y="62" on="1"/>
        <pt x="636" y="62" on="0"/>
        <pt x="708" y="133" on="1"/>
        <pt x="730" y="110" on="1"/>
        <pt x="726" y="106" on="0"/>
        <pt x="696" y="75" on="0"/>
        <pt x="686" y="65" on="0"/>
        <pt x="658" y="38" on="0"/>
        <pt x="643" y="28" on="0"/>
        <pt x="616" y="8" on="0"/>
        <pt x="597" y="0" on="0"/>
        <pt x="584" y="-6" on="1"/>
        <pt x="560" y="-15" on="0"/>
        <pt x="529" y="-15" on="1"/>
        <pt x="407" y="-15" on="0"/>
        <pt x="355" y="85" on="1"/>
        <pt x="328" y="67" on="1"/>
        <pt x="313" y="57" on="0"/>
        <pt x="269" y="27" on="0"/>
        <pt x="252" y="16" on="0"/>
        <pt x="221" y="0" on="0"/>
        <pt x="209" y="-3" on="1"/>
        <pt x="181" y="-10" on="0"/>
        <pt x="86" y="-10" on="0"/>
        <pt x="40" y="66" on="0"/>
        <pt x="40" y="156" on="0"/>
        <pt x="54" y="210" on="0"/>
        <pt x="86" y="246" on="0"/>
        <pt x="118" y="270" on="0"/>
        <pt x="177" y="287" on="0"/>
        <pt x="220" y="296" on="0"/>
        <pt x="298" y="311" on="0"/>
      </contour>
      <contour>
        <pt x="130" y="131" on="1"/>
        <pt x="130" y="57" on="0"/>
        <pt x="197" y="57" on="1"/>
        <pt x="256" y="57" on="0"/>
        <pt x="316" y="107" on="1"/>
        <pt x="323" y="113" on="0"/>
        <pt x="323" y="247" on="0"/>
        <pt x="322" y="277" on="1"/>
        <pt x="304" y="271" on="0"/>
        <pt x="249" y="253" on="0"/>
        <pt x="226" y="245" on="0"/>
        <pt x="188" y="232" on="0"/>
        <pt x="175" y="224" on="0"/>
        <pt x="152" y="212" on="0"/>
        <pt x="146" y="201" on="0"/>
        <pt x="134" y="186" on="0"/>
        <pt x="133" y="176" on="1"/>
        <pt x="130" y="148" on="0"/>
      </contour>
      <contour>
        <pt x="421" y="306" on="1"/>
        <pt x="478" y="306" on="1"/>
        <pt x="611" y="306" on="0"/>
        <pt x="636" y="324" on="1"/>
        <pt x="636" y="367" on="0"/>
        <pt x="622" y="398" on="1"/>
        <pt x="596" y="458" on="0"/>
        <pt x="464" y="458" on="0"/>
        <pt x="421" y="391" on="0"/>
      </contour>
    </TTGlyph>
    <TTGlyph name="agrave" xMin="40" yMin="-10" xMax="456" yMax="760">
      <component glyphName="gravecmb" x="447" y="0" flags="0x1004"/>
      <component glyphName="a" x="0" y="0" flags="0x1004"/>
    </TTGlyph>
    <TTGlyph name="amacron" xMin="40" yMin="-10" xMax="456" yMax="663">
      <component glyphName="macron" x="-5" y="0" flags="0x1004"/>
      <component glyphName="a" x="0" y="0" flags="0x1004"/>
    </TTGlyph>
    <TTGlyph name="ampersand" xMin="45" yMin="-18" xMax="770" yMax="766">
      <contour>
        <pt x="116" y="38" on="1"/>
        <pt x="45" y="106" on="0"/>
        <pt x="45" y="286" on="0"/>
        <pt x="111" y="344" on="1"/>
        <pt x="162" y="390" on="0"/>
        <pt x="229" y="430" on="1"/>
        <pt x="142" y="537" on="0"/>
        <pt x="142" y="617" on="1"/>
        <pt x="142" y="674" on="0"/>
        <pt x="247" y="766" on="0"/>
        <pt x="399" y="766" on="0"/>
        <pt x="459" y="739" on="0"/>
        <pt x="459" y="711" on="1"/>
        <pt x="459" y="661" on="0"/>
        <pt x="422" y="584" on="1"/>
        <pt x="388" y="592" on="1"/>
        <pt x="393" y="622" on="0"/>
        <pt x="393" y="633" on="1"/>
        <pt x="393" y="707" on="0"/>
        <pt x="313" y="707" on="1"/>
        <pt x="278" y="707" on="0"/>
        <pt x="229" y="664" on="0"/>
        <pt x="229" y="626" on="1"/>
        <pt x="229" y="570" on="0"/>
        <pt x="397" y="348" on="0"/>
        <pt x="536" y="222" on="1"/>
        <pt x="590" y="322" on="0"/>
        <pt x="590" y="413" on="1"/>
        <pt x="590" y="449" on="0"/>
        <pt x="558" y="474" on="0"/>
        <pt x="516" y="477" on="1"/>
        <pt x="516" y="510" on="1"/>
        <pt x="553" y="507" on="0"/>
        <pt x="694" y="507" on="0"/>
        <pt x="732" y="510" on="1"/>
        <pt x="732" y="477" on="1"/>
        <pt x="654" y="472" on="0"/>
        <pt x="644" y="406" on="1"/>
        <pt x="639" y="377" on="0"/>
        <pt x="603" y="253" on="0"/>
        <pt x="570" y="191" on="1"/>
        <pt x="662" y="111" on="0"/>
        <pt x="770" y="33" on="1"/>
        <pt x="770" y="0" on="1"/>
        <pt x="688" y="0" on="0"/>
        <pt x="637" y="-4" on="1"/>
        <pt x="522" y="117" on="1"/>
        <pt x="485" y="69" on="0"/>
        <pt x="435" y="35" on="1"/>
        <pt x="403" y="13" on="1"/>
        <pt x="376" y="-6" on="0"/>
        <pt x="328" y="-18" on="0"/>
        <pt x="209" y="-18" on="0"/>
        <pt x="157" y="-1" on="0"/>
      </contour>
      <contour>
        <pt x="144" y="221" on="1"/>
        <pt x="144" y="155" on="0"/>
        <pt x="242" y="59" on="0"/>
        <pt x="309" y="59" on="1"/>
        <pt x="410" y="59" on="0"/>
        <pt x="489" y="152" on="1"/>
        <pt x="259" y="396" on="1"/>
        <pt x="144" y="323" on="0"/>
      </contour>
    </TTGlyph>
    <TTGlyph name="aring" xMin="40" yMin="-10" xMax="456" yMax="744">
      <component glyphName="ring" x="-5" y="0" flags="0x1004"/>
      <component glyphName="a" x="0" y="0" flags="0x1004"/>
    </TTGlyph>
    <TTGlyph name="asciicircum" xMin="-3" yMin="261" xMax="483" yMax="747">
      <contour>
        <pt x="-3" y="273" on="1"/>
        <pt x="202" y="734" on="1"/>
        <pt x="272" y="747" on="1"/>
        <pt x="483" y="273" on="1"/>
        <pt x="472" y="261" on="1"/>
        <pt x="411" y="273" on="1"/>
        <pt x="240" y="657" on="1"/>
        <pt x="69" y="273" on="1"/>
        <pt x="8" y="261" on="1"/>
      </contour>
    </TTGlyph>
    <TTGlyph name="asciitilde" xMin="2" yMin="248" xMax="477" yMax="377">
      <contour>
        <pt x="2" y="286" on="1"/>
        <pt x="33" y="328" on="0"/>
        <pt x="97" y="377" on="0"/>
        <pt x="182" y="377" on="0"/>
        <pt x="320" y="314" on="0"/>
        <pt x="344" y="314" on="1"/>
        <pt x="381" y="314" on="0"/>
        <pt x="424" y="373" on="1"/>
        <pt x="477" y="340" on="1"/>
        <pt x="418" y="248" on="0"/>
        <pt x="339" y="248" on="1"/>
        <pt x="300" y="248" on="0"/>
        <pt x="162" y="311" on="0"/>
        <pt x="99" y="311" on="0"/>
        <pt x="55" y="252" on="1"/>
      </contour>
    </TTGlyph>
    <TTGlyph name="asterisk" xMin="50" yMin="343" xMax="470" yMax="751">
      <contour>
        <pt x="50" y="554" on="1"/>
        <pt x="72" y="633" on="1"/>
        <pt x="86" y="641" on="1"/>
        <pt x="246" y="564" on="1"/>
        <pt x="208" y="749" on="1"/>
        <pt x="290" y="751" on="1"/>
        <pt x="302" y="741" on="1"/>
        <pt x="279" y="565" on="1"/>
        <pt x="442" y="659" on="1"/>
        <pt x="470" y="581" on="1"/>
        <pt x="464" y="566" on="1"/>
        <pt x="289" y="535" on="1"/>
        <pt x="429" y="408" on="1"/>
        <pt x="364" y="357" on="1"/>
        <pt x="348" y="359" on="1"/>
        <pt x="264" y="515" on="1"/>
        <pt x="186" y="343" on="1"/>
        <pt x="118" y="389" on="1"/>
        <pt x="115" y="405" on="1"/>
        <pt x="237" y="533" on="1"/>
      </contour>
    </TTGlyph>
    <TTGlyph name="at" xMin="20" yMin="-203" xMax="899" yMax="744">
      <contour>
        <pt x="77" y="-5" on="0"/>
        <pt x="20" y="152" on="0"/>
        <pt x="20" y="334" on="0"/>
        <pt x="79" y="501" on="0"/>
        <pt x="178" y="619" on="0"/>
        <pt x="243" y="661" on="1"/>
        <pt x="371" y="744" on="0"/>
        <pt x="523" y="744" on="1"/>
        <pt x="678" y="744" on="0"/>
        <pt x="784" y="655" on="1"/>
        <pt x="837" y="611" on="0"/>
        <pt x="899" y="471" on="0"/>
        <pt x="899" y="306" on="0"/>
        <pt x="818" y="119" on="0"/>
        <pt x="700" y="-12" on="0"/>
        <pt x="652" y="-12" on="1"/>
        <pt x="586" y="-12" on="0"/>
        <pt x="571" y="100" on="1"/>
        <pt x="528" y="59" on="0"/>
        <pt x="421" y="-13" on="0"/>
        <pt x="394" y="-13" on="1"/>
        <pt x="369" y="-13" on="0"/>
        <pt x="317" y="26" on="0"/>
        <pt x="284" y="71" on="0"/>
        <pt x="260" y="152" on="0"/>
        <pt x="260" y="266" on="0"/>
        <pt x="310" y="388" on="0"/>
        <pt x="383" y="471" on="0"/>
        <pt x="464" y="522" on="0"/>
        <pt x="544" y="522" on="0"/>
        <pt x="618" y="494" on="1"/>
        <pt x="653" y="525" on="1"/>
        <pt x="675" y="516" on="1"/>
        <pt x="662" y="482" on="0"/>
        <pt x="645" y="182" on="0"/>
        <pt x="645" y="126" on="1"/>
        <pt x="645" y="49" on="0"/>
        <pt x="674" y="49" on="1"/>
        <pt x="697" y="49" on="0"/>
        <pt x="762" y="144" on="0"/>
        <pt x="811" y="300" on="0"/>
        <pt x="811" y="450" on="0"/>
        <pt x="755" y="571" on="0"/>
        <pt x="708" y="608" on="1"/>
        <pt x="614" y="683" on="0"/>
        <pt x="487" y="683" on="1"/>
        <pt x="419" y="683" on="0"/>
        <pt x="304" y="639" on="0"/>
        <pt x="224" y="564" on="0"/>
        <pt x="163" y="471" on="0"/>
        <pt x="146" y="418" on="1"/>
        <pt x="111" y="315" on="0"/>
        <pt x="111" y="149" on="0"/>
        <pt x="156" y="15" on="0"/>
        <pt x="247" y="-93" on="0"/>
        <pt x="401" y="-156" on="0"/>
        <pt x="565" y="-156" on="0"/>
        <pt x="667" y="-133" on="1"/>
        <pt x="675" y="-162" on="1"/>
        <pt x="641" y="-175" on="0"/>
        <pt x="513" y="-203" on="0"/>
        <pt x="473" y="-203" on="1"/>
        <pt x="363" y="-203" on="0"/>
        <pt x="186" y="-129" on="0"/>
      </contour>
      <contour>
        <pt x="332" y="225" on="1"/>
        <pt x="332" y="174" on="0"/>
        <pt x="397" y="68" on="0"/>
        <pt x="463" y="68" on="0"/>
        <pt x="543" y="117" on="0"/>
        <pt x="574" y="156" on="1"/>
        <pt x="587" y="309" on="0"/>
        <pt x="587" y="390" on="1"/>
        <pt x="518" y="459" on="0"/>
        <pt x="401" y="459" on="0"/>
        <pt x="332" y="329" on="0"/>
      </contour>
    </TTGlyph>
    <TTGlyph name="atilde" xMin="40" yMin="-10" xMax="456" yMax="701">
      <component glyphName="tilde" x="-4" y="0" flags="0x1004"/>
      <component glyphName="a" x="0" y="0" flags="0x1004"/>
    </TTGlyph>
    <TTGlyph name="b" xMin="10" yMin="-15" xMax="509" yMax="797">
      <contour>
        <pt x="10" y="773" on="1"/>
        <pt x="84" y="780" on="0"/>
        <pt x="157" y="797" on="0"/>
        <pt x="160" y="797" on="1"/>
        <pt x="177" y="797" on="0"/>
        <pt x="177" y="782" on="1"/>
        <pt x="177" y="739" on="1"/>
        <pt x="173" y="462" on="1"/>
        <pt x="292" y="527" on="0"/>
        <pt x="327" y="527" on="1"/>
        <pt x="439" y="527" on="0"/>
        <pt x="476" y="460" on="1"/>
        <pt x="509" y="401" on="0"/>
        <pt x="509" y="159" on="0"/>
        <pt x="466" y="94" on="1"/>
        <pt x="455" y="79" on="0"/>
        <pt x="384" y="15" on="0"/>
        <pt x="316" y="-15" on="0"/>
        <pt x="213" y="-15" on="0"/>
        <pt x="105" y="20" on="0"/>
        <pt x="86" y="47" on="1"/>
        <pt x="85" y="170" on="0"/>
        <pt x="85" y="320" on="1"/>
        <pt x="85" y="703" on="0"/>
        <pt x="74" y="725" on="1"/>
        <pt x="68" y="739" on="0"/>
        <pt x="34" y="740" on="1"/>
        <pt x="12" y="740" on="1"/>
      </contour>
      <contour>
        <pt x="172" y="353" on="1"/>
        <pt x="171" y="293" on="0"/>
        <pt x="171" y="108" on="0"/>
        <pt x="181" y="98" on="1"/>
        <pt x="193" y="83" on="0"/>
        <pt x="271" y="54" on="0"/>
        <pt x="347" y="54" on="0"/>
        <pt x="390" y="79" on="0"/>
        <pt x="411" y="149" on="0"/>
        <pt x="420" y="265" on="0"/>
        <pt x="420" y="337" on="0"/>
        <pt x="393" y="410" on="0"/>
        <pt x="371" y="427" on="1"/>
        <pt x="331" y="458" on="0"/>
        <pt x="246" y="458" on="0"/>
        <pt x="172" y="419" on="1"/>
      </contour>
    </TTGlyph>
    <TTGlyph name="backslash" xMin="-20" yMin="-140" xMax="500" yMax="797">
      <contour>
        <pt x="-20" y="797" on="1"/>
        <pt x="41" y="797" on="1"/>
        <pt x="500" y="-140" on="1"/>
        <pt x="437" y="-140" on="1"/>
      </contour>
    </TTGlyph>
    <TTGlyph name="bar" xMin="81" yMin="-203" xMax="159" yMax="797">
      <contour>
        <pt x="81" y="-203" on="1"/>
        <pt x="81" y="797" on="1"/>
        <pt x="159" y="797" on="1"/>
        <pt x="159" y="-203" on="1"/>
      </contour>
    </TTGlyph>
    <TTGlyph name="braceleft" xMin="50" yMin="-208" xMax="388" yMax="801">
      <contour>
        <pt x="50" y="282" on="1"/>
        <pt x="56" y="314" on="1"/>
        <pt x="120" y="330" on="0"/>
        <pt x="160" y="343" on="1"/>
        <pt x="171" y="359" on="0"/>
        <pt x="174" y="550" on="0"/>
        <pt x="188" y="744" on="0"/>
        <pt x="212" y="768" on="1"/>
        <pt x="282" y="785" on="0"/>
        <pt x="379" y="801" on="1"/>
        <pt x="388" y="768" on="1"/>
        <pt x="333" y="756" on="0"/>
        <pt x="284" y="740" on="1"/>
        <pt x="275" y="726" on="0"/>
        <pt x="269" y="601" on="0"/>
        <pt x="265" y="431" on="0"/>
        <pt x="257" y="384" on="1"/>
        <pt x="252" y="352" on="0"/>
        <pt x="177" y="300" on="0"/>
        <pt x="154" y="297" on="1"/>
        <pt x="176" y="295" on="0"/>
        <pt x="252" y="243" on="0"/>
        <pt x="257" y="211" on="1"/>
        <pt x="265" y="164" on="0"/>
        <pt x="269" y="-6" on="0"/>
        <pt x="275" y="-131" on="0"/>
        <pt x="284" y="-145" on="1"/>
        <pt x="324" y="-159" on="0"/>
        <pt x="388" y="-175" on="1"/>
        <pt x="379" y="-208" on="1"/>
        <pt x="254" y="-185" on="0"/>
        <pt x="212" y="-175" on="1"/>
        <pt x="188" y="-152" on="0"/>
        <pt x="173" y="46" on="0"/>
        <pt x="170" y="239" on="0"/>
        <pt x="160" y="253" on="1"/>
        <pt x="114" y="268" on="0"/>
      </contour>
    </TTGlyph>
    <TTGlyph name="braceright" xMin="0" yMin="-208" xMax="338" yMax="801">
      <contour>
        <pt x="0" y="-175" on="1"/>
        <pt x="64" y="-159" on="0"/>
        <pt x="104" y="-145" on="1"/>
        <pt x="113" y="-131" on="0"/>
        <pt x="119" y="-6" on="0"/>
        <pt x="123" y="164" on="0"/>
        <pt x="131" y="211" on="1"/>
        <pt x="136" y="243" on="0"/>
        <pt x="212" y="295" on="0"/>
        <pt x="234" y="297" on="1"/>
        <pt x="211" y="300" on="0"/>
        <pt x="136" y="352" on="0"/>
        <pt x="131" y="384" on="1"/>
        <pt x="123" y="431" on="0"/>
        <pt x="119" y="601" on="0"/>
        <pt x="113" y="726" on="0"/>
        <pt x="104" y="740" on="1"/>
        <pt x="55" y="756" on="0"/>
        <pt x="0" y="768" on="1"/>
        <pt x="9" y="801" on="1"/>
        <pt x="106" y="785" on="0"/>
        <pt x="176" y="768" on="1"/>
        <pt x="200" y="744" on="0"/>
        <pt x="214" y="550" on="0"/>
        <pt x="217" y="359" on="0"/>
        <pt x="228" y="343" on="1"/>
        <pt x="284" y="325" on="0"/>
        <pt x="338" y="313" on="1"/>
        <pt x="332" y="281" on="1"/>
        <pt x="277" y="269" on="0"/>
        <pt x="228" y="253" on="1"/>
        <pt x="218" y="239" on="0"/>
        <pt x="215" y="46" on="0"/>
        <pt x="200" y="-152" on="0"/>
        <pt x="176" y="-175" on="1"/>
        <pt x="134" y="-185" on="0"/>
        <pt x="9" y="-208" on="1"/>
      </contour>
    </TTGlyph>
    <TTGlyph name="bracketleft" xMin="100" yMin="-205" xMax="295" yMax="797">
      <contour>
        <pt x="179" y="-202" on="1"/>
        <pt x="111" y="-204" on="1"/>
        <pt x="100" y="-193" on="1"/>
        <pt x="100" y="786" on="1"/>
        <pt x="111" y="797" on="1"/>
        <pt x="119" y="795" on="0"/>
        <pt x="245" y="795" on="0"/>
        <pt x="295" y="797" on="1"/>
        <pt x="295" y="764" on="1"/>
        <pt x="207" y="762" on="0"/>
        <pt x="196" y="741" on="1"/>
        <pt x="191" y="731" on="0"/>
        <pt x="190" y="705" on="1"/>
        <pt x="190" y="-113" on="1"/>
        <pt x="191" y="-139" on="0"/>
        <pt x="196" y="-149" on="1"/>
        <pt x="206" y="-169" on="0"/>
        <pt x="295" y="-171" on="1"/>
        <pt x="295" y="-205" on="1"/>
        <pt x="220" y="-202" on="0"/>
      </contour>
    </TTGlyph>
    <TTGlyph name="bracketright" xMin="0" yMin="-205" xMax="195" yMax="797">
      <contour>
        <pt x="184" y="-204" on="1"/>
        <pt x="116" y="-202" on="1"/>
        <pt x="75" y="-202" on="0"/>
        <pt x="0" y="-205" on="1"/>
        <pt x="0" y="-171" on="1"/>
        <pt x="89" y="-169" on="0"/>
        <pt x="99" y="-149" on="1"/>
        <pt x="104" y="-139" on="0"/>
        <pt x="105" y="-113" on="1"/>
        <pt x="105" y="705" on="1"/>
        <pt x="104" y="731" on="0"/>
        <pt x="99" y="741" on="1"/>
        <pt x="88" y="762" on="0"/>
        <pt x="0" y="764" on="1"/>
        <pt x="0" y="797" on="1"/>
        <pt x="50" y="795" on="0"/>
        <pt x="176" y="795" on="0"/>
        <pt x="184" y="797" on="1"/>
        <pt x="195" y="786" on="1"/>
        <pt x="195" y="-193" on="1"/>
      </contour>
    </TTGlyph>
    <TTGlyph name="breve" xMin="114" yMin="580" xMax="386" yMax="713">
      <contour>
        <pt x="114" y="686" on="1"/>
        <pt x="169" y="711" on="1"/>
        <pt x="181" y="699" on="1"/>
        <pt x="214" y="638" on="0"/>
        <pt x="310" y="638" on="0"/>
        <pt x="355" y="713" on="1"/>
        <pt x="386" y="699" on="1"/>
        <pt x="326" y="580" on="0"/>
        <pt x="240" y="580" on="1"/>
        <pt x="200" y="580" on="0"/>
        <pt x="132" y="637" on="0"/>
      </contour>
    </TTGlyph>
    <TTGlyph name="brevecmb" xMin="-418" yMin="580" xMax="-146" yMax="713">
      <component glyphName="breve" x="-532" y="0" flags="0x1004"/>
    </TTGlyph>
    <TTGlyph name="brokenbar" xMin="81" yMin="-203" xMax="159" yMax="797">
      <contour>
        <pt x="81" y="200" on="1"/>
        <pt x="159" y="200" on="1"/>
        <pt x="159" y="-203" on="1"/>
        <pt x="81" y="-203" on="1"/>
      </contour>
      <contour>
        <pt x="81" y="394" on="1"/>
        <pt x="81" y="797" on="1"/>
        <pt x="159" y="797" on="1"/>
        <pt x="159" y="394" on="1"/>
      </contour>
    </TTGlyph>
    <TTGlyph name="bullet" xMin="109" yMin="194" xMax="371" yMax="457">
      <contour>
        <pt x="369" y="351" on="1"/>
        <pt x="371" y="322" on="1"/>
        <pt x="371" y="311" on="0"/>
        <pt x="301" y="232" on="0"/>
        <pt x="260" y="198" on="1"/>
        <pt x="254" y="194" on="0"/>
        <pt x="238" y="194" on="0"/>
        <pt x="204" y="217" on="1"/>
        <pt x="172" y="239" on="1"/>
        <pt x="143" y="262" on="1"/>
        <pt x="124" y="277" on="0"/>
        <pt x="109" y="303" on="0"/>
        <pt x="109" y="329" on="1"/>
        <pt x="109" y="344" on="0"/>
        <pt x="218" y="456" on="0"/>
        <pt x="248" y="457" on="0"/>
        <pt x="365" y="370" on="0"/>
      </contour>
    </TTGlyph>
    <TTGlyph name="c" xMin="30" yMin="6" xMax="413" yMax="525">
      <contour>
        <pt x="44" y="120" on="1"/>
        <pt x="30" y="180" on="0"/>
        <pt x="30" y="319" on="0"/>
        <pt x="43" y="383" on="1"/>
        <pt x="50" y="413" on="0"/>
        <pt x="78" y="436" on="1"/>
        <pt x="123" y="478" on="0"/>
        <pt x="196" y="519" on="0"/>
        <pt x="231" y="525" on="0"/>
        <pt x="299" y="525" on="0"/>
        <pt x="383" y="509" on="0"/>
        <pt x="396" y="504" on="1"/>
        <pt x="393" y="474" on="0"/>
        <pt x="393" y="354" on="1"/>
        <pt x="363" y="354" on="1"/>
        <pt x="353" y="398" on="0"/>
        <pt x="342" y="436" on="0"/>
        <pt x="266" y="456" on="0"/>
        <pt x="160" y="456" on="0"/>
        <pt x="119" y="380" on="0"/>
        <pt x="119" y="272" on="1"/>
        <pt x="119" y="175" on="0"/>
        <pt x="143" y="124" on="1"/>
        <pt x="171" y="63" on="0"/>
        <pt x="255" y="63" on="1"/>
        <pt x="285" y="63" on="0"/>
        <pt x="353" y="98" on="0"/>
        <pt x="372" y="116" on="1"/>
        <pt x="392" y="134" on="1"/>
        <pt x="413" y="114" on="1"/>
        <pt x="374" y="66" on="0"/>
        <pt x="315" y="14" on="0"/>
        <pt x="300" y="6" on="1"/>
        <pt x="215" y="-38" on="0"/>
        <pt x="114" y="16" on="1"/>
        <pt x="73" y="53" on="0"/>
      </contour>
    </TTGlyph>
    <TTGlyph name="c_t" xMin="30" yMin="-15" xMax="766" yMax="768">
      <contour>
        <pt x="535" y="188" on="1"/>
        <pt x="538" y="448" on="1"/>
        <pt x="451" y="448" on="1"/>
        <pt x="451" y="478" on="1"/>
        <pt x="538" y="495" on="1"/>
        <pt x="538" y="587" on="1"/>
        <pt x="595" y="604" on="0"/>
        <pt x="595" y="654" on="1"/>
        <pt x="595" y="681" on="0"/>
        <pt x="511" y="721" on="0"/>
        <pt x="391" y="721" on="0"/>
        <pt x="300" y="655" on="0"/>
        <pt x="300" y="586" on="1"/>
        <pt x="300" y="554" on="0"/>
        <pt x="309" y="522" on="1"/>
        <pt x="343" y="517" on="0"/>
        <pt x="385" y="481" on="0"/>
        <pt x="394" y="452" on="0"/>
        <pt x="394" y="415" on="0"/>
        <pt x="372" y="390" on="0"/>
        <pt x="346" y="390" on="0"/>
        <pt x="313" y="426" on="0"/>
        <pt x="303" y="446" on="1"/>
        <pt x="269" y="456" on="0"/>
        <pt x="160" y="456" on="0"/>
        <pt x="119" y="380" on="0"/>
        <pt x="119" y="272" on="1"/>
        <pt x="119" y="175" on="0"/>
        <pt x="143" y="124" on="1"/>
        <pt x="171" y="63" on="0"/>
        <pt x="255" y="63" on="1"/>
        <pt x="285" y="63" on="0"/>
        <pt x="353" y="98" on="0"/>
        <pt x="372" y="116" on="1"/>
        <pt x="392" y="134" on="1"/>
        <pt x="413" y="114" on="1"/>
        <pt x="374" y="66" on="0"/>
        <pt x="315" y="14" on="0"/>
        <pt x="300" y="6" on="1"/>
        <pt x="215" y="-38" on="0"/>
        <pt x="114" y="16" on="1"/>
        <pt x="73" y="53" on="0"/>
        <pt x="44" y="120" on="1"/>
        <pt x="30" y="180" on="0"/>
        <pt x="30" y="319" on="0"/>
        <pt x="43" y="383" on="1"/>
        <pt x="50" y="413" on="0"/>
        <pt x="78" y="436" on="1"/>
        <pt x="123" y="478" on="0"/>
        <pt x="196" y="519" on="0"/>
        <pt x="231" y="525" on="0"/>
        <pt x="260" y="525" on="1"/>
        <pt x="275" y="525" on="1"/>
        <pt x="263" y="561" on="0"/>
        <pt x="263" y="597" on="1"/>
        <pt x="263" y="679" on="0"/>
        <pt x="384" y="768" on="0"/>
        <pt x="534" y="768" on="0"/>
        <pt x="631" y="702" on="0"/>
        <pt x="631" y="638" on="1"/>
        <pt x="628" y="535" on="1"/>
        <pt x="628" y="504" on="1"/>
        <pt x="755" y="504" on="1"/>
        <pt x="752" y="448" on="1"/>
        <pt x="628" y="448" on="1"/>
        <pt x="625" y="201" on="1"/>
        <pt x="625" y="124" on="0"/>
        <pt x="644" y="56" on="0"/>
        <pt x="696" y="56" on="0"/>
        <pt x="745" y="85" on="1"/>
        <pt x="766" y="65" on="1"/>
        <pt x="689" y="-15" on="0"/>
        <pt x="640" y="-15" on="1"/>
        <pt x="575" y="-15" on="0"/>
        <pt x="535" y="73" on="0"/>
      </contour>
    </TTGlyph>
    <TTGlyph name="cacute" xMin="30" yMin="6" xMax="413" yMax="759">
      <component glyphName="acutecmb" x="495" y="0" flags="0x1004"/>
      <component glyphName="c" x="0" y="0" flags="0x1004"/>
    </TTGlyph>
    <TTGlyph name="caron" xMin="112" yMin="566" xMax="388" yMax="750">
      <contour>
        <pt x="388" y="732" on="1"/>
        <pt x="348" y="683" on="0"/>
        <pt x="260" y="566" on="1"/>
        <pt x="220" y="566" on="1"/>
        <pt x="206" y="591" on="0"/>
        <pt x="112" y="716" on="1"/>
        <pt x="139" y="748" on="1"/>
        <pt x="252" y="642" on="1"/>
        <pt x="376" y="750" on="1"/>
      </contour>
    </TTGlyph>
    <TTGlyph name="caron.cap" xMin="-372" yMin="566" xMax="-136" yMax="705">
      <contour>
        <pt x="-372" y="678" on="1"/>
        <pt x="-348" y="705" on="1"/>
        <pt x="-250" y="637" on="1"/>
        <pt x="-151" y="705" on="1"/>
        <pt x="-136" y="688" on="1"/>
        <pt x="-209" y="611" on="0"/>
        <pt x="-240" y="566" on="1"/>
        <pt x="-280" y="566" on="1"/>
        <pt x="-313" y="612" on="0"/>
      </contour>
    </TTGlyph>
    <TTGlyph name="caroncmb" xMin="-388" yMin="566" xMax="-112" yMax="750">
      <component glyphName="caron" x="-500" y="0" flags="0x1004"/>
    </TTGlyph>
    <TTGlyph name="ccaron" xMin="30" yMin="6" xMax="413" yMax="750">
      <component glyphName="caron" x="3" y="0" flags="0x1004"/>
      <component glyphName="c" x="0" y="0" flags="0x1004"/>
    </TTGlyph>
    <TTGlyph name="ccedilla" xMin="30" yMin="-206" xMax="413" yMax="525">
      <contour>
        <pt x="44" y="120" on="1"/>
        <pt x="30" y="180" on="0"/>
        <pt x="30" y="282" on="0"/>
        <pt x="42" y="401" on="0"/>
        <pt x="54" y="413" on="1"/>
        <pt x="138" y="495" on="0"/>
        <pt x="182" y="512" on="1"/>
        <pt x="208" y="521" on="0"/>
        <pt x="235" y="525" on="0"/>
        <pt x="298" y="525" on="0"/>
        <pt x="381" y="509" on="0"/>
        <pt x="396" y="504" on="1"/>
        <pt x="392" y="477" on="0"/>
        <pt x="392" y="354" on="1"/>
        <pt x="363" y="354" on="1"/>
        <pt x="347" y="418" on="1"/>
        <pt x="342" y="436" on="0"/>
        <pt x="266" y="456" on="0"/>
        <pt x="159" y="456" on="0"/>
        <pt x="118" y="380" on="0"/>
        <pt x="118" y="205" on="0"/>
        <pt x="130" y="154" on="1"/>
        <pt x="144" y="118" on="0"/>
        <pt x="170" y="88" on="1"/>
        <pt x="206" y="59" on="0"/>
        <pt x="274" y="59" on="0"/>
        <pt x="348" y="96" on="0"/>
        <pt x="370" y="115" on="1"/>
        <pt x="392" y="134" on="1"/>
        <pt x="413" y="114" on="1"/>
        <pt x="302" y="-7" on="1"/>
        <pt x="289" y="-9" on="1"/>
        <pt x="271" y="-13" on="0"/>
        <pt x="251" y="-15" on="1"/>
        <pt x="217" y="-15" on="1"/>
        <pt x="211" y="-43" on="1"/>
        <pt x="301" y="-61" on="0"/>
        <pt x="301" y="-119" on="1"/>
        <pt x="301" y="-142" on="0"/>
        <pt x="282" y="-175" on="0"/>
        <pt x="262" y="-189" on="0"/>
        <pt x="242" y="-199" on="1"/>
        <pt x="219" y="-203" on="0"/>
        <pt x="155" y="-206" on="1"/>
        <pt x="152" y="-168" on="1"/>
        <pt x="200" y="-168" on="0"/>
        <pt x="250" y="-145" on="0"/>
        <pt x="250" y="-115" on="0"/>
        <pt x="211" y="-92" on="0"/>
        <pt x="177" y="-91" on="1"/>
        <pt x="165" y="-80" on="1"/>
        <pt x="190" y="-11" on="1"/>
        <pt x="149" y="-4" on="0"/>
        <pt x="114" y="16" on="1"/>
        <pt x="71" y="55" on="0"/>
      </contour>
    </TTGlyph>
    <TTGlyph name="ccircumflex" xMin="30" yMin="6" xMax="413" yMax="752">
      <component glyphName="circumflex" x="-1" y="0" flags="0x1004"/>
      <component glyphName="c" x="0" y="0" flags="0x1004"/>
    </TTGlyph>
    <TTGlyph name="cdotaccent" xMin="30" yMin="6" xMax="413" yMax="717">
      <component glyphName="dotaccent" x="-5" y="0" flags="0x1004"/>
      <component glyphName="c" x="0" y="0" flags="0x1004"/>
    </TTGlyph>
    <TTGlyph name="cedilla" xMin="176" yMin="-206" xMax="324" yMax="8">
      <contour>
        <pt x="176" y="-168" on="1"/>
        <pt x="223" y="-168" on="0"/>
        <pt x="274" y="-145" on="0"/>
        <pt x="274" y="-115" on="0"/>
        <pt x="234" y="-92" on="0"/>
        <pt x="201" y="-91" on="1"/>
        <pt x="189" y="-80" on="1"/>
        <pt x="220" y="8" on="1"/>
        <pt x="244" y="6" on="1"/>
        <pt x="234" y="-43" on="1"/>
        <pt x="324" y="-61" on="0"/>
        <pt x="324" y="-119" on="1"/>
        <pt x="324" y="-162" on="0"/>
        <pt x="296" y="-182" on="1"/>
        <pt x="285" y="-190" on="0"/>
        <pt x="265" y="-199" on="1"/>
        <pt x="242" y="-203" on="0"/>
        <pt x="178" y="-206" on="1"/>
      </contour>
    </TTGlyph>
    <TTGlyph name="cedillacmb" xMin="-306" yMin="-206" xMax="-158" yMax="8">
      <component glyphName="cedilla" x="-482" y="0" flags="0x1004"/>
    </TTGlyph>
    <TTGlyph name="cent" xMin="49" yMin="-91" xMax="432" yMax="613">
      <contour>
        <pt x="63" y="120" on="1"/>
        <pt x="49" y="180" on="0"/>
        <pt x="49" y="319" on="0"/>
        <pt x="62" y="383" on="1"/>
        <pt x="69" y="413" on="0"/>
        <pt x="97" y="436" on="1"/>
        <pt x="181" y="513" on="0"/>
        <pt x="238" y="523" on="1"/>
        <pt x="238" y="613" on="1"/>
        <pt x="279" y="613" on="1"/>
        <pt x="279" y="525" on="1"/>
        <pt x="318" y="525" on="0"/>
        <pt x="402" y="509" on="0"/>
        <pt x="415" y="504" on="1"/>
        <pt x="412" y="474" on="0"/>
        <pt x="412" y="354" on="1"/>
        <pt x="382" y="354" on="1"/>
        <pt x="372" y="398" on="0"/>
        <pt x="366" y="418" on="1"/>
        <pt x="359" y="445" on="0"/>
        <pt x="279" y="454" on="1"/>
        <pt x="279" y="63" on="1"/>
        <pt x="308" y="64" on="0"/>
        <pt x="374" y="100" on="0"/>
        <pt x="392" y="117" on="1"/>
        <pt x="411" y="134" on="1"/>
        <pt x="432" y="114" on="1"/>
        <pt x="396" y="69" on="0"/>
        <pt x="334" y="14" on="0"/>
        <pt x="298" y="-5" on="0"/>
        <pt x="279" y="-10" on="1"/>
        <pt x="279" y="-91" on="1"/>
        <pt x="238" y="-91" on="1"/>
        <pt x="238" y="-14" on="1"/>
        <pt x="190" y="-14" on="0"/>
        <pt x="133" y="16" on="1"/>
        <pt x="92" y="53" on="0"/>
      </contour>
      <contour>
        <pt x="179" y="456" on="0"/>
        <pt x="138" y="380" on="0"/>
        <pt x="138" y="182" on="0"/>
        <pt x="180" y="78" on="0"/>
        <pt x="238" y="66" on="1"/>
        <pt x="238" y="456" on="1"/>
      </contour>
    </TTGlyph>
    <TTGlyph name="circumflex" xMin="126" yMin="568" xMax="374" yMax="752">
      <contour>
        <pt x="126" y="581" on="1"/>
        <pt x="199" y="687" on="0"/>
        <pt x="237" y="752" on="1"/>
        <pt x="277" y="752" on="1"/>
        <pt x="337" y="638" on="0"/>
        <pt x="374" y="583" on="1"/>
        <pt x="358" y="570" on="1"/>
        <pt x="245" y="676" on="1"/>
        <pt x="146" y="568" on="1"/>
      </contour>
    </TTGlyph>
    <TTGlyph name="circumflex.cap" xMin="-406" yMin="564" xMax="-166" yMax="705">
      <contour>
        <pt x="-406" y="582" on="1"/>
        <pt x="-355" y="636" on="0"/>
        <pt x="-304" y="705" on="1"/>
        <pt x="-264" y="705" on="1"/>
        <pt x="-221" y="642" on="0"/>
        <pt x="-166" y="583" on="1"/>
        <pt x="-185" y="566" on="1"/>
        <pt x="-288" y="634" on="1"/>
        <pt x="-388" y="564" on="1"/>
      </contour>
    </TTGlyph>
    <TTGlyph name="circumflexcmb" xMin="-347" yMin="568" xMax="-99" yMax="752">
      <component glyphName="circumflex" x="-473" y="0" flags="0x1004"/>
    </TTGlyph>
    <TTGlyph name="colon" xMin="63" yMin="-10" xMax="177" yMax="491">
      <component glyphName="period" x="0" y="0" flags="0x1004"/>
      <component glyphName="period" x="0" y="343" flags="0x1004"/>
    </TTGlyph>
    <TTGlyph name="comma" xMin="63" yMin="-114" xMax="177" yMax="148">
      <contour>
        <pt x="108" y="12" on="0"/>
        <pt x="63" y="78" on="0"/>
        <pt x="63" y="90" on="0"/>
        <pt x="72" y="104" on="1"/>
        <pt x="98" y="148" on="0"/>
        <pt x="129" y="148" on="0"/>
        <pt x="177" y="72" on="0"/>
        <pt x="177" y="12" on="0"/>
        <pt x="98" y="-114" on="0"/>
        <pt x="83" y="-114" on="1"/>
        <pt x="81" y="-114" on="0"/>
        <pt x="68" y="-103" on="0"/>
        <pt x="68" y="-97" on="0"/>
        <pt x="108" y="-36" on="0"/>
      </contour>
    </TTGlyph>
    <TTGlyph name="commaaccent" xMin="63" yMin="-114" xMax="177" yMax="148">
      <component glyphName="comma" x="0" y="0" flags="0x1004"/>
    </TTGlyph>
    <TTGlyph name="copyright" xMin="36" yMin="-18" xMax="740" yMax="686">
      <contour>
        <pt x="237" y="-18" on="0"/>
        <pt x="36" y="191" on="0"/>
        <pt x="36" y="485" on="0"/>
        <pt x="245" y="686" on="0"/>
        <pt x="536" y="686" on="0"/>
        <pt x="740" y="481" on="0"/>
        <pt x="740" y="184" on="0"/>
        <pt x="533" y="-18" on="0"/>
      </contour>
      <contour>
        <pt x="265" y="638" on="0"/>
        <pt x="85" y="465" on="0"/>
        <pt x="85" y="211" on="0"/>
        <pt x="257" y="31" on="0"/>
        <pt x="515" y="31" on="0"/>
        <pt x="692" y="207" on="0"/>
        <pt x="692" y="464" on="0"/>
        <pt x="510" y="638" on="0"/>
      </contour>
      <contour>
        <pt x="230" y="222" on="1"/>
        <pt x="219" y="273" on="0"/>
        <pt x="219" y="385" on="0"/>
        <pt x="229" y="435" on="1"/>
        <pt x="235" y="456" on="0"/>
        <pt x="238" y="459" on="1"/>
        <pt x="282" y="502" on="0"/>
        <pt x="348" y="544" on="0"/>
        <pt x="379" y="550" on="0"/>
        <pt x="470" y="550" on="0"/>
        <pt x="515" y="533" on="1"/>
        <pt x="513" y="517" on="0"/>
        <pt x="513" y="411" on="1"/>
        <pt x="488" y="411" on="1"/>
        <pt x="476" y="464" on="1"/>
        <pt x="472" y="478" on="0"/>
        <pt x="410" y="494" on="0"/>
        <pt x="324" y="494" on="0"/>
        <pt x="291" y="433" on="0"/>
        <pt x="291" y="286" on="0"/>
        <pt x="300" y="250" on="1"/>
        <pt x="311" y="220" on="0"/>
        <pt x="332" y="196" on="1"/>
        <pt x="360" y="173" on="0"/>
        <pt x="416" y="173" on="0"/>
        <pt x="476" y="203" on="0"/>
        <pt x="494" y="218" on="1"/>
        <pt x="512" y="233" on="1"/>
        <pt x="529" y="217" on="1"/>
        <pt x="439" y="119" on="1"/>
        <pt x="395" y="112" on="0"/>
        <pt x="387" y="112" on="1"/>
        <pt x="332" y="112" on="0"/>
        <pt x="287" y="138" on="1"/>
        <pt x="253" y="168" on="0"/>
      </contour>
    </TTGlyph>
    <TTGlyph name="d" xMin="30" yMin="-15" xMax="495" yMax="798">
      <contour>
        <pt x="357" y="514" on="1"/>
        <pt x="355" y="664" on="1"/>
        <pt x="355" y="696" on="0"/>
        <pt x="354" y="721" on="0"/>
        <pt x="335" y="739" on="0"/>
        <pt x="316" y="740" on="0"/>
        <pt x="285" y="741" on="1"/>
        <pt x="283" y="774" on="1"/>
        <pt x="359" y="781" on="0"/>
        <pt x="431" y="798" on="0"/>
        <pt x="434" y="798" on="1"/>
        <pt x="451" y="798" on="0"/>
        <pt x="451" y="782" on="1"/>
        <pt x="451" y="567" on="0"/>
        <pt x="444" y="172" on="0"/>
        <pt x="444" y="103" on="0"/>
        <pt x="495" y="27" on="0"/>
        <pt x="495" y="23" on="0"/>
        <pt x="478" y="16" on="0"/>
        <pt x="452" y="8" on="0"/>
        <pt x="411" y="-10" on="0"/>
        <pt x="395" y="-10" on="0"/>
        <pt x="379" y="23" on="0"/>
        <pt x="364" y="63" on="0"/>
        <pt x="359" y="68" on="1"/>
        <pt x="284" y="-15" on="0"/>
        <pt x="226" y="-15" on="1"/>
        <pt x="176" y="-15" on="0"/>
        <pt x="110" y="40" on="1"/>
        <pt x="76" y="67" on="0"/>
        <pt x="30" y="173" on="0"/>
        <pt x="30" y="297" on="0"/>
        <pt x="42" y="379" on="0"/>
        <pt x="56" y="424" on="0"/>
        <pt x="85" y="460" on="0"/>
        <pt x="100" y="472" on="0"/>
        <pt x="117" y="482" on="1"/>
        <pt x="151" y="502" on="1"/>
        <pt x="194" y="528" on="0"/>
        <pt x="297" y="528" on="0"/>
      </contour>
      <contour>
        <pt x="118" y="176" on="0"/>
        <pt x="197" y="71" on="0"/>
        <pt x="311" y="71" on="0"/>
        <pt x="358" y="116" on="1"/>
        <pt x="358" y="291" on="0"/>
        <pt x="355" y="438" on="0"/>
        <pt x="355" y="442" on="1"/>
        <pt x="308" y="470" on="0"/>
        <pt x="237" y="470" on="1"/>
        <pt x="207" y="470" on="0"/>
        <pt x="170" y="459" on="0"/>
        <pt x="152" y="440" on="1"/>
        <pt x="118" y="406" on="0"/>
      </contour>
    </TTGlyph>
    <TTGlyph name="dagger" xMin="30" yMin="-120" xMax="532" yMax="738">
      <contour>
        <pt x="30" y="475" on="1"/>
        <pt x="30" y="511" on="0"/>
        <pt x="42" y="523" on="1"/>
        <pt x="232" y="516" on="1"/>
        <pt x="224" y="559" on="0"/>
        <pt x="224" y="666" on="0"/>
        <pt x="231" y="722" on="1"/>
        <pt x="246" y="738" on="0"/>
        <pt x="285" y="738" on="1"/>
        <pt x="315" y="738" on="0"/>
        <pt x="323" y="730" on="0"/>
        <pt x="326" y="725" on="0"/>
        <pt x="328" y="725" on="1"/>
        <pt x="335" y="661" on="0"/>
        <pt x="335" y="562" on="0"/>
        <pt x="328" y="516" on="1"/>
        <pt x="530" y="523" on="1"/>
        <pt x="532" y="515" on="0"/>
        <pt x="532" y="487" on="0"/>
        <pt x="522" y="464" on="1"/>
        <pt x="328" y="467" on="1"/>
        <pt x="328" y="266" on="1"/>
        <pt x="328" y="28" on="0"/>
        <pt x="310" y="-120" on="0"/>
        <pt x="282" y="-120" on="1"/>
        <pt x="252" y="-120" on="0"/>
        <pt x="232" y="106" on="0"/>
        <pt x="232" y="458" on="1"/>
        <pt x="232" y="467" on="1"/>
        <pt x="31" y="464" on="1"/>
        <pt x="30" y="467" on="0"/>
      </contour>
    </TTGlyph>
    <TTGlyph name="daggerdbl" xMin="30" yMin="-120" xMax="532" yMax="738">
      <contour>
        <pt x="32" y="95" on="1"/>
        <pt x="30" y="105" on="0"/>
        <pt x="30" y="134" on="0"/>
        <pt x="40" y="154" on="1"/>
        <pt x="234" y="151" on="1"/>
        <pt x="224" y="230" on="0"/>
        <pt x="224" y="399" on="0"/>
        <pt x="232" y="467" on="1"/>
        <pt x="31" y="464" on="1"/>
        <pt x="30" y="467" on="0"/>
        <pt x="30" y="475" on="1"/>
        <pt x="30" y="511" on="0"/>
        <pt x="42" y="523" on="1"/>
        <pt x="232" y="516" on="1"/>
        <pt x="224" y="559" on="0"/>
        <pt x="224" y="666" on="0"/>
        <pt x="231" y="722" on="1"/>
        <pt x="247" y="738" on="0"/>
        <pt x="286" y="738" on="1"/>
        <pt x="317" y="738" on="0"/>
        <pt x="320" y="734" on="1"/>
        <pt x="326" y="726" on="0"/>
        <pt x="328" y="725" on="1"/>
        <pt x="335" y="661" on="0"/>
        <pt x="335" y="562" on="0"/>
        <pt x="328" y="516" on="1"/>
        <pt x="530" y="523" on="1"/>
        <pt x="532" y="515" on="0"/>
        <pt x="532" y="487" on="0"/>
        <pt x="522" y="464" on="1"/>
        <pt x="328" y="467" on="1"/>
        <pt x="338" y="387" on="0"/>
        <pt x="338" y="231" on="0"/>
        <pt x="330" y="151" on="1"/>
        <pt x="531" y="155" on="1"/>
        <pt x="532" y="151" on="0"/>
        <pt x="532" y="144" on="1"/>
        <pt x="532" y="109" on="0"/>
        <pt x="520" y="95" on="1"/>
        <pt x="330" y="102" on="1"/>
        <pt x="338" y="59" on="0"/>
        <pt x="338" y="-48" on="0"/>
        <pt x="331" y="-103" on="1"/>
        <pt x="316" y="-120" on="0"/>
        <pt x="276" y="-120" on="1"/>
        <pt x="248" y="-120" on="0"/>
        <pt x="239" y="-111" on="0"/>
        <pt x="236" y="-106" on="0"/>
        <pt x="234" y="-106" on="1"/>
        <pt x="227" y="-43" on="0"/>
        <pt x="227" y="56" on="0"/>
        <pt x="234" y="103" on="1"/>
      </contour>
    </TTGlyph>
    <TTGlyph name="dcaron" xMin="30" yMin="-15" xMax="654" yMax="798">
      <component glyphName="dcaron.ref1" x="0" y="0" flags="0x1004"/>
      <component glyphName="d" x="0" y="0" flags="0x1004"/>
    </TTGlyph>
    <TTGlyph name="dcaron.ref1" xMin="526" yMin="544" xMax="654" yMax="798">
      <contour>
        <pt x="526" y="710" on="1"/>
        <pt x="532" y="729" on="0"/>
        <pt x="561" y="785" on="0"/>
        <pt x="576" y="798" on="1"/>
        <pt x="630" y="769" on="0"/>
        <pt x="654" y="736" on="1"/>
        <pt x="654" y="711" on="0"/>
        <pt x="609" y="588" on="0"/>
        <pt x="568" y="544" on="1"/>
        <pt x="544" y="558" on="1"/>
        <pt x="586" y="620" on="0"/>
        <pt x="586" y="659" on="1"/>
        <pt x="586" y="687" on="0"/>
        <pt x="542" y="704" on="1"/>
      </contour>
    </TTGlyph>
    <TTGlyph name="degree" xMin="40" yMin="442" xMax="295" yMax="714">
      <contour>
        <pt x="40" y="576" on="1"/>
        <pt x="40" y="624" on="0"/>
        <pt x="67" y="658" on="1"/>
        <pt x="83" y="679" on="0"/>
        <pt x="159" y="714" on="0"/>
        <pt x="183" y="714" on="1"/>
        <pt x="229" y="714" on="0"/>
        <pt x="295" y="661" on="0"/>
        <pt x="295" y="536" on="0"/>
        <pt x="265" y="503" on="1"/>
        <pt x="259" y="495" on="0"/>
        <pt x="239" y="477" on="1"/>
        <pt x="200" y="442" on="0"/>
        <pt x="149" y="442" on="1"/>
        <pt x="111" y="442" on="0"/>
        <pt x="78" y="464" on="1"/>
        <pt x="40" y="490" on="0"/>
      </contour>
      <contour>
        <pt x="128" y="678" on="0"/>
        <pt x="92" y="638" on="0"/>
        <pt x="92" y="519" on="0"/>
        <pt x="135" y="478" on="0"/>
        <pt x="176" y="478" on="1"/>
        <pt x="190" y="478" on="0"/>
        <pt x="200" y="480" on="1"/>
        <pt x="244" y="496" on="0"/>
        <pt x="244" y="598" on="1"/>
        <pt x="244" y="678" on="0"/>
        <pt x="164" y="678" on="1"/>
      </contour>
    </TTGlyph>
    <TTGlyph name="dieresis" xMin="97" yMin="584" xMax="398" yMax="717">
      <contour>
        <pt x="138" y="584" on="0"/>
        <pt x="97" y="634" on="0"/>
        <pt x="97" y="657" on="0"/>
        <pt x="130" y="717" on="0"/>
        <pt x="166" y="717" on="0"/>
        <pt x="210" y="680" on="0"/>
        <pt x="210" y="632" on="0"/>
        <pt x="169" y="584" on="0"/>
      </contour>
      <contour>
        <pt x="325" y="584" on="0"/>
        <pt x="284" y="634" on="0"/>
        <pt x="284" y="657" on="0"/>
        <pt x="318" y="717" on="0"/>
        <pt x="354" y="717" on="0"/>
        <pt x="398" y="680" on="0"/>
        <pt x="398" y="632" on="0"/>
        <pt x="356" y="584" on="0"/>
      </contour>
    </TTGlyph>
    <TTGlyph name="dieresiscmb" xMin="-456" yMin="584" xMax="-155" yMax="717">
      <component glyphName="dieresis" x="-553" y="0" flags="0x1004"/>
    </TTGlyph>
    <TTGlyph name="dollar" xMin="84" yMin="-96" xMax="396" yMax="608">
      <contour>
        <pt x="375" y="459" on="1"/>
        <pt x="372" y="361" on="1"/>
        <pt x="335" y="361" on="1"/>
        <pt x="334" y="374" on="0"/>
        <pt x="319" y="424" on="0"/>
        <pt x="310" y="437" on="1"/>
        <pt x="295" y="460" on="0"/>
        <pt x="256" y="465" on="1"/>
        <pt x="256" y="311" on="1"/>
        <pt x="362" y="275" on="0"/>
        <pt x="384" y="221" on="1"/>
        <pt x="396" y="194" on="0"/>
        <pt x="396" y="105" on="0"/>
        <pt x="381" y="80" on="1"/>
        <pt x="349" y="29" on="0"/>
        <pt x="295" y="-6" on="0"/>
        <pt x="256" y="-13" on="1"/>
        <pt x="256" y="-96" on="1"/>
        <pt x="215" y="-96" on="1"/>
        <pt x="215" y="-17" on="1"/>
        <pt x="116" y="-16" on="0"/>
        <pt x="94" y="19" on="1"/>
        <pt x="86" y="32" on="0"/>
        <pt x="86" y="53" on="1"/>
        <pt x="86" y="134" on="0"/>
        <pt x="95" y="171" on="0"/>
        <pt x="128" y="171" on="0"/>
        <pt x="136" y="143" on="0"/>
        <pt x="143" y="94" on="0"/>
        <pt x="154" y="79" on="1"/>
        <pt x="171" y="54" on="0"/>
        <pt x="215" y="48" on="1"/>
        <pt x="215" y="216" on="1"/>
        <pt x="117" y="249" on="0"/>
        <pt x="94" y="300" on="1"/>
        <pt x="84" y="325" on="0"/>
        <pt x="84" y="406" on="0"/>
        <pt x="129" y="478" on="0"/>
        <pt x="179" y="517" on="0"/>
        <pt x="215" y="522" on="1"/>
        <pt x="215" y="608" on="1"/>
        <pt x="256" y="608" on="1"/>
        <pt x="256" y="525" on="1"/>
        <pt x="259" y="525" on="1"/>
        <pt x="302" y="525" on="0"/>
        <pt x="341" y="508" on="1"/>
        <pt x="352" y="504" on="0"/>
        <pt x="358" y="500" on="1"/>
        <pt x="375" y="489" on="0"/>
      </contour>
      <contour>
        <pt x="158" y="434" on="0"/>
        <pt x="151" y="411" on="0"/>
        <pt x="151" y="392" on="1"/>
        <pt x="151" y="355" on="0"/>
        <pt x="215" y="326" on="1"/>
        <pt x="215" y="465" on="1"/>
        <pt x="189" y="461" on="0"/>
      </contour>
      <contour>
        <pt x="256" y="48" on="1"/>
        <pt x="331" y="58" on="0"/>
        <pt x="331" y="122" on="1"/>
        <pt x="331" y="153" on="0"/>
        <pt x="292" y="189" on="0"/>
        <pt x="256" y="202" on="1"/>
      </contour>
    </TTGlyph>
    <TTGlyph name="dotaccent" xMin="191" yMin="585" xMax="304" yMax="717">
      <contour>
        <pt x="231" y="585" on="0"/>
        <pt x="191" y="634" on="0"/>
        <pt x="191" y="657" on="0"/>
        <pt x="224" y="717" on="0"/>
        <pt x="260" y="717" on="0"/>
        <pt x="304" y="680" on="0"/>
        <pt x="304" y="632" on="0"/>
        <pt x="263" y="585" on="0"/>
      </contour>
    </TTGlyph>
    <TTGlyph name="dotaccentcmb" xMin="-309" yMin="585" xMax="-196" yMax="717">
      <component glyphName="dotaccent" x="-500" y="0" flags="0x1004"/>
    </TTGlyph>
    <TTGlyph name="dotlessi" xMin="30" yMin="0" xMax="262" yMax="526">
      <contour>
        <pt x="30" y="0" on="1"/>
        <pt x="30" y="34" on="1"/>
        <pt x="81" y="38" on="0"/>
        <pt x="107" y="57" on="0"/>
        <pt x="107" y="87" on="1"/>
        <pt x="107" y="295" on="1"/>
        <pt x="107" y="382" on="0"/>
        <pt x="98" y="450" on="0"/>
        <pt x="78" y="469" on="0"/>
        <pt x="50" y="469" on="1"/>
        <pt x="35" y="469" on="1"/>
        <pt x="33" y="502" on="1"/>
        <pt x="107" y="509" on="0"/>
        <pt x="180" y="526" on="0"/>
        <pt x="183" y="526" on="1"/>
        <pt x="200" y="526" on="0"/>
        <pt x="200" y="510" on="1"/>
        <pt x="200" y="498" on="0"/>
        <pt x="199" y="444" on="1"/>
        <pt x="195" y="230" on="0"/>
        <pt x="195" y="75" on="1"/>
        <pt x="195" y="55" on="0"/>
        <pt x="227" y="36" on="0"/>
        <pt x="262" y="34" on="1"/>
        <pt x="262" y="0" on="1"/>
      </contour>
    </TTGlyph>
    <TTGlyph name="e" xMin="30" yMin="-15" xMax="437" yMax="523">
      <contour>
        <pt x="52" y="399" on="1"/>
        <pt x="68" y="436" on="0"/>
        <pt x="190" y="523" on="0"/>
        <pt x="289" y="523" on="0"/>
        <pt x="359" y="501" on="0"/>
        <pt x="399" y="458" on="0"/>
        <pt x="424" y="417" on="0"/>
        <pt x="428" y="386" on="1"/>
        <pt x="436" y="336" on="0"/>
        <pt x="436" y="310" on="1"/>
        <pt x="436" y="281" on="1"/>
        <pt x="404" y="261" on="0"/>
        <pt x="331" y="261" on="1"/>
        <pt x="126" y="261" on="1"/>
        <pt x="126" y="154" on="0"/>
        <pt x="142" y="124" on="1"/>
        <pt x="166" y="80" on="0"/>
        <pt x="202" y="69" on="1"/>
        <pt x="225" y="62" on="0"/>
        <pt x="256" y="62" on="1"/>
        <pt x="343" y="62" on="0"/>
        <pt x="415" y="133" on="1"/>
        <pt x="437" y="110" on="1"/>
        <pt x="433" y="106" on="0"/>
        <pt x="403" y="75" on="0"/>
        <pt x="393" y="65" on="0"/>
        <pt x="365" y="38" on="0"/>
        <pt x="350" y="28" on="0"/>
        <pt x="323" y="8" on="0"/>
        <pt x="304" y="0" on="0"/>
        <pt x="290" y="-6" on="1"/>
        <pt x="267" y="-15" on="0"/>
        <pt x="236" y="-15" on="1"/>
        <pt x="176" y="-15" on="0"/>
        <pt x="91" y="32" on="0"/>
        <pt x="70" y="72" on="1"/>
        <pt x="30" y="145" on="0"/>
        <pt x="30" y="347" on="0"/>
      </contour>
      <contour>
        <pt x="128" y="306" on="1"/>
        <pt x="185" y="306" on="1"/>
        <pt x="318" y="306" on="0"/>
        <pt x="343" y="324" on="1"/>
        <pt x="343" y="367" on="0"/>
        <pt x="329" y="398" on="1"/>
        <pt x="303" y="458" on="0"/>
        <pt x="171" y="458" on="0"/>
        <pt x="128" y="391" on="0"/>
      </contour>
    </TTGlyph>
    <TTGlyph name="eacute" xMin="30" yMin="-15" xMax="437" yMax="759">
      <component glyphName="acutecmb" x="500" y="0" flags="0x1004"/>
      <component glyphName="e" x="0" y="0" flags="0x1004"/>
    </TTGlyph>
    <TTGlyph name="ebreve" xMin="30" yMin="-15" xMax="437" yMax="713">
      <component glyphName="breve" x="6" y="0" flags="0x1004"/>
      <component glyphName="e" x="0" y="0" flags="0x1004"/>
    </TTGlyph>
    <TTGlyph name="ecaron" xMin="30" yMin="-15" xMax="437" yMax="750">
      <component glyphName="caron" x="8" y="0" flags="0x1004"/>
      <component glyphName="e" x="0" y="0" flags="0x1004"/>
    </TTGlyph>
    <TTGlyph name="ecircumflex" xMin="30" yMin="-15" xMax="437" yMax="752">
      <component glyphName="circumflex" x="4" y="0" flags="0x1004"/>
      <component glyphName="e" x="0" y="0" flags="0x1004"/>
    </TTGlyph>
    <TTGlyph name="edieresis" xMin="30" yMin="-15" xMax="437" yMax="717">
      <component glyphName="dieresis" x="5" y="0" flags="0x1004"/>
      <component glyphName="e" x="0" y="0" flags="0x1004"/>
    </TTGlyph>
    <TTGlyph name="edotaccent" xMin="30" yMin="-15" xMax="437" yMax="717">
      <component glyphName="dotaccent" x="0" y="0" flags="0x1004"/>
      <component glyphName="e" x="0" y="0" flags="0x1004"/>
    </TTGlyph>
    <TTGlyph name="egrave" xMin="30" yMin="-15" xMax="437" yMax="760">
      <component glyphName="gravecmb" x="449" y="0" flags="0x1004"/>
      <component glyphName="e" x="0" y="0" flags="0x1004"/>
    </TTGlyph>
    <TTGlyph name="eight" xMin="21" yMin="-17" xMax="458" yMax="776">
      <contour>
        <pt x="21" y="194" on="1"/>
        <pt x="21" y="265" on="0"/>
        <pt x="82" y="362" on="0"/>
        <pt x="154" y="403" on="1"/>
        <pt x="104" y="431" on="0"/>
        <pt x="44" y="539" on="0"/>
        <pt x="44" y="576" on="1"/>
        <pt x="44" y="662" on="0"/>
        <pt x="156" y="776" on="0"/>
        <pt x="336" y="776" on="0"/>
        <pt x="444" y="686" on="0"/>
        <pt x="444" y="619" on="1"/>
        <pt x="444" y="570" on="0"/>
        <pt x="379" y="470" on="0"/>
        <pt x="317" y="431" on="1"/>
        <pt x="351" y="414" on="1"/>
        <pt x="403" y="386" on="0"/>
        <pt x="458" y="279" on="0"/>
        <pt x="458" y="216" on="1"/>
        <pt x="458" y="122" on="0"/>
        <pt x="341" y="-17" on="0"/>
        <pt x="139" y="-17" on="0"/>
        <pt x="21" y="98" on="0"/>
      </contour>
      <contour>
        <pt x="155" y="330" on="0"/>
        <pt x="99" y="245" on="0"/>
        <pt x="99" y="130" on="0"/>
        <pt x="194" y="37" on="0"/>
        <pt x="240" y="37" on="1"/>
        <pt x="304" y="37" on="0"/>
        <pt x="373" y="131" on="0"/>
        <pt x="373" y="252" on="0"/>
        <pt x="313" y="319" on="0"/>
        <pt x="259" y="347" on="1"/>
        <pt x="219" y="368" on="1"/>
      </contour>
      <contour>
        <pt x="194" y="725" on="0"/>
        <pt x="134" y="672" on="0"/>
        <pt x="134" y="579" on="0"/>
        <pt x="203" y="489" on="0"/>
        <pt x="259" y="463" on="1"/>
        <pt x="310" y="486" on="0"/>
        <pt x="366" y="558" on="0"/>
        <pt x="366" y="659" on="0"/>
        <pt x="302" y="725" on="0"/>
      </contour>
    </TTGlyph>
    <TTGlyph name="ellipsis" xMin="63" yMin="-20" xMax="657" yMax="138">
      <component glyphName="period" x="480" y="-10" flags="0x1004"/>
      <component glyphName="period" x="240" y="-10" flags="0x1004"/>
      <component glyphName="period" x="0" y="-10" flags="0x1004"/>
    </TTGlyph>
    <TTGlyph name="emacron" xMin="30" yMin="-15" xMax="437" yMax="663">
      <component glyphName="macron" x="-3" y="0" flags="0x1004"/>
      <component glyphName="e" x="0" y="0" flags="0x1004"/>
    </TTGlyph>
    <TTGlyph name="emdash" xMin="26" yMin="250" xMax="974" yMax="316">
      <contour>
        <pt x="26" y="250" on="1"/>
        <pt x="40" y="316" on="1"/>
        <pt x="962" y="316" on="1"/>
        <pt x="974" y="305" on="1"/>
        <pt x="961" y="250" on="1"/>
      </contour>
    </TTGlyph>
    <TTGlyph name="endash" xMin="26" yMin="250" xMax="474" yMax="316">
      <contour>
        <pt x="26" y="250" on="1"/>
        <pt x="40" y="316" on="1"/>
        <pt x="462" y="316" on="1"/>
        <pt x="474" y="305" on="1"/>
        <pt x="461" y="250" on="1"/>
      </contour>
    </TTGlyph>
    <TTGlyph name="equal" xMin="4" yMin="172" xMax="476" yMax="394">
      <contour>
        <pt x="4" y="172" on="1"/>
        <pt x="18" y="238" on="1"/>
        <pt x="464" y="238" on="1"/>
        <pt x="476" y="227" on="1"/>
        <pt x="462" y="172" on="1"/>
      </contour>
      <contour>
        <pt x="4" y="328" on="1"/>
        <pt x="18" y="394" on="1"/>
        <pt x="464" y="394" on="1"/>
        <pt x="476" y="383" on="1"/>
        <pt x="462" y="328" on="1"/>
      </contour>
    </TTGlyph>
    <TTGlyph name="exclam" xMin="56" yMin="-10" xMax="183" yMax="759">
      <component glyphName="exclam.ref1" x="0" y="0" flags="0x1004"/>
      <component glyphName="period" x="-7" y="0" flags="0x1004"/>
    </TTGlyph>
    <TTGlyph name="exclam.ref1" xMin="69" yMin="196" xMax="183" yMax="759">
      <contour>
        <pt x="69" y="742" on="1"/>
        <pt x="140" y="752" on="0"/>
        <pt x="171" y="759" on="1"/>
        <pt x="183" y="748" on="1"/>
        <pt x="146" y="286" on="0"/>
        <pt x="129" y="196" on="1"/>
        <pt x="96" y="202" on="1"/>
        <pt x="91" y="286" on="1"/>
        <pt x="69" y="676" on="0"/>
      </contour>
    </TTGlyph>
    <TTGlyph name="exclamdown" xMin="56" yMin="-10" xMax="183" yMax="759">
      <contour>
        <pt x="56" y="1" on="1"/>
        <pt x="93" y="463" on="0"/>
        <pt x="110" y="553" on="1"/>
        <pt x="143" y="547" on="1"/>
        <pt x="148" y="463" on="1"/>
        <pt x="170" y="72" on="0"/>
        <pt x="170" y="7" on="1"/>
        <pt x="99" y="-3" on="0"/>
        <pt x="68" y="-10" on="1"/>
      </contour>
      <contour>
        <pt x="114" y="601" on="0"/>
        <pt x="69" y="675" on="0"/>
        <pt x="69" y="705" on="0"/>
        <pt x="118" y="759" on="0"/>
        <pt x="135" y="759" on="1"/>
        <pt x="149" y="759" on="0"/>
        <pt x="183" y="676" on="0"/>
        <pt x="183" y="653" on="0"/>
        <pt x="148" y="601" on="0"/>
      </contour>
    </TTGlyph>
    <TTGlyph name="f" xMin="30" yMin="0" xMax="425" yMax="798">
      <contour>
        <pt x="425" y="685" on="1"/>
        <pt x="424" y="648" on="1"/>
        <pt x="381" y="647" on="1"/>
        <pt x="360" y="761" on="0"/>
        <pt x="318" y="761" on="1"/>
        <pt x="282" y="761" on="0"/>
        <pt x="219" y="607" on="0"/>
        <pt x="219" y="519" on="1"/>
        <pt x="219" y="504" on="1"/>
        <pt x="353" y="504" on="1"/>
        <pt x="350" y="448" on="1"/>
        <pt x="219" y="448" on="1"/>
        <pt x="215" y="238" on="0"/>
        <pt x="215" y="86" on="0"/>
        <pt x="217" y="71" on="0"/>
        <pt x="219" y="59" on="0"/>
        <pt x="229" y="52" on="0"/>
        <pt x="236" y="47" on="0"/>
        <pt x="258" y="43" on="0"/>
        <pt x="274" y="39" on="0"/>
        <pt x="311" y="34" on="0"/>
        <pt x="326" y="31" on="1"/>
        <pt x="326" y="0" on="1"/>
        <pt x="46" y="0" on="1"/>
        <pt x="46" y="34" on="1"/>
        <pt x="82" y="39" on="0"/>
        <pt x="100" y="42" on="0"/>
        <pt x="124" y="58" on="0"/>
        <pt x="126" y="78" on="0"/>
        <pt x="126" y="172" on="0"/>
        <pt x="120" y="448" on="1"/>
        <pt x="30" y="448" on="1"/>
        <pt x="30" y="482" on="1"/>
        <pt x="119" y="497" on="1"/>
        <pt x="119" y="618" on="0"/>
        <pt x="235" y="798" on="0"/>
        <pt x="344" y="798" on="1"/>
        <pt x="393" y="798" on="0"/>
        <pt x="425" y="745" on="0"/>
      </contour>
    </TTGlyph>
    <TTGlyph name="f_f" xMin="30" yMin="0" xMax="744" yMax="798">
      <contour>
        <pt x="744" y="685" on="1"/>
        <pt x="743" y="648" on="1"/>
        <pt x="700" y="647" on="1"/>
        <pt x="679" y="761" on="0"/>
        <pt x="637" y="761" on="1"/>
        <pt x="601" y="761" on="0"/>
        <pt x="538" y="607" on="0"/>
        <pt x="538" y="519" on="1"/>
        <pt x="538" y="504" on="1"/>
        <pt x="672" y="504" on="1"/>
        <pt x="669" y="448" on="1"/>
        <pt x="538" y="448" on="1"/>
        <pt x="534" y="238" on="0"/>
        <pt x="534" y="86" on="0"/>
        <pt x="536" y="71" on="0"/>
        <pt x="538" y="59" on="0"/>
        <pt x="548" y="52" on="0"/>
        <pt x="555" y="47" on="0"/>
        <pt x="577" y="43" on="0"/>
        <pt x="593" y="39" on="0"/>
        <pt x="630" y="34" on="0"/>
        <pt x="645" y="31" on="1"/>
        <pt x="645" y="0" on="1"/>
        <pt x="365" y="0" on="1"/>
        <pt x="365" y="34" on="1"/>
        <pt x="401" y="39" on="0"/>
        <pt x="419" y="42" on="0"/>
        <pt x="443" y="58" on="0"/>
        <pt x="445" y="78" on="0"/>
        <pt x="445" y="172" on="0"/>
        <pt x="439" y="448" on="1"/>
        <pt x="219" y="448" on="1"/>
        <pt x="215" y="238" on="0"/>
        <pt x="215" y="86" on="0"/>
        <pt x="217" y="71" on="0"/>
        <pt x="219" y="59" on="0"/>
        <pt x="229" y="52" on="0"/>
        <pt x="236" y="47" on="0"/>
        <pt x="258" y="43" on="0"/>
        <pt x="274" y="39" on="0"/>
        <pt x="311" y="34" on="0"/>
        <pt x="326" y="31" on="1"/>
        <pt x="326" y="0" on="1"/>
        <pt x="46" y="0" on="1"/>
        <pt x="46" y="34" on="1"/>
        <pt x="82" y="39" on="0"/>
        <pt x="100" y="42" on="0"/>
        <pt x="124" y="58" on="0"/>
        <pt x="126" y="78" on="0"/>
        <pt x="126" y="172" on="0"/>
        <pt x="120" y="448" on="1"/>
        <pt x="30" y="448" on="1"/>
        <pt x="30" y="482" on="1"/>
        <pt x="119" y="497" on="1"/>
        <pt x="119" y="618" on="0"/>
        <pt x="235" y="798" on="0"/>
        <pt x="344" y="798" on="1"/>
        <pt x="393" y="798" on="0"/>
        <pt x="425" y="745" on="0"/>
        <pt x="425" y="685" on="1"/>
        <pt x="424" y="648" on="1"/>
        <pt x="381" y="647" on="1"/>
        <pt x="360" y="761" on="0"/>
        <pt x="318" y="761" on="1"/>
        <pt x="282" y="761" on="0"/>
        <pt x="219" y="607" on="0"/>
        <pt x="219" y="519" on="1"/>
        <pt x="219" y="504" on="1"/>
        <pt x="438" y="504" on="1"/>
        <pt x="440" y="671" on="0"/>
        <pt x="538" y="754" on="1"/>
        <pt x="590" y="798" on="0"/>
        <pt x="663" y="798" on="1"/>
        <pt x="712" y="798" on="0"/>
        <pt x="744" y="745" on="0"/>
      </contour>
    </TTGlyph>
    <TTGlyph name="f_f_i" xMin="30" yMin="0" xMax="899" yMax="799">
      <contour>
        <pt x="703" y="449" on="1"/>
        <pt x="636" y="448" on="1"/>
        <pt x="538" y="448" on="1"/>
        <pt x="534" y="238" on="0"/>
        <pt x="534" y="86" on="0"/>
        <pt x="536" y="71" on="0"/>
        <pt x="538" y="59" on="0"/>
        <pt x="548" y="52" on="0"/>
        <pt x="555" y="47" on="0"/>
        <pt x="577" y="43" on="0"/>
        <pt x="593" y="39" on="0"/>
        <pt x="630" y="34" on="0"/>
        <pt x="645" y="31" on="1"/>
        <pt x="645" y="0" on="1"/>
        <pt x="365" y="0" on="1"/>
        <pt x="365" y="34" on="1"/>
        <pt x="401" y="39" on="0"/>
        <pt x="419" y="42" on="0"/>
        <pt x="443" y="58" on="0"/>
        <pt x="445" y="78" on="0"/>
        <pt x="445" y="172" on="0"/>
        <pt x="439" y="448" on="1"/>
        <pt x="219" y="448" on="1"/>
        <pt x="215" y="238" on="0"/>
        <pt x="215" y="86" on="0"/>
        <pt x="217" y="71" on="0"/>
        <pt x="219" y="59" on="0"/>
        <pt x="229" y="52" on="0"/>
        <pt x="236" y="47" on="0"/>
        <pt x="258" y="43" on="0"/>
        <pt x="274" y="39" on="0"/>
        <pt x="311" y="34" on="0"/>
        <pt x="326" y="31" on="1"/>
        <pt x="326" y="0" on="1"/>
        <pt x="46" y="0" on="1"/>
        <pt x="46" y="34" on="1"/>
        <pt x="82" y="39" on="0"/>
        <pt x="100" y="42" on="0"/>
        <pt x="124" y="58" on="0"/>
        <pt x="126" y="78" on="0"/>
        <pt x="126" y="172" on="0"/>
        <pt x="120" y="448" on="1"/>
        <pt x="30" y="448" on="1"/>
        <pt x="30" y="482" on="1"/>
        <pt x="119" y="497" on="1"/>
        <pt x="119" y="618" on="0"/>
        <pt x="235" y="798" on="0"/>
        <pt x="344" y="798" on="1"/>
        <pt x="393" y="798" on="0"/>
        <pt x="425" y="745" on="0"/>
        <pt x="425" y="685" on="1"/>
        <pt x="424" y="648" on="1"/>
        <pt x="381" y="647" on="1"/>
        <pt x="360" y="761" on="0"/>
        <pt x="318" y="761" on="1"/>
        <pt x="282" y="761" on="0"/>
        <pt x="219" y="607" on="0"/>
        <pt x="219" y="519" on="1"/>
        <pt x="219" y="504" on="1"/>
        <pt x="438" y="504" on="1"/>
        <pt x="442" y="799" on="0"/>
        <pt x="693" y="799" on="1"/>
        <pt x="760" y="799" on="0"/>
        <pt x="798" y="760" on="0"/>
        <pt x="798" y="709" on="1"/>
        <pt x="797" y="649" on="1"/>
        <pt x="754" y="645" on="1"/>
        <pt x="732" y="763" on="0"/>
        <pt x="669" y="763" on="1"/>
        <pt x="618" y="763" on="0"/>
        <pt x="553" y="660" on="0"/>
        <pt x="543" y="598" on="1"/>
        <pt x="538" y="567" on="0"/>
        <pt x="538" y="504" on="1"/>
        <pt x="659" y="504" on="1"/>
        <pt x="713" y="504" on="0"/>
        <pt x="817" y="526" on="0"/>
        <pt x="820" y="526" on="1"/>
        <pt x="837" y="526" on="0"/>
        <pt x="837" y="510" on="1"/>
        <pt x="837" y="498" on="0"/>
        <pt x="836" y="444" on="1"/>
        <pt x="832" y="320" on="0"/>
        <pt x="832" y="75" on="1"/>
        <pt x="832" y="55" on="0"/>
        <pt x="864" y="36" on="0"/>
        <pt x="899" y="34" on="1"/>
        <pt x="899" y="0" on="1"/>
        <pt x="667" y="0" on="1"/>
        <pt x="667" y="34" on="1"/>
        <pt x="718" y="38" on="0"/>
        <pt x="744" y="57" on="0"/>
        <pt x="744" y="87" on="1"/>
        <pt x="744" y="295" on="1"/>
        <pt x="744" y="403" on="0"/>
        <pt x="736" y="449" on="0"/>
        <pt x="715" y="449" on="1"/>
      </contour>
    </TTGlyph>
    <TTGlyph name="f_f_l" xMin="30" yMin="0" xMax="909" yMax="798">
      <contour>
        <pt x="751" y="138" on="1"/>
        <pt x="754" y="652" on="1"/>
        <pt x="754" y="724" on="0"/>
        <pt x="718" y="763" on="0"/>
        <pt x="635" y="763" on="0"/>
        <pt x="581" y="715" on="0"/>
        <pt x="566" y="676" on="1"/>
        <pt x="538" y="601" on="0"/>
        <pt x="538" y="519" on="1"/>
        <pt x="538" y="504" on="1"/>
        <pt x="672" y="504" on="1"/>
        <pt x="669" y="448" on="1"/>
        <pt x="538" y="448" on="1"/>
        <pt x="535" y="290" on="0"/>
        <pt x="535" y="86" on="0"/>
        <pt x="537" y="71" on="0"/>
        <pt x="539" y="59" on="0"/>
        <pt x="549" y="52" on="0"/>
        <pt x="556" y="47" on="0"/>
        <pt x="577" y="43" on="0"/>
        <pt x="593" y="39" on="0"/>
        <pt x="630" y="34" on="0"/>
        <pt x="645" y="31" on="1"/>
        <pt x="645" y="0" on="1"/>
        <pt x="365" y="0" on="1"/>
        <pt x="365" y="34" on="1"/>
        <pt x="401" y="39" on="0"/>
        <pt x="419" y="42" on="0"/>
        <pt x="443" y="58" on="0"/>
        <pt x="445" y="78" on="0"/>
        <pt x="445" y="172" on="0"/>
        <pt x="439" y="448" on="1"/>
        <pt x="219" y="448" on="1"/>
        <pt x="215" y="238" on="0"/>
        <pt x="215" y="86" on="0"/>
        <pt x="217" y="71" on="0"/>
        <pt x="219" y="59" on="0"/>
        <pt x="229" y="52" on="0"/>
        <pt x="236" y="47" on="0"/>
        <pt x="258" y="43" on="0"/>
        <pt x="274" y="39" on="0"/>
        <pt x="311" y="34" on="0"/>
        <pt x="326" y="31" on="1"/>
        <pt x="326" y="0" on="1"/>
        <pt x="46" y="0" on="1"/>
        <pt x="46" y="34" on="1"/>
        <pt x="82" y="39" on="0"/>
        <pt x="100" y="42" on="0"/>
        <pt x="124" y="58" on="0"/>
        <pt x="126" y="78" on="0"/>
        <pt x="126" y="172" on="0"/>
        <pt x="120" y="448" on="1"/>
        <pt x="30" y="448" on="1"/>
        <pt x="30" y="482" on="1"/>
        <pt x="119" y="497" on="1"/>
        <pt x="119" y="618" on="0"/>
        <pt x="235" y="798" on="0"/>
        <pt x="344" y="798" on="1"/>
        <pt x="393" y="798" on="0"/>
        <pt x="425" y="745" on="0"/>
        <pt x="425" y="685" on="1"/>
        <pt x="424" y="648" on="1"/>
        <pt x="381" y="647" on="1"/>
        <pt x="360" y="761" on="0"/>
        <pt x="318" y="761" on="1"/>
        <pt x="282" y="761" on="0"/>
        <pt x="219" y="607" on="0"/>
        <pt x="219" y="519" on="1"/>
        <pt x="219" y="504" on="1"/>
        <pt x="438" y="504" on="1"/>
        <pt x="440" y="671" on="0"/>
        <pt x="538" y="754" on="1"/>
        <pt x="590" y="798" on="0"/>
        <pt x="663" y="798" on="1"/>
        <pt x="827" y="798" on="1"/>
        <pt x="843" y="798" on="0"/>
        <pt x="843" y="783" on="1"/>
        <pt x="845" y="702" on="0"/>
        <pt x="845" y="448" on="0"/>
        <pt x="835" y="169" on="0"/>
        <pt x="835" y="57" on="0"/>
        <pt x="858" y="40" on="0"/>
        <pt x="909" y="34" on="1"/>
        <pt x="909" y="0" on="1"/>
        <pt x="673" y="0" on="1"/>
        <pt x="673" y="34" on="1"/>
        <pt x="681" y="35" on="0"/>
        <pt x="707" y="40" on="0"/>
        <pt x="715" y="41" on="0"/>
        <pt x="733" y="47" on="0"/>
        <pt x="737" y="51" on="0"/>
        <pt x="746" y="63" on="0"/>
        <pt x="747" y="74" on="0"/>
        <pt x="751" y="96" on="0"/>
        <pt x="751" y="108" on="1"/>
      </contour>
    </TTGlyph>
    <TTGlyph name="f_f_t" xMin="30" yMin="-15" xMax="987" yMax="798">
      <contour>
        <pt x="756" y="188" on="1"/>
        <pt x="759" y="448" on="1"/>
        <pt x="538" y="448" on="1"/>
        <pt x="534" y="238" on="0"/>
        <pt x="534" y="86" on="0"/>
        <pt x="536" y="71" on="0"/>
        <pt x="538" y="59" on="0"/>
        <pt x="548" y="52" on="0"/>
        <pt x="555" y="47" on="0"/>
        <pt x="577" y="43" on="0"/>
        <pt x="593" y="39" on="0"/>
        <pt x="630" y="34" on="0"/>
        <pt x="645" y="31" on="1"/>
        <pt x="645" y="0" on="1"/>
        <pt x="365" y="0" on="1"/>
        <pt x="365" y="34" on="1"/>
        <pt x="401" y="39" on="0"/>
        <pt x="419" y="42" on="0"/>
        <pt x="443" y="58" on="0"/>
        <pt x="445" y="78" on="0"/>
        <pt x="445" y="172" on="0"/>
        <pt x="439" y="448" on="1"/>
        <pt x="219" y="448" on="1"/>
        <pt x="215" y="238" on="0"/>
        <pt x="215" y="86" on="0"/>
        <pt x="217" y="71" on="0"/>
        <pt x="219" y="59" on="0"/>
        <pt x="229" y="52" on="0"/>
        <pt x="236" y="47" on="0"/>
        <pt x="258" y="43" on="0"/>
        <pt x="274" y="39" on="0"/>
        <pt x="311" y="34" on="0"/>
        <pt x="326" y="31" on="1"/>
        <pt x="326" y="0" on="1"/>
        <pt x="46" y="0" on="1"/>
        <pt x="46" y="34" on="1"/>
        <pt x="82" y="39" on="0"/>
        <pt x="100" y="42" on="0"/>
        <pt x="124" y="58" on="0"/>
        <pt x="126" y="78" on="0"/>
        <pt x="126" y="172" on="0"/>
        <pt x="120" y="448" on="1"/>
        <pt x="30" y="448" on="1"/>
        <pt x="30" y="482" on="1"/>
        <pt x="119" y="497" on="1"/>
        <pt x="119" y="618" on="0"/>
        <pt x="235" y="798" on="0"/>
        <pt x="344" y="798" on="1"/>
        <pt x="393" y="798" on="0"/>
        <pt x="425" y="745" on="0"/>
        <pt x="425" y="685" on="1"/>
        <pt x="424" y="648" on="1"/>
        <pt x="381" y="647" on="1"/>
        <pt x="360" y="761" on="0"/>
        <pt x="318" y="761" on="1"/>
        <pt x="282" y="761" on="0"/>
        <pt x="219" y="607" on="0"/>
        <pt x="219" y="519" on="1"/>
        <pt x="219" y="504" on="1"/>
        <pt x="438" y="504" on="1"/>
        <pt x="438" y="671" on="0"/>
        <pt x="536" y="754" on="1"/>
        <pt x="589" y="798" on="0"/>
        <pt x="663" y="798" on="1"/>
        <pt x="712" y="798" on="0"/>
        <pt x="744" y="745" on="0"/>
        <pt x="744" y="685" on="1"/>
        <pt x="743" y="648" on="1"/>
        <pt x="700" y="647" on="1"/>
        <pt x="679" y="761" on="0"/>
        <pt x="637" y="761" on="1"/>
        <pt x="601" y="761" on="0"/>
        <pt x="538" y="607" on="0"/>
        <pt x="538" y="519" on="1"/>
        <pt x="538" y="504" on="1"/>
        <pt x="759" y="504" on="1"/>
        <pt x="759" y="587" on="1"/>
        <pt x="836" y="611" on="1"/>
        <pt x="851" y="611" on="0"/>
        <pt x="851" y="596" on="1"/>
        <pt x="849" y="535" on="1"/>
        <pt x="849" y="504" on="1"/>
        <pt x="976" y="504" on="1"/>
        <pt x="973" y="448" on="1"/>
        <pt x="849" y="448" on="1"/>
        <pt x="846" y="201" on="1"/>
        <pt x="846" y="124" on="0"/>
        <pt x="865" y="56" on="0"/>
        <pt x="917" y="56" on="0"/>
        <pt x="966" y="85" on="1"/>
        <pt x="987" y="65" on="1"/>
        <pt x="910" y="-15" on="0"/>
        <pt x="861" y="-15" on="1"/>
        <pt x="796" y="-15" on="0"/>
        <pt x="756" y="73" on="0"/>
      </contour>
    </TTGlyph>
    <TTGlyph name="f_i" xMin="30" yMin="0" xMax="580" yMax="799">
      <contour>
        <pt x="384" y="449" on="1"/>
        <pt x="317" y="448" on="1"/>
        <pt x="219" y="448" on="1"/>
        <pt x="215" y="238" on="0"/>
        <pt x="215" y="86" on="0"/>
        <pt x="217" y="71" on="0"/>
        <pt x="219" y="59" on="0"/>
        <pt x="229" y="52" on="0"/>
        <pt x="236" y="47" on="0"/>
        <pt x="258" y="43" on="0"/>
        <pt x="274" y="39" on="0"/>
        <pt x="311" y="34" on="0"/>
        <pt x="326" y="31" on="1"/>
        <pt x="326" y="0" on="1"/>
        <pt x="46" y="0" on="1"/>
        <pt x="46" y="34" on="1"/>
        <pt x="82" y="39" on="0"/>
        <pt x="100" y="42" on="0"/>
        <pt x="124" y="58" on="0"/>
        <pt x="126" y="78" on="0"/>
        <pt x="126" y="172" on="0"/>
        <pt x="120" y="448" on="1"/>
        <pt x="30" y="448" on="1"/>
        <pt x="30" y="482" on="1"/>
        <pt x="119" y="497" on="1"/>
        <pt x="119" y="799" on="0"/>
        <pt x="374" y="799" on="1"/>
        <pt x="441" y="799" on="0"/>
        <pt x="479" y="760" on="0"/>
        <pt x="479" y="709" on="1"/>
        <pt x="478" y="649" on="1"/>
        <pt x="435" y="645" on="1"/>
        <pt x="413" y="763" on="0"/>
        <pt x="350" y="763" on="1"/>
        <pt x="299" y="763" on="0"/>
        <pt x="234" y="660" on="0"/>
        <pt x="224" y="598" on="1"/>
        <pt x="219" y="567" on="0"/>
        <pt x="219" y="504" on="1"/>
        <pt x="340" y="504" on="1"/>
        <pt x="394" y="504" on="0"/>
        <pt x="498" y="526" on="0"/>
        <pt x="501" y="526" on="1"/>
        <pt x="518" y="526" on="0"/>
        <pt x="518" y="510" on="1"/>
        <pt x="518" y="498" on="0"/>
        <pt x="517" y="444" on="1"/>
        <pt x="513" y="230" on="0"/>
        <pt x="513" y="75" on="1"/>
        <pt x="513" y="55" on="0"/>
        <pt x="545" y="36" on="0"/>
        <pt x="580" y="34" on="1"/>
        <pt x="580" y="0" on="1"/>
        <pt x="348" y="0" on="1"/>
        <pt x="348" y="34" on="1"/>
        <pt x="399" y="38" on="0"/>
        <pt x="425" y="57" on="0"/>
        <pt x="425" y="87" on="1"/>
        <pt x="425" y="295" on="1"/>
        <pt x="425" y="403" on="0"/>
        <pt x="417" y="449" on="0"/>
        <pt x="396" y="449" on="1"/>
      </contour>
    </TTGlyph>
    <TTGlyph name="f_l" xMin="30" yMin="0" xMax="590" yMax="798">
      <contour>
        <pt x="432" y="138" on="1"/>
        <pt x="435" y="652" on="1"/>
        <pt x="435" y="724" on="0"/>
        <pt x="399" y="763" on="0"/>
        <pt x="316" y="763" on="0"/>
        <pt x="262" y="715" on="0"/>
        <pt x="248" y="676" on="1"/>
        <pt x="219" y="601" on="0"/>
        <pt x="219" y="519" on="1"/>
        <pt x="219" y="504" on="1"/>
        <pt x="353" y="504" on="1"/>
        <pt x="350" y="448" on="1"/>
        <pt x="219" y="448" on="1"/>
        <pt x="216" y="290" on="0"/>
        <pt x="216" y="86" on="0"/>
        <pt x="218" y="71" on="0"/>
        <pt x="220" y="59" on="0"/>
        <pt x="230" y="52" on="0"/>
        <pt x="237" y="47" on="0"/>
        <pt x="258" y="43" on="0"/>
        <pt x="274" y="39" on="0"/>
        <pt x="311" y="34" on="0"/>
        <pt x="326" y="31" on="1"/>
        <pt x="326" y="0" on="1"/>
        <pt x="46" y="0" on="1"/>
        <pt x="46" y="34" on="1"/>
        <pt x="82" y="39" on="0"/>
        <pt x="100" y="42" on="0"/>
        <pt x="124" y="58" on="0"/>
        <pt x="126" y="78" on="0"/>
        <pt x="126" y="172" on="0"/>
        <pt x="120" y="448" on="1"/>
        <pt x="30" y="448" on="1"/>
        <pt x="30" y="482" on="1"/>
        <pt x="119" y="497" on="1"/>
        <pt x="119" y="618" on="0"/>
        <pt x="235" y="798" on="0"/>
        <pt x="344" y="798" on="1"/>
        <pt x="508" y="798" on="1"/>
        <pt x="524" y="798" on="0"/>
        <pt x="524" y="783" on="1"/>
        <pt x="526" y="702" on="0"/>
        <pt x="526" y="448" on="0"/>
        <pt x="516" y="169" on="0"/>
        <pt x="516" y="57" on="0"/>
        <pt x="539" y="40" on="0"/>
        <pt x="590" y="34" on="1"/>
        <pt x="590" y="0" on="1"/>
        <pt x="354" y="0" on="1"/>
        <pt x="354" y="34" on="1"/>
        <pt x="362" y="35" on="0"/>
        <pt x="388" y="40" on="0"/>
        <pt x="396" y="41" on="0"/>
        <pt x="414" y="47" on="0"/>
        <pt x="418" y="51" on="0"/>
        <pt x="427" y="63" on="0"/>
        <pt x="428" y="74" on="0"/>
        <pt x="432" y="96" on="0"/>
        <pt x="432" y="108" on="1"/>
      </contour>
    </TTGlyph>
    <TTGlyph name="f_t" xMin="30" yMin="-15" xMax="668" yMax="798">
      <contour>
        <pt x="437" y="188" on="1"/>
        <pt x="440" y="448" on="1"/>
        <pt x="219" y="448" on="1"/>
        <pt x="215" y="238" on="0"/>
        <pt x="215" y="86" on="0"/>
        <pt x="217" y="71" on="0"/>
        <pt x="219" y="59" on="0"/>
        <pt x="229" y="52" on="0"/>
        <pt x="236" y="47" on="0"/>
        <pt x="258" y="43" on="0"/>
        <pt x="274" y="39" on="0"/>
        <pt x="311" y="34" on="0"/>
        <pt x="326" y="31" on="1"/>
        <pt x="326" y="0" on="1"/>
        <pt x="46" y="0" on="1"/>
        <pt x="46" y="34" on="1"/>
        <pt x="82" y="39" on="0"/>
        <pt x="100" y="42" on="0"/>
        <pt x="124" y="58" on="0"/>
        <pt x="126" y="78" on="0"/>
        <pt x="126" y="172" on="0"/>
        <pt x="120" y="448" on="1"/>
        <pt x="30" y="448" on="1"/>
        <pt x="30" y="482" on="1"/>
        <pt x="119" y="497" on="1"/>
        <pt x="119" y="618" on="0"/>
        <pt x="235" y="798" on="0"/>
        <pt x="344" y="798" on="1"/>
        <pt x="393" y="798" on="0"/>
        <pt x="425" y="745" on="0"/>
        <pt x="425" y="685" on="1"/>
        <pt x="424" y="648" on="1"/>
        <pt x="381" y="647" on="1"/>
        <pt x="360" y="761" on="0"/>
        <pt x="318" y="761" on="1"/>
        <pt x="282" y="761" on="0"/>
        <pt x="219" y="607" on="0"/>
        <pt x="219" y="519" on="1"/>
        <pt x="219" y="504" on="1"/>
        <pt x="440" y="504" on="1"/>
        <pt x="440" y="587" on="1"/>
        <pt x="517" y="611" on="1"/>
        <pt x="532" y="611" on="0"/>
        <pt x="532" y="596" on="1"/>
        <pt x="530" y="535" on="1"/>
        <pt x="530" y="504" on="1"/>
        <pt x="657" y="504" on="1"/>
        <pt x="654" y="448" on="1"/>
        <pt x="530" y="448" on="1"/>
        <pt x="527" y="201" on="1"/>
        <pt x="527" y="124" on="0"/>
        <pt x="546" y="56" on="0"/>
        <pt x="598" y="56" on="0"/>
        <pt x="647" y="85" on="1"/>
        <pt x="668" y="65" on="1"/>
        <pt x="591" y="-15" on="0"/>
        <pt x="542" y="-15" on="1"/>
        <pt x="477" y="-15" on="0"/>
        <pt x="437" y="73" on="0"/>
      </contour>
    </TTGlyph>
    <TTGlyph name="figuredash" xMin="26" yMin="250" xMax="454" yMax="316">
      <contour>
        <pt x="26" y="250" on="1"/>
        <pt x="40" y="316" on="1"/>
        <pt x="442" y="316" on="1"/>
        <pt x="454" y="305" on="1"/>
        <pt x="441" y="250" on="1"/>
      </contour>
    </TTGlyph>
    <TTGlyph name="five" xMin="22" yMin="-203" xMax="409" yMax="512">
      <contour>
        <pt x="22" y="-157" on="1"/>
        <pt x="27" y="-149" on="1"/>
        <pt x="47" y="-152" on="0"/>
        <pt x="65" y="-152" on="1"/>
        <pt x="162" y="-152" on="0"/>
        <pt x="309" y="-38" on="0"/>
        <pt x="309" y="36" on="1"/>
        <pt x="309" y="138" on="0"/>
        <pt x="264" y="164" on="1"/>
        <pt x="239" y="177" on="0"/>
        <pt x="193" y="184" on="0"/>
        <pt x="152" y="184" on="1"/>
        <pt x="96" y="184" on="1"/>
        <pt x="75" y="202" on="1"/>
        <pt x="117" y="464" on="0"/>
        <pt x="121" y="496" on="1"/>
        <pt x="135" y="510" on="1"/>
        <pt x="161" y="508" on="0"/>
        <pt x="289" y="508" on="0"/>
        <pt x="390" y="512" on="1"/>
        <pt x="402" y="501" on="1"/>
        <pt x="396" y="472" on="0"/>
        <pt x="396" y="423" on="1"/>
        <pt x="242" y="425" on="0"/>
        <pt x="219" y="425" on="0"/>
        <pt x="159" y="423" on="1"/>
        <pt x="141" y="342" on="0"/>
        <pt x="137" y="268" on="1"/>
        <pt x="166" y="271" on="0"/>
        <pt x="210" y="271" on="1"/>
        <pt x="289" y="271" on="0"/>
        <pt x="409" y="180" on="0"/>
        <pt x="409" y="92" on="1"/>
        <pt x="409" y="-44" on="0"/>
        <pt x="201" y="-203" on="0"/>
        <pt x="45" y="-203" on="1"/>
      </contour>
    </TTGlyph>
    <TTGlyph name="four" xMin="-3" yMin="-212" xMax="484" yMax="526">
      <contour>
        <pt x="-3" y="46" on="1"/>
        <pt x="68" y="182" on="1"/>
        <pt x="123" y="279" on="0"/>
        <pt x="251" y="482" on="0"/>
        <pt x="278" y="515" on="1"/>
        <pt x="286" y="518" on="0"/>
        <pt x="345" y="526" on="0"/>
        <pt x="362" y="526" on="1"/>
        <pt x="369" y="518" on="1"/>
        <pt x="369" y="77" on="1"/>
        <pt x="401" y="77" on="0"/>
        <pt x="476" y="82" on="1"/>
        <pt x="480" y="79" on="0"/>
        <pt x="484" y="75" on="1"/>
        <pt x="481" y="48" on="0"/>
        <pt x="466" y="0" on="1"/>
        <pt x="444" y="0" on="1"/>
        <pt x="396" y="0" on="0"/>
        <pt x="369" y="-2" on="1"/>
        <pt x="375" y="-192" on="1"/>
        <pt x="334" y="-194" on="0"/>
        <pt x="287" y="-207" on="1"/>
        <pt x="274" y="-212" on="1"/>
        <pt x="277" y="-117" on="0"/>
        <pt x="278" y="-3" on="1"/>
        <pt x="70" y="-3" on="0"/>
        <pt x="21" y="0" on="1"/>
      </contour>
      <contour>
        <pt x="82" y="89" on="1"/>
        <pt x="94" y="78" on="1"/>
        <pt x="139" y="74" on="0"/>
        <pt x="257" y="74" on="0"/>
        <pt x="279" y="75" on="1"/>
        <pt x="283" y="212" on="0"/>
        <pt x="283" y="338" on="1"/>
        <pt x="283" y="430" on="1"/>
        <pt x="244" y="387" on="0"/>
        <pt x="100" y="148" on="0"/>
      </contour>
    </TTGlyph>
    <TTGlyph name="g" xMin="10" yMin="-204" xMax="475" yMax="524">
      <contour>
        <pt x="10" y="-83" on="1"/>
        <pt x="10" y="-25" on="0"/>
        <pt x="68" y="14" on="1"/>
        <pt x="96" y="33" on="0"/>
        <pt x="138" y="51" on="1"/>
        <pt x="59" y="62" on="0"/>
        <pt x="59" y="105" on="1"/>
        <pt x="59" y="150" on="0"/>
        <pt x="148" y="177" on="1"/>
        <pt x="97" y="200" on="0"/>
        <pt x="53" y="251" on="0"/>
        <pt x="44" y="299" on="1"/>
        <pt x="43" y="303" on="0"/>
        <pt x="43" y="318" on="1"/>
        <pt x="43" y="372" on="0"/>
        <pt x="75" y="441" on="0"/>
        <pt x="195" y="524" on="0"/>
        <pt x="324" y="524" on="0"/>
        <pt x="372" y="484" on="1"/>
        <pt x="421" y="486" on="0"/>
        <pt x="469" y="497" on="1"/>
        <pt x="475" y="491" on="1"/>
        <pt x="475" y="449" on="1"/>
        <pt x="396" y="449" on="1"/>
        <pt x="404" y="438" on="0"/>
        <pt x="416" y="372" on="0"/>
        <pt x="416" y="338" on="1"/>
        <pt x="416" y="269" on="0"/>
        <pt x="358" y="216" on="1"/>
        <pt x="306" y="186" on="0"/>
        <pt x="232" y="170" on="1"/>
        <pt x="150" y="149" on="0"/>
        <pt x="150" y="113" on="1"/>
        <pt x="150" y="99" on="0"/>
        <pt x="174" y="79" on="0"/>
        <pt x="193" y="79" on="1"/>
        <pt x="312" y="79" on="1"/>
        <pt x="378" y="79" on="0"/>
        <pt x="428" y="59" on="0"/>
        <pt x="475" y="-1" on="0"/>
        <pt x="475" y="-64" on="0"/>
        <pt x="447" y="-119" on="0"/>
        <pt x="390" y="-171" on="0"/>
        <pt x="284" y="-204" on="0"/>
        <pt x="182" y="-204" on="0"/>
        <pt x="117" y="-193" on="0"/>
        <pt x="51" y="-168" on="0"/>
        <pt x="10" y="-117" on="0"/>
      </contour>
      <contour>
        <pt x="96" y="-54" on="1"/>
        <pt x="96" y="-100" on="0"/>
        <pt x="184" y="-165" on="0"/>
        <pt x="232" y="-165" on="1"/>
        <pt x="306" y="-165" on="0"/>
        <pt x="379" y="-99" on="0"/>
        <pt x="379" y="-46" on="1"/>
        <pt x="379" y="30" on="0"/>
        <pt x="262" y="30" on="1"/>
        <pt x="96" y="30" on="0"/>
      </contour>
      <contour>
        <pt x="135" y="324" on="1"/>
        <pt x="135" y="278" on="0"/>
        <pt x="187" y="220" on="0"/>
        <pt x="285" y="220" on="0"/>
        <pt x="321" y="272" on="0"/>
        <pt x="321" y="409" on="0"/>
        <pt x="281" y="455" on="0"/>
        <pt x="223" y="462" on="1"/>
        <pt x="218" y="463" on="0"/>
        <pt x="209" y="463" on="1"/>
        <pt x="172" y="463" on="0"/>
        <pt x="135" y="402" on="0"/>
      </contour>
    </TTGlyph>
    <TTGlyph name="gbreve" xMin="10" yMin="-204" xMax="475" yMax="713">
      <component glyphName="breve" x="9" y="0" flags="0x1004"/>
      <component glyphName="g" x="0" y="0" flags="0x1004"/>
    </TTGlyph>
    <TTGlyph name="gcircumflex" xMin="10" yMin="-204" xMax="475" yMax="752">
      <component glyphName="circumflex" x="7" y="0" flags="0x1004"/>
      <component glyphName="g" x="0" y="0" flags="0x1004"/>
    </TTGlyph>
    <TTGlyph name="gdotaccent" xMin="10" yMin="-204" xMax="475" yMax="717">
      <component glyphName="dotaccent" x="3" y="0" flags="0x1004"/>
      <component glyphName="g" x="0" y="0" flags="0x1004"/>
    </TTGlyph>
    <TTGlyph name="germandbls" xMin="26" yMin="-17" xMax="568" yMax="798">
      <contour>
        <pt x="199" y="519" on="1"/>
        <pt x="195" y="131" on="1"/>
        <pt x="195" y="65" on="0"/>
        <pt x="210" y="41" on="0"/>
        <pt x="256" y="36" on="1"/>
        <pt x="265" y="35" on="0"/>
        <pt x="269" y="34" on="1"/>
        <pt x="269" y="0" on="1"/>
        <pt x="26" y="0" on="1"/>
        <pt x="26" y="34" on="1"/>
        <pt x="62" y="39" on="0"/>
        <pt x="80" y="42" on="0"/>
        <pt x="104" y="58" on="0"/>
        <pt x="106" y="78" on="0"/>
        <pt x="106" y="172" on="0"/>
        <pt x="100" y="448" on="1"/>
        <pt x="99" y="497" on="1"/>
        <pt x="99" y="618" on="0"/>
        <pt x="215" y="798" on="0"/>
        <pt x="324" y="798" on="1"/>
        <pt x="400" y="798" on="0"/>
        <pt x="484" y="720" on="0"/>
        <pt x="484" y="663" on="1"/>
        <pt x="484" y="636" on="0"/>
        <pt x="455" y="583" on="0"/>
        <pt x="419" y="546" on="0"/>
        <pt x="390" y="494" on="0"/>
        <pt x="390" y="435" on="0"/>
        <pt x="427" y="377" on="0"/>
        <pt x="479" y="331" on="0"/>
        <pt x="531" y="281" on="0"/>
        <pt x="568" y="205" on="0"/>
        <pt x="568" y="105" on="0"/>
        <pt x="553" y="80" on="1"/>
        <pt x="523" y="32" on="0"/>
        <pt x="492" y="8" on="1"/>
        <pt x="477" y="-3" on="0"/>
        <pt x="413" y="-17" on="0"/>
        <pt x="397" y="-17" on="1"/>
        <pt x="356" y="-17" on="0"/>
        <pt x="278" y="30" on="0"/>
        <pt x="278" y="53" on="1"/>
        <pt x="278" y="134" on="0"/>
        <pt x="287" y="171" on="0"/>
        <pt x="318" y="171" on="0"/>
        <pt x="331" y="132" on="0"/>
        <pt x="338" y="86" on="0"/>
        <pt x="377" y="47" on="0"/>
        <pt x="454" y="47" on="0"/>
        <pt x="503" y="85" on="0"/>
        <pt x="503" y="147" on="0"/>
        <pt x="462" y="207" on="0"/>
        <pt x="404" y="264" on="0"/>
        <pt x="374" y="292" on="1"/>
        <pt x="304" y="361" on="0"/>
        <pt x="304" y="410" on="1"/>
        <pt x="304" y="469" on="0"/>
        <pt x="324" y="504" on="1"/>
        <pt x="337" y="526" on="0"/>
        <pt x="377" y="571" on="0"/>
        <pt x="386" y="582" on="1"/>
        <pt x="407" y="607" on="0"/>
        <pt x="407" y="681" on="0"/>
        <pt x="390" y="733" on="0"/>
        <pt x="354" y="764" on="0"/>
        <pt x="292" y="764" on="0"/>
        <pt x="238" y="710" on="0"/>
        <pt x="224" y="668" on="1"/>
        <pt x="199" y="590" on="0"/>
      </contour>
    </TTGlyph>
    <TTGlyph name="grave" xMin="144" yMin="559" xMax="356" yMax="760">
      <contour>
        <pt x="144" y="715" on="1"/>
        <pt x="145" y="733" on="0"/>
        <pt x="181" y="760" on="0"/>
        <pt x="202" y="760" on="1"/>
        <pt x="297" y="641" on="0"/>
        <pt x="356" y="580" on="1"/>
        <pt x="338" y="559" on="1"/>
        <pt x="251" y="617" on="0"/>
      </contour>
    </TTGlyph>
    <TTGlyph name="grave.cap" xMin="-362" yMin="575" xMax="-131" yMax="749">
      <contour>
        <pt x="-362" y="695" on="1"/>
        <pt x="-362" y="699" on="1"/>
        <pt x="-362" y="716" on="0"/>
        <pt x="-332" y="746" on="0"/>
        <pt x="-313" y="749" on="1"/>
        <pt x="-207" y="654" on="0"/>
        <pt x="-131" y="599" on="1"/>
        <pt x="-144" y="575" on="1"/>
        <pt x="-187" y="594" on="0"/>
        <pt x="-325" y="671" on="0"/>
      </contour>
    </TTGlyph>
    <TTGlyph name="gravecmb" xMin="-356" yMin="559" xMax="-146" yMax="760">
      <contour>
        <pt x="-356" y="715" on="1"/>
        <pt x="-355" y="733" on="0"/>
        <pt x="-320" y="760" on="0"/>
        <pt x="-299" y="760" on="1"/>
        <pt x="-204" y="641" on="0"/>
        <pt x="-146" y="580" on="1"/>
        <pt x="-162" y="559" on="1"/>
        <pt x="-201" y="584" on="0"/>
        <pt x="-324" y="684" on="0"/>
      </contour>
    </TTGlyph>
    <TTGlyph name="greater" xMin="-3" yMin="36" xMax="483" yMax="522">
      <contour>
        <pt x="-3" y="47" on="1"/>
        <pt x="9" y="108" on="1"/>
        <pt x="393" y="279" on="1"/>
        <pt x="9" y="450" on="1"/>
        <pt x="-3" y="511" on="1"/>
        <pt x="9" y="522" on="1"/>
        <pt x="483" y="311" on="1"/>
        <pt x="469" y="241" on="1"/>
        <pt x="9" y="36" on="1"/>
      </contour>
    </TTGlyph>
    <TTGlyph name="guillemotleft" xMin="28" yMin="50" xMax="479" yMax="437">
      <contour>
        <pt x="28" y="245" on="1"/>
        <pt x="67" y="273" on="0"/>
        <pt x="229" y="416" on="0"/>
        <pt x="250" y="437" on="1"/>
        <pt x="282" y="421" on="1"/>
        <pt x="129" y="242" on="1"/>
        <pt x="280" y="65" on="1"/>
        <pt x="251" y="50" on="1"/>
        <pt x="111" y="188" on="0"/>
      </contour>
      <contour>
        <pt x="225" y="245" on="1"/>
        <pt x="264" y="273" on="0"/>
        <pt x="426" y="416" on="0"/>
        <pt x="447" y="437" on="1"/>
        <pt x="479" y="421" on="1"/>
        <pt x="325" y="242" on="1"/>
        <pt x="477" y="65" on="1"/>
        <pt x="448" y="50" on="1"/>
        <pt x="308" y="188" on="0"/>
      </contour>
    </TTGlyph>
    <TTGlyph name="guillemotright" xMin="45" yMin="50" xMax="495" yMax="437">
      <contour>
        <pt x="45" y="421" on="1"/>
        <pt x="77" y="437" on="1"/>
        <pt x="93" y="420" on="0"/>
        <pt x="259" y="273" on="0"/>
        <pt x="298" y="245" on="1"/>
        <pt x="219" y="190" on="0"/>
        <pt x="75" y="50" on="1"/>
        <pt x="46" y="65" on="1"/>
        <pt x="198" y="242" on="1"/>
      </contour>
      <contour>
        <pt x="242" y="421" on="1"/>
        <pt x="273" y="437" on="1"/>
        <pt x="293" y="417" on="0"/>
        <pt x="456" y="273" on="0"/>
        <pt x="495" y="245" on="1"/>
        <pt x="416" y="190" on="0"/>
        <pt x="272" y="50" on="1"/>
        <pt x="243" y="65" on="1"/>
        <pt x="395" y="242" on="1"/>
      </contour>
    </TTGlyph>
    <TTGlyph name="guilsinglleft" xMin="28" yMin="50" xMax="281" yMax="437">
      <contour>
        <pt x="28" y="245" on="1"/>
        <pt x="67" y="273" on="0"/>
        <pt x="233" y="420" on="0"/>
        <pt x="249" y="437" on="1"/>
        <pt x="281" y="421" on="1"/>
        <pt x="128" y="242" on="1"/>
        <pt x="280" y="65" on="1"/>
        <pt x="251" y="50" on="1"/>
        <pt x="107" y="190" on="0"/>
      </contour>
    </TTGlyph>
    <TTGlyph name="guilsinglright" xMin="45" yMin="50" xMax="298" yMax="437">
      <contour>
        <pt x="45" y="421" on="1"/>
        <pt x="76" y="437" on="1"/>
        <pt x="97" y="416" on="0"/>
        <pt x="259" y="273" on="0"/>
        <pt x="298" y="245" on="1"/>
        <pt x="223" y="193" on="0"/>
        <pt x="75" y="50" on="1"/>
        <pt x="46" y="65" on="1"/>
        <pt x="198" y="242" on="1"/>
      </contour>
    </TTGlyph>
    <TTGlyph name="h" xMin="22" yMin="0" xMax="540" yMax="797">
      <contour>
        <pt x="96" y="76" on="1"/>
        <pt x="97" y="544" on="1"/>
        <pt x="97" y="689" on="0"/>
        <pt x="77" y="740" on="0"/>
        <pt x="24" y="740" on="1"/>
        <pt x="22" y="773" on="1"/>
        <pt x="96" y="780" on="0"/>
        <pt x="169" y="797" on="0"/>
        <pt x="172" y="797" on="1"/>
        <pt x="189" y="797" on="0"/>
        <pt x="189" y="782" on="1"/>
        <pt x="188" y="717" on="1"/>
        <pt x="187" y="459" on="1"/>
        <pt x="303" y="524" on="0"/>
        <pt x="448" y="524" on="0"/>
        <pt x="492" y="429" on="0"/>
        <pt x="492" y="321" on="1"/>
        <pt x="489" y="109" on="1"/>
        <pt x="489" y="61" on="0"/>
        <pt x="504" y="38" on="0"/>
        <pt x="540" y="34" on="1"/>
        <pt x="540" y="0" on="1"/>
        <pt x="350" y="0" on="1"/>
        <pt x="350" y="34" on="1"/>
        <pt x="386" y="42" on="0"/>
        <pt x="400" y="70" on="0"/>
        <pt x="400" y="131" on="1"/>
        <pt x="400" y="310" on="1"/>
        <pt x="400" y="400" on="0"/>
        <pt x="373" y="451" on="0"/>
        <pt x="323" y="451" on="1"/>
        <pt x="293" y="451" on="0"/>
        <pt x="208" y="425" on="0"/>
        <pt x="187" y="411" on="1"/>
        <pt x="184" y="295" on="0"/>
        <pt x="184" y="121" on="1"/>
        <pt x="184" y="65" on="0"/>
        <pt x="201" y="36" on="0"/>
        <pt x="241" y="34" on="1"/>
        <pt x="241" y="0" on="1"/>
        <pt x="37" y="0" on="1"/>
        <pt x="37" y="34" on="1"/>
        <pt x="70" y="36" on="0"/>
        <pt x="96" y="56" on="0"/>
      </contour>
    </TTGlyph>
    <TTGlyph name="hcircumflex" xMin="17" yMin="0" xMax="540" yMax="1001">
      <component glyphName="circumflex" x="-109" y="249" flags="0x1004"/>
      <component glyphName="h" x="0" y="0" flags="0x1004"/>
    </TTGlyph>
    <TTGlyph name="horizontalbar" xMin="26" yMin="250" xMax="974" yMax="316">
      <component glyphName="emdash" x="0" y="0" flags="0x1004"/>
    </TTGlyph>
    <TTGlyph name="hungarumlaut" xMin="53" yMin="558" xMax="447" yMax="759">
      <component glyphName="hungarumlaut.ref1" x="0" y="0" flags="0x1004"/>
      <component glyphName="acutecmb" x="362" y="0" flags="0x1004"/>
    </TTGlyph>
    <TTGlyph name="hungarumlaut.cap" xMin="-463" yMin="575" xMax="-49" yMax="749">
      <component glyphName="acute.cap" x="24" y="0" flags="0x1004"/>
      <component glyphName="acute.cap" x="-159" y="0" flags="0x1004"/>
    </TTGlyph>
    <TTGlyph name="hungarumlaut.ref1" xMin="236" yMin="558" xMax="447" yMax="759">
      <contour>
        <pt x="236" y="579" on="1"/>
        <pt x="295" y="640" on="0"/>
        <pt x="390" y="759" on="1"/>
        <pt x="411" y="759" on="0"/>
        <pt x="446" y="732" on="0"/>
        <pt x="447" y="714" on="1"/>
        <pt x="415" y="683" on="0"/>
        <pt x="292" y="583" on="0"/>
        <pt x="253" y="558" on="1"/>
      </contour>
    </TTGlyph>
    <TTGlyph name="hungarumlautcmb" xMin="-443" yMin="558" xMax="-49" yMax="759">
      <component glyphName="hungarumlaut" x="-496" y="0" flags="0x1004"/>
    </TTGlyph>
    <TTGlyph name="hyphen" xMin="17" yMin="250" xMax="253" yMax="316">
      <contour>
        <pt x="17" y="250" on="1"/>
        <pt x="31" y="316" on="1"/>
        <pt x="242" y="316" on="1"/>
        <pt x="253" y="305" on="1"/>
        <pt x="241" y="250" on="1"/>
      </contour>
    </TTGlyph>
    <TTGlyph name="hyphentwo" xMin="17" yMin="250" xMax="253" yMax="316">
      <component glyphName="hyphen" x="0" y="0" flags="0x1004"/>
    </TTGlyph>
    <TTGlyph name="i" xMin="30" yMin="0" xMax="262" yMax="737">
      <component glyphName="i.ref1" x="0" y="0" flags="0x1004"/>
      <component glyphName="dotlessi" x="0" y="0" flags="0x1004"/>
    </TTGlyph>
    <TTGlyph name="i.ref1" xMin="89" yMin="605" xMax="202" yMax="737">
      <contour>
        <pt x="129" y="605" on="0"/>
        <pt x="89" y="654" on="0"/>
        <pt x="89" y="677" on="0"/>
        <pt x="122" y="737" on="0"/>
        <pt x="158" y="737" on="0"/>
        <pt x="202" y="700" on="0"/>
        <pt x="202" y="652" on="0"/>
        <pt x="161" y="605" on="0"/>
      </contour>
    </TTGlyph>
    <TTGlyph name="iacute" xMin="30" yMin="0" xMax="291" yMax="759">
      <component glyphName="acutecmb" x="389" y="0" flags="0x1004"/>
      <component glyphName="dotlessi" x="0" y="0" flags="0x1004"/>
    </TTGlyph>
    <TTGlyph name="ibreve" xMin="9" yMin="0" xMax="281" yMax="713">
      <component glyphName="breve" x="-105" y="0" flags="0x1004"/>
      <component glyphName="dotlessi" x="0" y="0" flags="0x1004"/>
    </TTGlyph>
    <TTGlyph name="icircumflex" xMin="19" yMin="0" xMax="267" yMax="752">
      <component glyphName="circumflex" x="-107" y="0" flags="0x1004"/>
      <component glyphName="dotlessi" x="0" y="0" flags="0x1004"/>
    </TTGlyph>
    <TTGlyph name="idieresis" xMin="-9" yMin="0" xMax="292" yMax="717">
      <component glyphName="dotlessi" x="0" y="0" flags="0x1004"/>
      <component glyphName="dieresis" x="-106" y="0" flags="0x1004"/>
    </TTGlyph>
    <TTGlyph name="igrave" xMin="-18" yMin="0" xMax="262" yMax="760">
      <component glyphName="gravecmb" x="338" y="0" flags="0x1004"/>
      <component glyphName="dotlessi" x="0" y="0" flags="0x1004"/>
    </TTGlyph>
    <TTGlyph name="ij" xMin="30" yMin="-202" xMax="466" yMax="737">
      <component glyphName="j" x="282" y="0" flags="0x1004"/>
      <component glyphName="i" x="0" y="0" flags="0x1004"/>
    </TTGlyph>
    <TTGlyph name="imacron" xMin="11" yMin="0" xMax="262" yMax="663">
      <component glyphName="dotlessi" x="0" y="0" flags="0x1004"/>
      <component glyphName="macron" x="-114" y="0" flags="0x1004"/>
    </TTGlyph>
    <TTGlyph name="itilde" xMin="-22" yMin="0" xMax="296" yMax="701">
      <component glyphName="tilde" x="-113" y="0" flags="0x1004"/>
      <component glyphName="dotlessi" x="0" y="0" flags="0x1004"/>
    </TTGlyph>
    <TTGlyph name="j" xMin="-5" yMin="-202" xMax="184" yMax="737">
      <component glyphName="j.ref1" x="0" y="0" flags="0x1004"/>
      <component glyphName="uni0237" x="0" y="0" flags="0x1004"/>
    </TTGlyph>
    <TTGlyph name="j.ref1" xMin="70" yMin="605" xMax="184" yMax="737">
      <contour>
        <pt x="111" y="605" on="0"/>
        <pt x="70" y="654" on="0"/>
        <pt x="70" y="677" on="0"/>
        <pt x="104" y="737" on="0"/>
        <pt x="140" y="737" on="0"/>
        <pt x="184" y="700" on="0"/>
        <pt x="184" y="652" on="0"/>
        <pt x="142" y="605" on="0"/>
      </contour>
    </TTGlyph>
    <TTGlyph name="jcircumflex" xMin="-11" yMin="-202" xMax="237" yMax="751">
      <component glyphName="circumflex" x="-137" y="-1" flags="0x1004"/>
      <component glyphName="uni0237" x="0" y="0" flags="0x1004"/>
    </TTGlyph>
    <TTGlyph name="k" xMin="23" yMin="-4" xMax="575" yMax="797">
      <contour>
        <pt x="101" y="145" on="1"/>
        <pt x="103" y="532" on="1"/>
        <pt x="103" y="649" on="0"/>
        <pt x="92" y="704" on="0"/>
        <pt x="87" y="725" on="0"/>
        <pt x="61" y="738" on="0"/>
        <pt x="48" y="739" on="0"/>
        <pt x="25" y="740" on="1"/>
        <pt x="23" y="773" on="1"/>
        <pt x="99" y="780" on="0"/>
        <pt x="169" y="797" on="0"/>
        <pt x="172" y="797" on="1"/>
        <pt x="190" y="797" on="0"/>
        <pt x="190" y="782" on="1"/>
        <pt x="190" y="739" on="1"/>
        <pt x="189" y="295" on="1"/>
        <pt x="223" y="295" on="0"/>
        <pt x="347" y="425" on="0"/>
        <pt x="347" y="459" on="1"/>
        <pt x="347" y="476" on="0"/>
        <pt x="326" y="476" on="1"/>
        <pt x="317" y="476" on="0"/>
        <pt x="307" y="487" on="0"/>
        <pt x="307" y="494" on="1"/>
        <pt x="307" y="509" on="0"/>
        <pt x="326" y="510" on="1"/>
        <pt x="360" y="507" on="0"/>
        <pt x="484" y="507" on="0"/>
        <pt x="518" y="510" on="1"/>
        <pt x="536" y="510" on="0"/>
        <pt x="536" y="494" on="1"/>
        <pt x="536" y="482" on="0"/>
        <pt x="525" y="478" on="1"/>
        <pt x="513" y="473" on="0"/>
        <pt x="510" y="473" on="1"/>
        <pt x="470" y="457" on="0"/>
        <pt x="360" y="372" on="0"/>
        <pt x="325" y="337" on="1"/>
        <pt x="290" y="302" on="1"/>
        <pt x="563" y="30" on="1"/>
        <pt x="575" y="18" on="0"/>
        <pt x="575" y="3" on="0"/>
        <pt x="566" y="0" on="1"/>
        <pt x="563" y="0" on="1"/>
        <pt x="487" y="0" on="0"/>
        <pt x="440" y="-4" on="1"/>
        <pt x="289" y="175" on="0"/>
        <pt x="230" y="238" on="0"/>
        <pt x="205" y="246" on="1"/>
        <pt x="194" y="250" on="0"/>
        <pt x="187" y="253" on="1"/>
        <pt x="188" y="239" on="0"/>
        <pt x="188" y="217" on="1"/>
        <pt x="186" y="97" on="1"/>
        <pt x="186" y="80" on="1"/>
        <pt x="186" y="74" on="0"/>
        <pt x="189" y="62" on="0"/>
        <pt x="190" y="55" on="0"/>
        <pt x="198" y="48" on="0"/>
        <pt x="201" y="45" on="0"/>
        <pt x="215" y="41" on="0"/>
        <pt x="221" y="40" on="0"/>
        <pt x="242" y="35" on="0"/>
        <pt x="248" y="34" on="1"/>
        <pt x="248" y="0" on="1"/>
        <pt x="32" y="0" on="1"/>
        <pt x="32" y="34" on="1"/>
        <pt x="60" y="40" on="0"/>
        <pt x="66" y="42" on="0"/>
        <pt x="82" y="46" on="0"/>
        <pt x="85" y="51" on="0"/>
        <pt x="95" y="59" on="0"/>
        <pt x="95" y="64" on="1"/>
        <pt x="100" y="94" on="1"/>
      </contour>
    </TTGlyph>
    <TTGlyph name="l" xMin="26" yMin="0" xMax="262" yMax="798">
      <contour>
        <pt x="26" y="0" on="1"/>
        <pt x="26" y="34" on="1"/>
        <pt x="34" y="35" on="0"/>
        <pt x="60" y="40" on="0"/>
        <pt x="68" y="41" on="0"/>
        <pt x="85" y="47" on="0"/>
        <pt x="89" y="51" on="0"/>
        <pt x="99" y="63" on="0"/>
        <pt x="100" y="75" on="0"/>
        <pt x="104" y="96" on="0"/>
        <pt x="104" y="108" on="1"/>
        <pt x="104" y="323" on="1"/>
        <pt x="104" y="426" on="0"/>
        <pt x="101" y="652" on="1"/>
        <pt x="100" y="700" on="1"/>
        <pt x="99" y="725" on="0"/>
        <pt x="77" y="739" on="0"/>
        <pt x="44" y="739" on="1"/>
        <pt x="31" y="739" on="1"/>
        <pt x="29" y="772" on="1"/>
        <pt x="103" y="781" on="0"/>
        <pt x="175" y="798" on="0"/>
        <pt x="179" y="798" on="1"/>
        <pt x="196" y="798" on="0"/>
        <pt x="196" y="783" on="1"/>
        <pt x="198" y="701" on="0"/>
        <pt x="198" y="455" on="0"/>
        <pt x="188" y="176" on="0"/>
        <pt x="188" y="95" on="1"/>
        <pt x="188" y="57" on="0"/>
        <pt x="211" y="40" on="0"/>
        <pt x="262" y="34" on="1"/>
        <pt x="262" y="0" on="1"/>
      </contour>
    </TTGlyph>
    <TTGlyph name="lacute" xMin="26" yMin="0" xMax="295" yMax="1008">
      <component glyphName="acutecmb" x="393" y="249" flags="0x1004"/>
      <component glyphName="l" x="0" y="0" flags="0x1004"/>
    </TTGlyph>
    <TTGlyph name="lcaron" xMin="26" yMin="0" xMax="392" yMax="798">
      <component glyphName="l" x="0" y="0" flags="0x1004"/>
      <component glyphName="comma" x="215" y="650" flags="0x1004"/>
    </TTGlyph>
    <TTGlyph name="less" xMin="-3" yMin="36" xMax="483" yMax="522">
      <contour>
        <pt x="-3" y="247" on="1"/>
        <pt x="11" y="317" on="1"/>
        <pt x="471" y="522" on="1"/>
        <pt x="483" y="511" on="1"/>
        <pt x="471" y="450" on="1"/>
        <pt x="87" y="279" on="1"/>
        <pt x="471" y="108" on="1"/>
        <pt x="483" y="47" on="1"/>
        <pt x="471" y="36" on="1"/>
      </contour>
    </TTGlyph>
    <TTGlyph name="longs" xMin="26" yMin="0" xMax="405" yMax="798">
      <contour>
        <pt x="405" y="685" on="1"/>
        <pt x="404" y="648" on="1"/>
        <pt x="361" y="647" on="1"/>
        <pt x="340" y="761" on="0"/>
        <pt x="298" y="761" on="1"/>
        <pt x="262" y="761" on="0"/>
        <pt x="199" y="607" on="0"/>
        <pt x="199" y="519" on="1"/>
        <pt x="199" y="448" on="1"/>
        <pt x="195" y="238" on="0"/>
        <pt x="195" y="86" on="0"/>
        <pt x="197" y="71" on="0"/>
        <pt x="199" y="59" on="0"/>
        <pt x="209" y="52" on="0"/>
        <pt x="216" y="47" on="0"/>
        <pt x="238" y="43" on="0"/>
        <pt x="254" y="39" on="0"/>
        <pt x="291" y="34" on="0"/>
        <pt x="306" y="31" on="1"/>
        <pt x="306" y="0" on="1"/>
        <pt x="26" y="0" on="1"/>
        <pt x="26" y="34" on="1"/>
        <pt x="62" y="39" on="0"/>
        <pt x="80" y="42" on="0"/>
        <pt x="104" y="58" on="0"/>
        <pt x="106" y="78" on="0"/>
        <pt x="106" y="172" on="0"/>
        <pt x="100" y="448" on="1"/>
        <pt x="99" y="497" on="1"/>
        <pt x="99" y="618" on="0"/>
        <pt x="215" y="798" on="0"/>
        <pt x="324" y="798" on="1"/>
        <pt x="373" y="798" on="0"/>
        <pt x="405" y="745" on="0"/>
      </contour>
    </TTGlyph>
    <TTGlyph name="m" xMin="32" yMin="0" xMax="811" yMax="527">
      <contour>
        <pt x="379" y="107" on="1"/>
        <pt x="380" y="389" on="1"/>
        <pt x="380" y="421" on="0"/>
        <pt x="343" y="452" on="0"/>
        <pt x="291" y="452" on="1"/>
        <pt x="271" y="452" on="0"/>
        <pt x="211" y="427" on="0"/>
        <pt x="192" y="415" on="1"/>
        <pt x="185" y="188" on="0"/>
        <pt x="185" y="154" on="1"/>
        <pt x="185" y="104" on="1"/>
        <pt x="185" y="88" on="0"/>
        <pt x="190" y="64" on="0"/>
        <pt x="192" y="53" on="0"/>
        <pt x="205" y="43" on="0"/>
        <pt x="208" y="42" on="1"/>
        <pt x="223" y="40" on="0"/>
        <pt x="241" y="34" on="1"/>
        <pt x="241" y="0" on="1"/>
        <pt x="37" y="0" on="1"/>
        <pt x="37" y="34" on="1"/>
        <pt x="70" y="36" on="0"/>
        <pt x="95" y="56" on="0"/>
        <pt x="95" y="76" on="1"/>
        <pt x="95" y="412" on="0"/>
        <pt x="88" y="433" on="1"/>
        <pt x="86" y="438" on="0"/>
        <pt x="72" y="451" on="0"/>
        <pt x="34" y="455" on="1"/>
        <pt x="32" y="493" on="1"/>
        <pt x="72" y="497" on="0"/>
        <pt x="156" y="527" on="0"/>
        <pt x="180" y="527" on="0"/>
        <pt x="190" y="505" on="0"/>
        <pt x="190" y="474" on="1"/>
        <pt x="190" y="460" on="1"/>
        <pt x="196" y="463" on="0"/>
        <pt x="231" y="483" on="0"/>
        <pt x="246" y="491" on="0"/>
        <pt x="275" y="507" on="0"/>
        <pt x="293" y="514" on="0"/>
        <pt x="306" y="518" on="1"/>
        <pt x="326" y="526" on="0"/>
        <pt x="349" y="526" on="1"/>
        <pt x="407" y="526" on="0"/>
        <pt x="474" y="455" on="1"/>
        <pt x="571" y="526" on="0"/>
        <pt x="641" y="526" on="1"/>
        <pt x="682" y="526" on="0"/>
        <pt x="710" y="502" on="1"/>
        <pt x="754" y="463" on="0"/>
        <pt x="754" y="408" on="1"/>
        <pt x="752" y="147" on="1"/>
        <pt x="752" y="68" on="0"/>
        <pt x="769" y="36" on="0"/>
        <pt x="804" y="34" on="1"/>
        <pt x="811" y="34" on="1"/>
        <pt x="811" y="0" on="1"/>
        <pt x="607" y="0" on="1"/>
        <pt x="607" y="34" on="1"/>
        <pt x="645" y="36" on="0"/>
        <pt x="664" y="63" on="0"/>
        <pt x="664" y="111" on="1"/>
        <pt x="663" y="356" on="1"/>
        <pt x="663" y="385" on="0"/>
        <pt x="659" y="413" on="0"/>
        <pt x="643" y="442" on="0"/>
        <pt x="605" y="452" on="0"/>
        <pt x="545" y="452" on="0"/>
        <pt x="473" y="414" on="1"/>
        <pt x="472" y="284" on="0"/>
        <pt x="472" y="147" on="1"/>
        <pt x="474" y="83" on="1"/>
        <pt x="474" y="71" on="0"/>
        <pt x="482" y="56" on="0"/>
        <pt x="483" y="47" on="0"/>
        <pt x="498" y="41" on="0"/>
        <pt x="501" y="39" on="0"/>
        <pt x="525" y="35" on="0"/>
        <pt x="529" y="34" on="1"/>
        <pt x="529" y="0" on="1"/>
        <pt x="325" y="0" on="1"/>
        <pt x="325" y="34" on="1"/>
        <pt x="362" y="36" on="0"/>
        <pt x="379" y="63" on="0"/>
      </contour>
    </TTGlyph>
    <TTGlyph name="macron" xMin="125" yMin="602" xMax="375" yMax="663">
      <contour>
        <pt x="125" y="602" on="1"/>
        <pt x="138" y="663" on="1"/>
        <pt x="375" y="663" on="1"/>
        <pt x="363" y="602" on="1"/>
      </contour>
    </TTGlyph>
    <TTGlyph name="macroncmb" xMin="-375" yMin="602" xMax="-125" yMax="663">
      <component glyphName="macron" x="-500" y="0" flags="0x1004"/>
    </TTGlyph>
    <TTGlyph name="minus" xMin="11" yMin="250" xMax="472" yMax="316">
      <contour>
        <pt x="11" y="250" on="1"/>
        <pt x="25" y="316" on="1"/>
        <pt x="460" y="316" on="1"/>
        <pt x="472" y="305" on="1"/>
        <pt x="459" y="250" on="1"/>
      </contour>
    </TTGlyph>
    <TTGlyph name="n" xMin="32" yMin="0" xMax="540" yMax="527">
      <contour>
        <pt x="32" y="493" on="1"/>
        <pt x="73" y="497" on="0"/>
        <pt x="156" y="527" on="0"/>
        <pt x="181" y="527" on="0"/>
        <pt x="191" y="504" on="0"/>
        <pt x="191" y="474" on="1"/>
        <pt x="191" y="460" on="1"/>
        <pt x="306" y="525" on="0"/>
        <pt x="437" y="525" on="0"/>
        <pt x="487" y="454" on="0"/>
        <pt x="487" y="408" on="1"/>
        <pt x="487" y="74" on="1"/>
        <pt x="487" y="52" on="0"/>
        <pt x="506" y="36" on="0"/>
        <pt x="540" y="34" on="1"/>
        <pt x="540" y="0" on="1"/>
        <pt x="336" y="0" on="1"/>
        <pt x="336" y="34" on="1"/>
        <pt x="374" y="37" on="0"/>
        <pt x="393" y="55" on="0"/>
        <pt x="393" y="78" on="1"/>
        <pt x="393" y="395" on="1"/>
        <pt x="393" y="420" on="0"/>
        <pt x="362" y="447" on="0"/>
        <pt x="329" y="452" on="0"/>
        <pt x="286" y="452" on="0"/>
        <pt x="214" y="429" on="0"/>
        <pt x="194" y="415" on="1"/>
        <pt x="193" y="356" on="0"/>
        <pt x="191" y="292" on="1"/>
        <pt x="187" y="162" on="0"/>
        <pt x="187" y="63" on="0"/>
        <pt x="207" y="36" on="0"/>
        <pt x="246" y="34" on="1"/>
        <pt x="246" y="0" on="1"/>
        <pt x="36" y="0" on="1"/>
        <pt x="36" y="34" on="1"/>
        <pt x="66" y="38" on="0"/>
        <pt x="91" y="53" on="0"/>
        <pt x="94" y="68" on="1"/>
        <pt x="98" y="94" on="0"/>
        <pt x="98" y="163" on="0"/>
        <pt x="92" y="418" on="0"/>
        <pt x="90" y="427" on="0"/>
        <pt x="87" y="436" on="0"/>
        <pt x="82" y="442" on="0"/>
        <pt x="79" y="446" on="0"/>
        <pt x="71" y="450" on="0"/>
        <pt x="67" y="451" on="0"/>
        <pt x="56" y="453" on="0"/>
        <pt x="54" y="454" on="1"/>
        <pt x="48" y="455" on="0"/>
        <pt x="35" y="455" on="1"/>
      </contour>
    </TTGlyph>
    <TTGlyph name="nacute" xMin="32" yMin="0" xMax="540" yMax="759">
      <component glyphName="acutecmb" x="563" y="0" flags="0x1004"/>
      <component glyphName="n" x="0" y="0" flags="0x1004"/>
    </TTGlyph>
    <TTGlyph name="ncaron" xMin="32" yMin="0" xMax="540" yMax="750">
      <component glyphName="caron" x="71" y="0" flags="0x1004"/>
      <component glyphName="n" x="0" y="0" flags="0x1004"/>
    </TTGlyph>
    <TTGlyph name="nine" xMin="35" yMin="-204" xMax="452" yMax="525">
      <contour>
        <pt x="35" y="274" on="1"/>
        <pt x="35" y="419" on="0"/>
        <pt x="108" y="476" on="1"/>
        <pt x="173" y="525" on="0"/>
        <pt x="269" y="525" on="1"/>
        <pt x="321" y="525" on="0"/>
        <pt x="397" y="479" on="0"/>
        <pt x="416" y="441" on="1"/>
        <pt x="452" y="369" on="0"/>
        <pt x="452" y="192" on="0"/>
        <pt x="422" y="46" on="0"/>
        <pt x="374" y="-52" on="0"/>
        <pt x="304" y="-126" on="0"/>
        <pt x="234" y="-168" on="0"/>
        <pt x="192" y="-182" on="1"/>
        <pt x="128" y="-202" on="0"/>
        <pt x="45" y="-204" on="1"/>
        <pt x="39" y="-170" on="1"/>
        <pt x="172" y="-151" on="0"/>
        <pt x="315" y="-36" on="0"/>
        <pt x="340" y="87" on="1"/>
        <pt x="279" y="50" on="0"/>
        <pt x="219" y="50" on="1"/>
        <pt x="139" y="50" on="0"/>
        <pt x="35" y="175" on="0"/>
      </contour>
      <contour>
        <pt x="121" y="301" on="1"/>
        <pt x="121" y="154" on="0"/>
        <pt x="189" y="118" on="1"/>
        <pt x="218" y="102" on="0"/>
        <pt x="316" y="102" on="0"/>
        <pt x="347" y="128" on="1"/>
        <pt x="356" y="192" on="0"/>
        <pt x="356" y="301" on="0"/>
        <pt x="349" y="350" on="0"/>
        <pt x="328" y="423" on="0"/>
        <pt x="274" y="467" on="0"/>
        <pt x="186" y="467" on="0"/>
        <pt x="121" y="382" on="0"/>
      </contour>
    </TTGlyph>
    <TTGlyph name="ntilde" xMin="32" yMin="0" xMax="540" yMax="701">
      <component glyphName="tilde" x="61" y="0" flags="0x1004"/>
      <component glyphName="n" x="0" y="0" flags="0x1004"/>
    </TTGlyph>
    <TTGlyph name="numbersign" xMin="48" yMin="4" xMax="447" yMax="485">
      <contour>
        <pt x="314" y="477" on="1"/>
        <pt x="326" y="484" on="0"/>
        <pt x="366" y="484" on="1"/>
        <pt x="380" y="485" on="1"/>
        <pt x="361" y="420" on="0"/>
        <pt x="354" y="348" on="1"/>
        <pt x="447" y="348" on="1"/>
        <pt x="437" y="302" on="1"/>
        <pt x="349" y="302" on="1"/>
        <pt x="337" y="211" on="1"/>
        <pt x="426" y="211" on="1"/>
        <pt x="417" y="163" on="1"/>
        <pt x="338" y="163" on="1"/>
        <pt x="327" y="114" on="0"/>
        <pt x="327" y="15" on="1"/>
        <pt x="317" y="9" on="0"/>
        <pt x="277" y="6" on="1"/>
        <pt x="264" y="4" on="1"/>
        <pt x="275" y="61" on="0"/>
        <pt x="284" y="162" on="1"/>
        <pt x="184" y="162" on="1"/>
        <pt x="174" y="118" on="0"/>
        <pt x="174" y="16" on="1"/>
        <pt x="168" y="13" on="0"/>
        <pt x="125" y="6" on="1"/>
        <pt x="112" y="5" on="1"/>
        <pt x="126" y="89" on="0"/>
        <pt x="131" y="163" on="1"/>
        <pt x="48" y="163" on="1"/>
        <pt x="57" y="207" on="1"/>
        <pt x="135" y="207" on="1"/>
        <pt x="144" y="300" on="1"/>
        <pt x="67" y="300" on="1"/>
        <pt x="76" y="344" on="1"/>
        <pt x="152" y="344" on="1"/>
        <pt x="164" y="437" on="0"/>
        <pt x="164" y="475" on="1"/>
        <pt x="174" y="481" on="0"/>
        <pt x="218" y="484" on="1"/>
        <pt x="233" y="485" on="1"/>
        <pt x="213" y="426" on="0"/>
        <pt x="206" y="346" on="1"/>
        <pt x="302" y="346" on="1"/>
        <pt x="314" y="439" on="0"/>
      </contour>
      <contour>
        <pt x="189" y="208" on="1"/>
        <pt x="286" y="208" on="1"/>
        <pt x="298" y="301" on="1"/>
        <pt x="200" y="301" on="1"/>
      </contour>
    </TTGlyph>
    <TTGlyph name="o" xMin="30" yMin="-17" xMax="491" yMax="526">
      <contour>
        <pt x="58" y="88" on="0"/>
        <pt x="30" y="191" on="0"/>
        <pt x="30" y="348" on="0"/>
        <pt x="71" y="415" on="1"/>
        <pt x="98" y="457" on="0"/>
        <pt x="232" y="526" on="0"/>
        <pt x="276" y="526" on="1"/>
        <pt x="365" y="526" on="0"/>
        <pt x="491" y="412" on="0"/>
        <pt x="491" y="171" on="0"/>
        <pt x="447" y="104" on="1"/>
        <pt x="388" y="25" on="0"/>
        <pt x="332" y="0" on="1"/>
        <pt x="294" y="-17" on="0"/>
        <pt x="212" y="-17" on="0"/>
        <pt x="160" y="-6" on="0"/>
        <pt x="101" y="30" on="0"/>
      </contour>
      <contour>
        <pt x="125" y="148" on="0"/>
        <pt x="208" y="54" on="0"/>
        <pt x="287" y="54" on="1"/>
        <pt x="317" y="54" on="0"/>
        <pt x="331" y="59" on="1"/>
        <pt x="400" y="86" on="0"/>
        <pt x="400" y="267" on="1"/>
        <pt x="400" y="352" on="0"/>
        <pt x="355" y="431" on="0"/>
        <pt x="300" y="448" on="1"/>
        <pt x="272" y="455" on="0"/>
        <pt x="226" y="455" on="0"/>
        <pt x="205" y="453" on="0"/>
        <pt x="171" y="443" on="0"/>
        <pt x="153" y="420" on="0"/>
        <pt x="143" y="400" on="1"/>
        <pt x="125" y="364" on="0"/>
      </contour>
    </TTGlyph>
    <TTGlyph name="oacute" xMin="30" yMin="-17" xMax="491" yMax="759">
      <component glyphName="acutecmb" x="520" y="0" flags="0x1004"/>
      <component glyphName="o" x="0" y="0" flags="0x1004"/>
    </TTGlyph>
    <TTGlyph name="obreve" xMin="30" yMin="-17" xMax="491" yMax="713">
      <component glyphName="breve" x="26" y="0" flags="0x1004"/>
      <component glyphName="o" x="0" y="0" flags="0x1004"/>
    </TTGlyph>
    <TTGlyph name="ocircumflex" xMin="30" yMin="-17" xMax="491" yMax="752">
      <component glyphName="circumflex" x="24" y="0" flags="0x1004"/>
      <component glyphName="o" x="0" y="0" flags="0x1004"/>
    </TTGlyph>
    <TTGlyph name="odieresis" xMin="30" yMin="-17" xMax="491" yMax="717">
      <component glyphName="dieresis" x="25" y="0" flags="0x1004"/>
      <component glyphName="o" x="0" y="0" flags="0x1004"/>
    </TTGlyph>
    <TTGlyph name="oe" xMin="30" yMin="-17" xMax="806" yMax="526">
      <contour>
        <pt x="58" y="88" on="0"/>
        <pt x="30" y="191" on="0"/>
        <pt x="30" y="348" on="0"/>
        <pt x="71" y="415" on="1"/>
        <pt x="98" y="457" on="0"/>
        <pt x="232" y="526" on="0"/>
        <pt x="276" y="526" on="1"/>
        <pt x="393" y="526" on="0"/>
        <pt x="452" y="441" on="1"/>
        <pt x="485" y="474" on="0"/>
        <pt x="573" y="523" on="0"/>
        <pt x="658" y="523" on="0"/>
        <pt x="728" y="501" on="0"/>
        <pt x="768" y="458" on="0"/>
        <pt x="793" y="417" on="0"/>
        <pt x="798" y="386" on="1"/>
        <pt x="805" y="336" on="0"/>
        <pt x="805" y="310" on="1"/>
        <pt x="805" y="310" on="0"/>
        <pt x="805" y="281" on="1"/>
        <pt x="772" y="261" on="0"/>
        <pt x="700" y="261" on="1"/>
        <pt x="495" y="261" on="1"/>
        <pt x="495" y="154" on="0"/>
        <pt x="512" y="124" on="1"/>
        <pt x="535" y="80" on="0"/>
        <pt x="571" y="69" on="1"/>
        <pt x="594" y="62" on="0"/>
        <pt x="625" y="62" on="1"/>
        <pt x="712" y="62" on="0"/>
        <pt x="784" y="133" on="1"/>
        <pt x="806" y="110" on="1"/>
        <pt x="803" y="107" on="0"/>
        <pt x="775" y="78" on="0"/>
        <pt x="766" y="70" on="0"/>
        <pt x="741" y="45" on="0"/>
        <pt x="729" y="36" on="0"/>
        <pt x="704" y="16" on="0"/>
        <pt x="688" y="8" on="0"/>
        <pt x="663" y="-5" on="0"/>
        <pt x="653" y="-8" on="1"/>
        <pt x="630" y="-15" on="0"/>
        <pt x="605" y="-15" on="1"/>
        <pt x="483" y="-15" on="0"/>
        <pt x="431" y="84" on="1"/>
        <pt x="383" y="26" on="0"/>
        <pt x="299" y="-17" on="0"/>
        <pt x="212" y="-17" on="0"/>
        <pt x="160" y="-6" on="0"/>
        <pt x="101" y="30" on="0"/>
      </contour>
      <contour>
        <pt x="125" y="148" on="0"/>
        <pt x="208" y="54" on="0"/>
        <pt x="287" y="54" on="1"/>
        <pt x="317" y="54" on="0"/>
        <pt x="331" y="59" on="1"/>
        <pt x="400" y="86" on="0"/>
        <pt x="400" y="267" on="1"/>
        <pt x="400" y="352" on="0"/>
        <pt x="355" y="431" on="0"/>
        <pt x="300" y="448" on="1"/>
        <pt x="272" y="455" on="0"/>
        <pt x="226" y="455" on="0"/>
        <pt x="205" y="453" on="0"/>
        <pt x="171" y="443" on="0"/>
        <pt x="153" y="420" on="0"/>
        <pt x="143" y="400" on="1"/>
        <pt x="125" y="364" on="0"/>
      </contour>
      <contour>
        <pt x="497" y="306" on="1"/>
        <pt x="553" y="306" on="1"/>
        <pt x="686" y="306" on="0"/>
        <pt x="712" y="324" on="1"/>
        <pt x="712" y="367" on="0"/>
        <pt x="698" y="398" on="1"/>
        <pt x="672" y="458" on="0"/>
        <pt x="540" y="458" on="0"/>
        <pt x="497" y="391" on="0"/>
      </contour>
    </TTGlyph>
    <TTGlyph name="ograve" xMin="30" yMin="-17" xMax="491" yMax="760">
      <component glyphName="gravecmb" x="469" y="0" flags="0x1004"/>
      <component glyphName="o" x="0" y="0" flags="0x1004"/>
    </TTGlyph>
    <TTGlyph name="ohungarumlaut" xMin="30" yMin="-17" xMax="519" yMax="759">
      <component glyphName="hungarumlaut" x="72" y="0" flags="0x1004"/>
      <component glyphName="o" x="0" y="0" flags="0x1004"/>
    </TTGlyph>
    <TTGlyph name="omacron" xMin="30" yMin="-17" xMax="491" yMax="663">
      <component glyphName="macron" x="17" y="0" flags="0x1004"/>
      <component glyphName="o" x="0" y="0" flags="0x1004"/>
    </TTGlyph>
    <TTGlyph name="one" xMin="60" yMin="0" xMax="474" yMax="525">
      <contour>
        <pt x="60" y="390" on="1"/>
        <pt x="294" y="516" on="0"/>
        <pt x="339" y="525" on="1"/>
        <pt x="351" y="514" on="1"/>
        <pt x="339" y="334" on="0"/>
        <pt x="339" y="144" on="0"/>
        <pt x="341" y="89" on="0"/>
        <pt x="344" y="70" on="0"/>
        <pt x="356" y="47" on="0"/>
        <pt x="371" y="43" on="1"/>
        <pt x="410" y="33" on="0"/>
        <pt x="474" y="31" on="1"/>
        <pt x="474" y="0" on="1"/>
        <pt x="92" y="0" on="1"/>
        <pt x="92" y="31" on="1"/>
        <pt x="117" y="31" on="1"/>
        <pt x="251" y="33" on="0"/>
        <pt x="254" y="76" on="1"/>
        <pt x="259" y="111" on="0"/>
        <pt x="259" y="240" on="0"/>
        <pt x="253" y="409" on="1"/>
        <pt x="196" y="409" on="0"/>
        <pt x="74" y="360" on="1"/>
      </contour>
    </TTGlyph>
    <TTGlyph name="ordfeminine" xMin="40" yMin="439" xMax="310" yMax="734">
      <contour>
        <pt x="74" y="441" on="0"/>
        <pt x="40" y="474" on="0"/>
        <pt x="40" y="534" on="0"/>
        <pt x="55" y="568" on="0"/>
        <pt x="73" y="587" on="0"/>
        <pt x="113" y="601" on="0"/>
        <pt x="140" y="607" on="0"/>
        <pt x="196" y="616" on="0"/>
        <pt x="210" y="619" on="1"/>
        <pt x="210" y="665" on="1"/>
        <pt x="210" y="676" on="0"/>
        <pt x="153" y="699" on="0"/>
        <pt x="115" y="699" on="0"/>
        <pt x="89" y="664" on="0"/>
        <pt x="84" y="646" on="1"/>
        <pt x="80" y="629" on="1"/>
        <pt x="55" y="629" on="1"/>
        <pt x="62" y="702" on="1"/>
        <pt x="118" y="734" on="0"/>
        <pt x="206" y="734" on="0"/>
        <pt x="249" y="708" on="1"/>
        <pt x="264" y="698" on="0"/>
        <pt x="267" y="686" on="1"/>
        <pt x="265" y="494" on="1"/>
        <pt x="266" y="479" on="0"/>
        <pt x="293" y="464" on="0"/>
        <pt x="310" y="464" on="1"/>
        <pt x="310" y="449" on="1"/>
        <pt x="285" y="449" on="0"/>
        <pt x="246" y="442" on="1"/>
        <pt x="234" y="440" on="1"/>
        <pt x="214" y="482" on="1"/>
        <pt x="147" y="442" on="1"/>
        <pt x="124" y="439" on="1"/>
      </contour>
      <contour>
        <pt x="94" y="517" on="1"/>
        <pt x="94" y="476" on="0"/>
        <pt x="140" y="476" on="1"/>
        <pt x="151" y="476" on="0"/>
        <pt x="173" y="483" on="1"/>
        <pt x="211" y="506" on="1"/>
        <pt x="210" y="597" on="1"/>
        <pt x="169" y="589" on="0"/>
        <pt x="112" y="565" on="1"/>
        <pt x="94" y="553" on="0"/>
      </contour>
    </TTGlyph>
</ttFont>
